<svg width="205" height="203" viewBox="0 0 205 203" fill="none" xmlns="http://www.w3.org/2000/svg">
<g clip-path="url(#clip0_292_1493)">
<path d="M204.999 97.4305V105.553L204.12 114.913C198.184 159.993 161.581 196.198 116.07 202.094L106.618 202.965C103.89 202.884 101.144 203.072 98.4167 202.965C49.8876 201.044 8.72634 164.768 1.25894 117.274C-9.44372 49.254 49.788 -9.29734 118.454 1.23005C166.375 8.58037 203.096 49.4245 204.99 97.4305H204.999ZM99.7488 4.63148C38.5597 6.6149 -6.18127 62.7161 6.95012 122.3C15.7316 162.156 49.8151 192.958 90.8405 197.705C157.639 205.442 212.43 145.93 198.085 80.6925C188.189 35.7021 146.447 3.12372 99.7488 4.63148Z" fill="white"/>
<path d="M104.906 99.2964L112.591 98.1117C113.062 100.185 113.189 102.177 113.28 104.286C114.585 134.334 81.3803 153.836 55.3894 137.762C32.235 123.438 31.6097 90.0703 54.1932 74.8761C68.6205 65.1654 88.4852 66.4847 101.145 78.4121L96.2788 84.2457C91.9651 80.1084 86.1471 77.2544 80.175 76.3479C63.4096 73.8081 47.4145 85.5381 45.4842 102.285C42.9105 124.677 64.7055 141.765 86.1562 133.93C100.112 128.832 108.45 113.737 104.897 99.3054L104.906 99.2964Z" fill="white"/>
<path d="M108.495 127.711C108.758 127.531 110.688 129.353 111.069 129.641C134.522 146.971 166.467 125.485 158.619 97.7801C152.176 75.0112 123.276 68.7199 107.036 85.9424C105.84 87.2079 106.021 87.9887 103.973 88.1502C101.608 88.3297 99.0341 87.8541 96.7051 87.4681C102.351 76.8869 113.978 69.6443 126.004 68.5314C162.607 65.1479 182.19 110.865 154.179 134.487C139.634 146.755 117.911 146.468 103.91 133.562C105.459 131.642 107.335 129.91 108.495 127.729V127.711Z" fill="white"/>
<path d="M139.923 67.8406L132.238 66.6559C135.138 54.1092 129.565 41.1227 118.563 34.4545C104.326 25.8297 85.6574 30.344 77.0028 44.3447C72.8794 51.0219 71.6288 59.0004 73.3144 66.6559L65.7111 67.679C62.5302 53.113 68.6835 37.9098 80.8453 29.3837C96.5413 18.3897 117.983 20.7321 130.879 34.7686C139.08 43.6985 142.27 55.9759 139.923 67.8406Z" fill="white"/>
<path d="M78.742 78.018C89.2906 92.1712 110.451 93.8854 123.447 81.8772C124.208 81.1771 126.573 78.2514 127.072 78.027C128.005 77.6141 135.69 78.009 135.654 78.5744C126.238 95.097 105.558 101.963 87.8316 94.4598C81.0167 91.5789 74.2743 86.0055 70.5043 79.6514C70.3684 79.4181 69.7159 78.4757 69.8881 78.3142C72.8152 77.9013 75.7877 77.5513 78.733 78.009L78.742 78.018Z" fill="white"/>
<path d="M92.4548 98.1299L100.085 99.3774C98.5719 105.328 99.3785 111.565 101.463 117.273C100.294 119.894 98.7532 122.38 96.7866 124.498C96.5148 124.552 96.4423 124.282 96.3335 124.112C95.4907 122.819 94.521 120.486 93.9773 119.005C91.5033 112.382 90.9595 105.049 92.4548 98.1299Z" fill="white"/>
<path d="M141.627 155.102L145.732 161.025V155.102H149.484V167.28H145.986L141.455 161.025V167.28H137.703V155.102H141.627Z" fill="white"/>
<path d="M94.5741 154.859C103.999 154.859 103.365 168.232 93.8945 167.442C85.6749 166.76 85.9105 154.85 94.5741 154.859ZM94.1029 158.189C90.8404 158.71 91.0579 163.744 94.0666 164.067C99.0238 164.597 98.335 157.516 94.1029 158.189Z" fill="white"/>
<path d="M113.615 167.28H109.093L106.791 160.181H109.265C109.473 160.181 109.899 159.382 109.863 159.086C109.827 158.79 109.129 158.153 108.92 158.153H106.446V167.289H102.686V155.11H110.289C110.66 155.11 111.92 155.766 112.255 156.035C114.421 157.794 113.995 161.635 111.585 162.99L113.624 167.289L113.615 167.28Z" fill="white"/>
<path d="M150.535 165.737C150.308 165.342 151.958 163.295 152.329 162.91C153.816 163.762 155.374 164.669 157.187 164.166C157.857 163.978 157.785 163.34 157.096 163.044C155.157 162.21 151.278 162.524 150.87 159.571C150.118 154.213 157.912 153.881 161.029 156.457C161.201 156.636 161.029 156.744 160.948 156.896C160.775 157.202 159.307 159.122 159.117 159.149C158.537 158.584 154.613 157.291 154.604 158.575C154.649 158.925 154.912 159.059 155.202 159.176C157.078 159.948 160.911 159.643 161.41 162.506C162.407 168.312 153.761 168.501 150.544 165.737H150.535Z" fill="white"/>
<path d="M125.233 156.466L123.248 159.15C122.287 158.638 120.04 157.57 119.025 158.18C118.717 158.369 118.581 158.737 118.844 159.015C121.327 159.778 125.785 159.832 125.568 163.476C125.269 168.528 117.448 168.268 114.539 165.594L116.342 162.713C117.657 163.835 119.106 164.4 120.865 164.238C121.671 164.167 121.898 163.933 121.463 163.135C118.472 162.282 114.385 162.3 114.983 158.082C115.482 154.582 120.783 154.447 123.384 155.488C124.073 155.766 124.544 156.224 125.215 156.466H125.233Z" fill="white"/>
<path d="M57.2468 167.28H53.4044L52.8063 165.764H49.5619L50.441 162.569L51.7822 162.542L50.5044 158.656L47.686 167.28H43.5898L48.2751 155.093L52.8969 155.272L57.2468 167.28Z" fill="white"/>
<path d="M65.8021 159.831C64.9502 157.22 61.0896 157.884 60.6728 160.442C60.0928 164.023 64.2343 165.584 66.0377 162.398L69.0192 163.744C67.5511 168.842 59.5128 168.474 57.3831 164.014C53.876 156.672 64.2252 151.593 68.412 157.148C68.6205 157.426 69.1098 158.045 69.0102 158.377C68.9377 158.62 65.9561 159.948 65.793 159.831H65.8021Z" fill="white"/>
<path d="M136.161 155.102V158.153H130.525V164.067H135.908L136.161 164.319V167.28H126.764V155.102H136.161Z" fill="white"/>
<path d="M86.6266 155.102V167.28H82.8748V162.802L82.612 162.551H78.7695L79.8208 159.356L82.8748 159.338V155.102H86.6266Z" fill="white"/>
<path d="M78.4347 155.102H74.6738V167.28H78.4347V155.102Z" fill="white"/>
<path d="M135.989 159.338V162.551H130.869C131.25 161.501 131.44 160.289 131.984 159.338H135.998H135.989Z" fill="white"/>
</g>
<defs>
<clipPath id="clip0_292_1493">
<rect width="205" height="203" fill="white"/>
</clipPath>
</defs>
</svg>
