<?xml version="1.0" encoding="UTF-8"?>
<svg id="Layer_1" data-name="Layer 1" xmlns="http://www.w3.org/2000/svg" viewBox="0 0 3476.85 4219.47">
  <defs>
    <style>
      .cls-1 {
        fill: #fae80d;
      }

      .cls-2 {
        fill: #312f0f;
      }

      .cls-3 {
        fill: #f6e312;
      }

      .cls-4 {
        fill: #fae80c;
      }

      .cls-5 {
        fill: #1b457c;
      }

      .cls-6 {
        fill: #f4e115;
      }

      .cls-7 {
        fill: #fbe90b;
      }

      .cls-8 {
        fill: #f6e412;
      }

      .cls-9 {
        fill: #f8e60f;
      }

      .cls-10 {
        fill: #f4e214;
      }

      .cls-11 {
        fill: #fbe90a;
      }

      .cls-12 {
        fill: #1a457c;
      }

      .cls-13 {
        fill: #fae70d;
      }

      .cls-14 {
        fill: #f0de18;
      }

      .cls-15 {
        fill: #ebda1c;
      }

      .cls-16 {
        fill: #ecdd1d;
      }

      .cls-17 {
        fill: #fce909;
      }

      .cls-18 {
        fill: #1a1a07;
      }

      .cls-19 {
        fill: #0c0c0c;
      }

      .cls-20 {
        fill: #1e497a;
      }

      .cls-21 {
        fill: #fcea08;
      }

      .cls-22 {
        fill: #877f31;
      }

      .cls-23 {
        fill: #1b467c;
      }

      .cls-24 {
        fill: #eedc1a;
      }

      .cls-25 {
        fill: #2e2d0e;
      }
    </style>
  </defs>
  <g id="evj7hz.tif">
    <g>
      <path class="cls-19" d="M0,2740.36l407.01,66.37,3.34-2.56,127.75-268.21c-74.08-225.65-85.24-466.09-103.1-701.96-21.13-279.11-33.1-559.09-55.16-838.11-8-101.25-17.09-200.62-39.64-299.68-31.19-137-80.71-271.67-136.79-400.02l2.44-7.99c174.86-69.87,356.54-124.08,539.93-167.69C1235.32,4.11,1727.28-31.37,2228.14,29c358.36,43.19,711.5,131.63,1048.47,257.92,1.12,4-.24,7.66-1.25,11.46-10.36,38.95-41.25,96.21-56.63,137.68-71.72,193.43-102.53,353.92-118.81,559.82-25.04,316.72-38.08,634.54-63.85,951.22-16.16,198.58-30.22,399.33-94.4,588.84,42.28,90.73,85.82,182.28,131.08,270.76,135.27-18.54,269.14-47.34,404.1-66.35l-.47,6.73c-161.32,302.18-396.48,561.78-683.5,748.69l191.66,361.96c2.61,5,4.11,11.09-.62,15.17-340.26,206.01-732.83,329.04-1132.64,343.53l-7.02,3.02h-214.59l-169.28-14.86c-341.15-40.08-671.9-153.97-964.57-331.69l-3.03-5.87,194.07-371.26C397.51,3308.11,163.81,3046.24,0,2743.26v-2.9ZM1643.59,32.39c-477.76,16.31-954.14,107.12-1399.92,276.09,56.96,131.91,106.22,271.6,135.3,412.75,25.95,125.98,32.17,259.24,41.46,387.77,25.42,351.68,38.06,708.2,75.45,1058.53,56.22,526.67,289.56,882.93,823.48,1006.44,406.99,94.15,996.21,56.36,1320.83-233.58,321.3-286.99,338.65-674.87,369.77-1077.39,22.55-291.63,34.62-584.28,58.06-875.81,7.98-99.32,17.25-197.18,39.08-294.44,29.54-131.66,75.41-260.82,128.99-384.27-118.44-47.72-241.33-85.92-364.66-119.51-334.77-91.19-675.64-144.29-1022.93-154.42-6.86-.2-13.2-2.98-20.06-3.14l-184.85.97ZM556.72,2580.85l-132.15,263.41-363.66-63.29c-2.45,2.46,29.72,54.34,33.57,60.65,133.69,219.35,319.7,420.95,528.05,571.06,9.15,6.59,77.65,56.06,82.07,52.73l86.12-161.88,488.07-104.97-136.99-44.2c-268.71-100.4-486.37-301.41-585.09-573.5ZM3418.85,2780.97l-363.66,63.29-132.15-263.41c-97.46,267.67-307.57,464.91-570.57,567.71l-151.49,49.99,488.07,104.97,86.21,161.76c2.21.61,4.33.23,6.49-.43,10.97-3.36,63.56-43.58,77.15-53.42,201.34-145.66,379.31-336.4,511.88-546.62,17.11-27.13,34.64-54.65,48.07-83.85ZM2119.58,3216.1c-222.76,41.54-454.8,45.45-679.41,13.98-26.74-3.75-53.33-9.85-79.98-13.98l-78.49,249.3c302.14,58.7,614.24,58.63,916.37,0l-78.49-249.3ZM1249.54,3456.46l74.26-234.6-482.85,101.47c.31,4.32,4.48,4.42,7.2,5.82,10.22,5.25,25.32,11.28,36.34,15.86,116.62,48.45,241.58,85.1,365.06,111.45ZM2638.82,3323.33l-484.27-101.51,77.23,235.13c129.79-29.14,261.74-67.59,383.74-120.69,7.36-3.2,18.59-6.53,23.29-12.93ZM805.27,3346.85l-270.46,510.08c702.74,427.09,1629.4,440.33,2346.65,38.22,9.2-5.16,63.42-35.07,64.36-40.05l-271.11-508.05c-548.16,242.14-1189.3,259.27-1750.39,48.02-40.08-15.09-78.89-33.42-119.06-48.22Z"/>
      <path class="cls-12" d="M1643.59,32.39l184.85-.97c6.86.16,13.2,2.94,20.06,3.14,347.29,10.13,688.16,63.22,1022.93,154.42,123.32,33.59,246.21,71.79,364.66,119.51-53.57,123.45-99.44,252.61-128.99,384.27-21.82,97.26-31.09,195.13-39.08,294.44-23.44,291.53-35.51,584.18-58.06,875.81-31.12,402.52-48.47,790.4-369.77,1077.39-324.61,289.95-913.84,327.73-1320.83,233.58-533.92-123.51-767.26-479.78-823.48-1006.44-37.39-350.32-50.04-706.85-75.45-1058.53-9.29-128.52-15.51-261.79-41.46-387.77-29.08-141.15-78.34-280.85-135.3-412.75C689.45,139.52,1165.83,48.7,1643.59,32.39ZM1658.17,187.65c-1.96,1.76-43.64,8.48-51.7,10.64-237.92,63.89-417.14,262.33-440.72,510.49l-.43,510.01c-2.01,5.98-57.59,17.99-68.53,21.37-77.25,23.91-231.43,75.09-238.58,170.32l.87,1362.48c10.94,81.12,160.17,136.45,228.35,157.35,342.28,104.93,870.18,104.8,1217.95,23.25,83.85-19.66,301.69-79.73,315.29-180.6l-.54-1375.57c-12.1-70.06-126.69-119.69-186.48-141.22-37.46-13.49-76.16-23.26-114.7-33.2l-4.54-4.16-.25-507.29c-22.11-263.73-230.47-478.28-488.28-523.82-22.33-68.18-130.16-75.24-163.55-14.75-2.25,4.07-2.88,13.55-4.16,14.7ZM654.66,425.26c-21.02,10.32-141.57,28.18-150.35,39.6-4.84,6.3-3.35,16.42.62,23.12l94.73,119.89c-.13,51.09-12.27,102.23-14.09,153.03-.53,14.87,2.75,29.48,20.47,26.39l134.63-65.46,132.17,65.47c11.35,3.35,21.46-6.95,21.73-17.56l-15.46-161.91c26.63-38.29,64.98-74.25,90.61-112.51,11.52-17.21,17.94-26.4-6.29-36.7l-136.92-34.18c-17.02-20.4-61.97-134.73-76.72-143.67-8.65-5.25-18.39-3.19-24.45,4.94l-70.69,139.55ZM2825.11,425.25l-70.7-139.54c-5.47-7.77-16.64-10.53-24.45-4.94l-76.72,143.67-136.92,34.18c-24.22,10.29-17.81,19.49-6.29,36.7,25.74,38.43,64.32,73.71,90.61,112.51l-16.05,162.43c.36,10.05,11.82,20.41,22.31,17.03l132.17-65.46,134.63,65.46c17.72,3.09,21-11.52,20.47-26.39-1.82-50.8-13.96-101.94-14.09-153.03l94.69-119.93c4.1-6.63,5.46-16.84.66-23.08-8.66-11.26-129.31-29.76-150.34-39.6Z"/>
      <path class="cls-12" d="M805.27,3346.85c40.17,14.8,78.98,33.13,119.06,48.22,561.08,211.25,1202.23,194.12,1750.39-48.02l271.11,508.05c-.95,4.97-55.17,34.89-64.36,40.05-717.25,402.11-1643.91,388.87-2346.65-38.22l270.46-510.08ZM2601.17,3784.45l-78.19-256.92-108.36,31.23-163.84,333.71,21.24,68.96,243.32-69.43,28.07,83.6,107.02-28.78-25.87-85.28c1.37-5.52,55.42-17.97,65.32-21.74,3.31-1.26,4.87,1.81,3.59-4.11-4.77-22.22-16.51-47.91-22.66-70.34l-69.65,19.1ZM988.79,3993.27l138.82-424.98c-.7-2.22-2.65-2.75-4.45-3.72-6.41-3.45-84.54-29.25-89.67-29.45-8.01-.3-34.13,14.71-45.29,18.12-38.22,11.66-72.93,7.74-112.05,5.4-4.43,21.91-20.96,52.71-23.57,73.63-.79,6.34.58,3.43,4.32,4.17,46.08,9.08,94.03,11.76,140.62,5.91l-98.55,309.06,2.87,5.57,86.95,36.29ZM1180.21,3926.54c7.29,156.58,252.64,189.77,357.6,118.38,103.61-70.47,136.81-291.43,33.64-374.8-97.65-78.91-332.59-82.56-364.4,70.1-28.78,138.13,116.85,192.89,229.46,177.29,29.39-4.07,59.28-13.6,82.95-31.56-15.86,83.47-68.29,123.2-153.76,105.96-37.11-7.49-62.66-23.78-77.24-59.67l-108.26-5.7ZM2166.16,3740.9c-64.7-155.09-321.91-127.93-399.61,2.06-49.19,82.31-40.37,231.64,28.29,301.19,105.94,107.31,405.89,57.93,388.36-124.5-14.86-154.61-252.08-165.03-337.49-65.62-21.26-120.73,133.52-181.19,209.12-93.5l111.33-19.63Z"/>
      <path class="cls-21" d="M556.72,2580.85c98.72,272.09,316.37,473.11,585.09,573.5l136.99,44.2-488.07,104.97-86.12,161.88c-4.42,3.33-72.91-46.14-82.07-52.73-208.35-150.11-394.36-351.71-528.05-571.06-3.85-6.32-36.02-58.19-33.57-60.65l363.66,63.29,132.15-263.41Z"/>
      <path class="cls-21" d="M3418.85,2780.97c-13.44,29.2-30.97,56.72-48.07,83.85-132.58,210.23-310.54,400.96-511.88,546.62-13.6,9.84-66.18,50.06-77.15,53.42-2.16.66-4.28,1.04-6.49.43l-86.21-161.76-488.07-104.97,151.49-49.99c263-102.8,473.11-300.04,570.57-567.71l132.15,263.41,363.66-63.29Z"/>
      <path class="cls-22" d="M2638.82,3323.33c-4.7,6.4-15.93,9.72-23.29,12.93-122,53.1-253.96,91.55-383.74,120.69l-77.23-235.13,484.27,101.51Z"/>
      <path class="cls-22" d="M1249.54,3456.46c-123.47-26.35-248.43-63-365.06-111.45-11.02-4.58-26.12-10.61-36.34-15.86-2.72-1.4-6.89-1.5-7.2-5.82l482.85-101.47-74.26,234.6Z"/>
      <path class="cls-18" d="M1658.17,187.65c1.28-1.15,1.92-10.63,4.16-14.7,33.39-60.49,141.22-53.43,163.55,14.75,257.81,45.54,466.18,260.09,488.28,523.82l.25,507.29,4.54,4.16c38.53,9.93,77.24,19.71,114.7,33.2,59.79,21.53,174.37,71.16,186.48,141.22l.54,1375.57c-13.6,100.87-231.44,160.94-315.29,180.6-347.76,81.55-875.66,81.68-1217.95-23.25-68.17-20.9-217.41-76.24-228.35-157.35l-.87-1362.48c7.15-95.23,161.33-146.41,238.58-170.32,10.93-3.38,66.52-15.39,68.53-21.37l.43-510.01c23.58-248.17,202.8-446.6,440.72-510.49,8.05-2.16,49.73-8.88,51.7-10.64ZM1812.38,185.22c-17.62-57.34-123.24-57.51-143.46-2.79-10.33,27.95-.53,57.6,23.09,74.81l24.62-18.34c-37.87-28.19-13.52-78.02,33.22-70.86,11.87,1.82,17.75,11.91,23.98,13.71,3.5,1.01,36.98,4.61,38.55,3.47ZM2273.48,1423.65c10.56-5.85,21.52-14.33,23.3-27.42-8.27-216.33,10.55-440.26,0-655.7-3.42-69.73-20.4-142.8-48.9-206.31-92.78-206.68-312.63-343.2-539.89-334.46-.6,6.75.26,20.21,7.74,22.72,10.51,3.53,40.83-.65,54.74.36,265.93,19.25,497.64,272.45,503.11,537.99l-.09,662.82ZM1655.78,208.45c-149.39,24.45-287.33,113.38-373.53,236.91-59.51,85.27-94.01,187.97-99.25,292.27-10.87,216.23,8.49,441.43,0,658.6,1.58,13.13,12.47,20.21,21.89,27.41l4.36-703.27c24.51-237.46,215.98-443.43,449.37-488.8l-2.84-23.12ZM1789.17,249.02c-.5-3.9-3.94-5.09-7.36-5.65-6.26-1.02-39.72-3.05-44.87-1.73-24.96,6.4-51.4,32.99-60.85,56.68,9.87-3.08,26.8-2.84,35.44-5.88,1.09-.38,11.32-11.33,17.73-14.87,19.16-10.58,39.65-20.28,59.91-28.56ZM1754.38,278.06h47.85c9.15,3.94,10.43,21.59,13.74,25.4,1.4,1.61,32.09,13.68,38.96,17.61,73.77,42.18,123.87,123.11,122.77,209.3l4.74-5.85,27.31,1.34c6.48,25.83,26.89,43.81,22.32,71.99-3.26,20.1-24.47,38.18-45.21,37.41l-69.82,479.09c-93.41,29.54-197.41,33.21-293.68,15.48-12.53-2.31-57.64-9.1-62.61-18.59l-67.43-476.36c-14.83,1.47-29.04-7.46-37.59-18.96-23.95-32.18,5.04-58.79,14.36-90,11.26-2.88,23.01-3.3,31.99,4.47-2.06-82.73,46.09-165.06,116.97-206.41,8.3-4.84,44.25-19.4,46.79-22.81,2.94-3.95,3.22-11.76,6.18-17.02,2.62-4.65,13.07-15.84,12.57-18.73-4.56-4.69-12.1-15.73-18.43-16.11-9.93-.6-52.54,12.46-64.78,16.4-202.03,64.97-362.39,264.26-374.73,477.88v465.45c89.3-17.36,180.23-30.66,271.13-37.67,217.5-16.78,447.67-11.46,663.55,20.76,30.24,4.51,60.58,9.94,90.34,16.96l1.46-465.5c-12.17-169.93-104.67-316.88-242.64-412.77-46.55-32.35-137.43-78.55-193.85-81.75-18.98-1.08-19.18,6.44-33.13,13.18-9.66,4.67-23.14,6.48-29.12,15.83ZM1681.9,336.08c17.11,47.96,108.23,44.14,122.42-3.73,2.58-8.7,5.11-38.75-5.39-42.29l-30.04-.38c19.99,41.92-23.2,74.28-56.49,40.3l-30.51,6.11ZM1712.34,315.76c15.92-1.79,34.49,1.3,50.75,0l-.2-11.4c-123.31-15.03-238.11,84.75-248.81,207.54-3.47,39.83,8.15,70.17,11.26,108.38,21.31-17.12,1.06-54.66,0-79.79-4.4-105.03,81.17-212.85,187-224.73ZM1954.44,620.29c-.64-32.66,12.75-60.82,11.74-94.39-2.72-90.07-64.58-180.17-150.88-207.22-3.38,16.23,12.28,15.18,23.23,21.69,79.93,47.5,121.38,123.31,113,217.52-1.81,20.32-19.61,48.36,2.92,62.4ZM1672.78,342.14c-94.67,30.34-149.38,135.21-130.06,231.75,126.69-35.13,267.57-34.7,394.34-.02,17.51-97.95-34.02-194.8-125.94-232.19-29.02,50.75-110.09,52.07-138.34.46ZM1487.59,539.1c-4.71-.28-6.74-1.04-10.02,3-2.11,2.6-19.02,41.29-19.17,44.9-.73,17.16,14.01,30.97,29.18,36.19,4.71-16.86-6.69-13.85-11.78-21.52-12.11-18.27,13.77-43.29,11.79-62.57ZM2000.49,539.47l-8.31-.39c-3.01,18.57,16.62,35.89,14.41,53.38-1.81,14.29-19.45,14.67-17.31,30.71,48.58-13.5,27.24-52.38,11.21-83.7ZM1734.08,562.28l-110.21,5.79c.4,13.1,4.5,93.67,9.43,97.92,33.05,7,67.12,6.78,100.77,6.5v-110.21ZM1745.68,562.28v110.21l113.11-5.78,8.55-95.6c-40.25-5.06-80.87-9.8-121.65-8.82ZM1609.37,570.99l-59.14,14.2-1.72,11.88,59.18-17.12,1.68-8.96ZM1504.99,573.86l-8.64,1.42,14.72,86.79c5.91,9.24,48.16,20.07,60.62,22.06.85,7.65-.41,5.91-6.57,5.13-17.43-2.19-37.95-13.1-54.3-19.66-11.87,15.71,50.71,32.37,60.88,31.92.82,7.66-.4,5.92-6.58,5.14-16.64-2.09-35.1-12.54-51.41-16.75-.63,24.73,41.81,20.94,57.97,33.35-9.37,6.4-52.1-16.11-55.07-13.05,1.39,23.19,39.68,19.31,55.07,30.45-8.31,7.55-50.56-15.28-52.15-13.06-2.97,23.72,34.9,18.92,49.25,30.47l-46.36-10.15.41,11.17,45.94,16.41c.98,7.76-2.92,2.37-7.09,1.28-11.8-3.07-24.1-5.65-34.96-11.44l-1.18,8.4c30.67,11.48,62.55,21.22,95.45,23.48l-9.94-119.13c-31.92-8.28-66.51-11.3-94.66-30.04l-11.4-74.18ZM1930.89,585.87c-8.8-1.36-46.13-15.95-50.5-9.22l-7.09,87.14c12.78-4.71,70.74-13.58,76.94-23.07s-4.35-9.15-8.96-14.44c-12.8-14.67-10.1-21.4-10.39-40.41ZM1980.55,573.9c-8.23-1.36-4.85,1.68-6.19,6.69-5.79,21.72-4.38,45.82-10.96,67.49-25.53,16.4-57.63,21.21-86.94,27.59l-8.97,121.52c29.6-4.65,59.09-11.33,86.47-23.67l-.92-11.1-60.98,20.23-1.38-5.7c8.68-1.18,78.63-16.42,66.66-31.94-16.07,6.2-34.5,13.7-51.47,16.64-3.24.56-15.21,3.56-15.17-2.11,11.26-2.96,22.93-4.4,34.08-7.99s37.93-8.98,34.01-23.99c-19.81,4.25-38.62,13.16-58.56,16.89-5.62,1.05-3.65-.4-3.75-5.22,15.97-4.44,48.55-8.86,61.68-17.4,3.51-2.28,4.36-10.38,5.01-14.51-20.7,6.72-41.39,15.71-62.94,19.74-5.67,1.06-5.33-3.61-3.74-5.21,1.23-1.24,28.01-6.03,34.09-7.99,13.51-4.35,33.58-8.39,35.5-23.92-19.34,4.16-37.59,13.63-57.29,16.62-3.34.51-15.18,3.6-15.18-2.12,12.29-1.93,68.26-15.28,72.39-24.77,1.45-3.33,1.68-8.04-4.25-7.2-13.72,1.95-35.35,13.95-52.96,16.69-3.11.48-12.75,3.4-12.28-2.12,23.94-6.53,49.41-10.07,70.92-23.34l13.13-89.79ZM1612.28,585.5c-10.76-.14-79.61,14.56-66.65,31.89l64.97-19.99,1.68-11.89ZM1612.28,602.9c-2.49-2.67-58.12,15.98-65.77,19.75-2.63,1.29-26.4,13.36-21.2,17.92l84.2-24.51,2.76-13.16ZM1615.18,620.3c-2.65-2.93-56.43,14.95-64.51,18.11-3.84,1.5-13.09,3.59-13.75,7.94,24.54,6.97,50.78-12.51,76.59-14.15l1.67-11.9ZM1615.04,637.77c-2.06-1.44-42.37,8.68-47.96,11.24-3.37,1.55-5.26-1.4-4.08,6.05l55.11,8.74-3.07-26.03ZM1745.68,686.99v118.91l107.28-5.82,11.61-121.76-118.89,8.67ZM1734.08,686.99l-107.31-5.81,9.12,118.52c32.44,5.16,65.32,7.07,98.19,6.2v-118.91ZM1951.56,788.52c-22.35,8.75-45.39,14.94-69.05,19.37-96.28,18.02-216.08,17.16-311.42-5.73-13.75-3.3-26.59-10.03-38.66-13.56-8.55-2.5-2.86,20.78.57,23.34,5.95,4.45,43.42,13.57,53.17,15.74,56.01,12.43,113.36,14.07,169.7,13.04,66.05-1.21,130.33-5.08,192.4-29.43l3.29-22.77ZM1635.5,985.73l-9.97-136.52-91.52-22.99c-2.47,24.28,40.32,18.4,55.06,30.45-8.73,6.9-49.13-13.47-52.17-10.15l1.72,11.88,50.44,15.67c-16.32,2.79-33.9-5.02-49.25-10.16-12.97,18.08,45.17,22.07,49.26,26.14,1.57,1.56,1.94,6.28-3.74,5.21-6.32-1.18-41.15-12.66-42.64-11.04l1.68,11.9,44.71,11.32c-.1,4.82,1.87,6.28-3.75,5.22-6.7-1.25-40.64-12.61-42.65-11.02,3.34,21.01,29.83,18.14,46.4,23.2.1,4.99,1.61,6.24-4.13,5.61-12.01-1.33-27.68-7.5-39.34-11.44-2.52,20.68,28.36,19.89,43.48,23.22.08,4.99,1.61,6.26-4.14,5.62-6.17-.68-34.54-10.51-36.45-8.52-1.58,18.53,27.08,17.42,40.59,20.31.18,5.26,1.46,6.09-4.32,5.8-11.45-.57-22.25-6.83-33.37-8.71.12,3.82-.96,8.2,1.32,11.71,3.6,5.54,79.36,20.65,82.77,17.3ZM1945.75,826.22l-83.94,20.42-11.73,139.06,75.06-14.79-1.17-11.33c-19.07,5.35-39.32,15.86-59.39,13.11l63.48-19.16.27-14.21c-19.14,8.59-42.99,16.22-63.75,15.96,9.98-8.22,63.1-14.21,66.32-23.58.73-2.13,1.54-9.87-1.13-9.83-19.07,5.35-39.32,15.86-59.39,13.11,10.15-7.03,57.32-13.04,62.38-21.71,2.11-3.61,1.38-7.77,1.37-11.65-16.39,7.36-38.95,15.74-56.84,17.12-6.12.47-7.92,2.08-6.94-5.5,22.97-1.23,45.3-9.09,66.19-17.9l-.97-11.15c-17.24,6.09-40.27,15.29-58.18,17.27-5.75.64-4.22-.63-4.14-5.62,12.74-1.03,61.91-11.89,66.27-22.21.75-1.77,1.76-9.03-.98-9.68l-60.98,20.23-1.38-5.7c10.29-2.13,62.39-14.64,66.18-20.82,1.6-2.61,2.69-12.93-3.73-11.03-17.95,5.29-39.09,20.5-59.55,15.87,11.32-8.02,59.04-14.07,65.25-24.65,2.14-3.65,1.46-7.68,1.41-11.61ZM1734.08,855.21l-95.74-4.31,11.63,137.73,84.11,2.89v-136.31ZM1745.68,855.21v136.31l92.81-2.89,11.63-137.73-104.44,4.31ZM1922.56,985.73c-106.64,24.07-220.48,27.58-328.25,7.83-10.46-1.92-22.68-7.35-32.77-7.88-8.39-.44-3.99,15.25-3.05,20.51,115.64,31.76,242.3,28.47,359.17,2.78l4.91-23.24ZM1641.31,1035.01l-79.8-14.42c-.96,19.35,11.81,19.09,27.6,20.25,2.5,13.96-25.19-1.21-26.08-.02-1.48,17.48,12.1,17.23,26.08,17.41,2.69,13.3-19.74-.58-23.2,2.9-2.54,15.71,15.3,11.35,23.17,18.85l-20.26-1.45,1.23,11.8,19.04,7.06-17.36-1.46.17,8.46,75.2,14.75-5.79-84.14ZM1858.77,1046.65c9.75-2.23,55.05-8.68,57.64-16.34.67-1.99,1.65-9.01-1.04-9.75l-67.87,14.77-6.1,83.78c13.13-4.54,60.98-6.76,66.22-19.3.74-1.77,1.71-6.65-.96-6.76-11.94,5.5-28.01,9.79-40.98,11.22-3.85.42-17.68,3.04-18.48-2.52,7.74.66,77.55-11.81,63.76-26.12-18.11,2.6-35.67,9.25-53.91,11.37-5.75.67-4.13-.57-4.09-5.57,14.03-1.98,44.38-4.89,55.81-11.62,3.55-2.09,5.42-7.55,5.08-11.58-2.41-2.25-43.5,10.08-52.21,10.4-4.44.16-7.22,1.22-8.67-4.59l58.86-11.55,4.93-14.56-56.59,14.43-1.39-5.72ZM1734.08,1040.82l-78.31-2.91c-.39,28,3.18,56.06,6.07,83.87l72.24,6.05v-87.01ZM1745.68,1040.82v87.01l81.21-5.78c1.48-28.04,6.31-56.03,5.8-84.14l-87.01,2.92ZM1934.17,1272.81l-31.78-85.65c-105.49-7.07-211.98-4.93-317.33-1.51l-30.81,85.69,88.37-4.43c97.34-.15,194.54-.98,291.55,5.89ZM1226.62,1230.79v102.96c96.17-37.35,200.28-49.52,302.66-58.38l33.72-86.6c-54.4,1.05-109.35,5.6-163.48,11.93-44.96,5.26-94.34,12.03-138.64,20.85-6.32,1.26-32.82,4.76-34.26,9.24ZM2253.15,1333.74v-102.96c-8.73-6.12-23.1-7.01-34.26-9.24-44.52-8.87-93.46-15.56-138.64-20.85-50.63-5.93-104.19-11.46-154.82-10.47l29.31,85.24c100.93,8.97,203.53,21.59,298.42,58.28ZM1165.71,1243.83c-113.27,19.61-433,130.11-211.44,262.24,43.66,26.04,93.63,42.46,141.7,58.45l124.83-107.56c1.16-5.78-1.26-3.54-3.67-4.94-19.49-11.35-50.16-25.71-53.68-50.88-1.46-10.46,2.34-16.28,2.41-25.22.33-44.02-.49-88.1-.14-132.08ZM2290.85,1438.1l134.31,112.52c115.86-38.28,272.42-129.74,99.62-231.88-62.3-36.83-140.24-59.75-210.72-74.91.36,43.99-.47,88.07-.14,132.08.06,7.81,3.65,14.26,2.9,22.72-1.61,18.29-16.16,26.26-25.98,39.47ZM1937.07,1293.14c-128.16-8.11-257.57-9.11-385.69-.01l.03,26.1,68.13-5.9,4.36,7.35-72.53,4.35v29.03c9.26-1.03,71.18-6.11,72.52-1.43,1.94,6.78-6.24,4.1-10.14,4.32-20.82,1.18-41.45,4.09-62.39,2.89v29.03c21.27.08,40.79-3.9,62.39-2.91,3.9.18,12.09-2.41,10.14,4.32-1.49,5.14-68.68,2.22-72.11,7.69l-.42,25.7,72.5-2.9c1.26,7.53-1.14,5.2-6.26,6.62-19.79,5.46-45.15-.33-66.19,5v28.97s72.5-4.32,72.5-4.32c-.04,6.58-5.07,6.75-10.03,7.37-7.92.98-60.27.55-62.51,2.74l1.87,29.16c127.77,10.84,256.09,9.17,383.81-.14v-203.02ZM1531.08,1293.15c-102.46,12.53-207.95,21.46-303.97,61.37l-.46,25.63c69.53-28.12,144.97-41.99,219.28-51.83,11.64-1.54,84.06-5.65,85.29-11l-.14-24.16ZM1957.37,1296.04v197.22c99.53-7.1,200.87-20.91,293.99-57.7l1.3-81.04c-93.62-36.87-195.3-50.5-295.29-58.48ZM1531.11,1327.93c-102.98,7.25-207.43,21.33-304.1,58.41l-.38,28.59c96.76-36.73,201.34-51.46,304.48-57.98v-29.03ZM1531.11,1362.73c-103.08,8.09-206.86,22.62-304.12,58.36-6.97,11.86,11.01,22.24,20.21,21.48,10.57-.87,37.22-12.5,50.69-15.8,76.37-18.66,154.71-29.94,233.22-35.02v-29.03ZM1531.08,1397.55c-91.95,8.65-184.34,20.37-272.55,47.84,9.82,5.33,34.84,15.39,44.88,15.54,22.78.33,87.44-18,116.53-22.29,36.84-5.43,74.11-8.72,111.18-12.07l-.03-29.02ZM1531.08,1432.36c-67.15,8.58-135.5,13.65-201.53,29.04-4.48,1.04-5.05-1.95-4.35,5.74,21.56.57,47.03,11.85,68.02,11.71,20.66-.13,53.52-8.62,75.89-11.34,9.41-1.14,59.19-3.56,61.67-6.47l.3-28.69ZM2401.04,1559.93l-126.56-112.62c-52.88,23.38-108.9,37.67-165.78,47.93-162.13,29.26-330.87,31.18-494.98,24.14-124.26-5.33-249.35-17.36-368.17-55.18l-123.26,105.9c-.03,3.62,51.1,15.12,58.46,16.88,282.98,67.63,643.48,71.11,931.35,33.47,97.74-12.78,194.44-33.2,288.94-60.52ZM1096.13,1899.29v-311.77c-14.36-9.62-34.04-12.58-50.8-18.8-61.29-22.76-121.49-50.31-166.69-98.66v294.37c0,13.73,28.48,44.37,39.23,53.57,46.88,40.12,119.49,65.79,178.25,81.29ZM1531.11,1470.04c-3.63-3.63-89.95,7.24-102.1,9.58-3.23.62-11.51.58-10.99,4.9l113.06,11.63.03-26.12ZM2430.05,1600.57c42.09-9.96,89.66-33.34,124.43-59.71,22.03-16.71,48.48-40.92,46.62-70.8-46.06,48.7-107.72,77.93-170.65,99.01l-.39,31.5ZM2430.06,1638.26c41.45-14.48,86.17-33.39,121.52-59.69,23.5-17.48,54.25-44.65,49.52-76.59l-27.45,31.96c-41.85,34.83-91.68,58.57-143.21,75.74l-.39,28.58ZM2430.05,1673.06c3.88,4.09,80.33-33.6,89.94-39.08,33.91-19.35,85.59-53.16,81.1-97.21l-31.83,36.27c-25.92,21.21-54.92,36.96-85.07,51.23-9.43,4.46-47.56,16.97-51.29,21.21-5.75,6.53-1.9,19.11-2.85,27.58ZM2430.05,1707.87c3.98,4.13,73.57-29.04,83.13-34.3,34.79-19.14,90.04-54.99,87.92-99.1-29.25,36.26-66.34,61.8-108.2,81.72-12.14,5.78-53.6,18.82-59.97,24.13-5.82,4.84-1.85,20.03-2.87,27.56ZM2082.06,1644.07v316.13c111.95-12.29,222.59-34.72,330.28-67l.27-28.71c-23.73,7.21-50.31,18.41-74.64,22.49-4.13.69-10.64,3.51-9.44-3.61l83.82-24.97.28-28.7c-25.04,6.77-49.67,16.82-75.2,21.94-4.05.81-10.02,4.28-8.9-3.07l79.54-24.9c8.28-5.74,3.48-19.77,4.55-28.78l-82.59,23.24-1.51-7.28,81.26-23.17,2.84-27.59-80.07,22.9-4.03-6.94,83.71-25.07.37-28.6-82.65,26.07-1.45-7.21,83.83-24.95.28-28.7c-24.37,5.85-50.25,17.63-74.61,22.53-3.51.7-11.73,2.93-9.49-3.66,1.35-3.94,70.17-19.93,79.54-24.9,8.28-5.75,3.48-19.77,4.55-28.77l-84.1,21.71c-.28-6.49,5.63-6.15,9.75-7.65,13.29-4.84,64.91-15.79,71.52-21.28,5.81-4.83,1.79-20.24,2.84-27.59l-80.07,22.9-4.03-6.94,82.39-24.34c2.85-1.99,2.39-22.92,1.73-27.95-.55-4.22,1.64-4.86-4.18-4.16-106.17,33.32-216.17,52.15-326.4,66.58ZM1461.5,1649.87c-117.64-9.02-233.61-30.64-347.98-58v311.77c48.62,18.76,104.18,29,156.05,38.24,63.38,11.29,127.64,20.25,191.92,24.11v-316.13ZM2430.05,1742.68c5.36,5.22,83.57-33.56,94.73-40.11,32.1-18.84,79.19-52.05,76.32-93.3-29.57,39.64-69.8,63.75-114,84.62-10.04,4.74-50.01,17.71-54.21,21.19-5.72,4.74-1.85,20.16-2.84,27.61ZM2430.05,1780.37c36.45-13.12,73.31-28.08,105.91-49.21,28.25-18.31,69.62-49.58,65.14-87.07l-26.03,30.47c-42.14,35.72-92.94,58.89-144.63,77.21l-.38,28.59ZM2061.76,1646.97c-45.97,1.86-91.87,8.95-137.77,11.57-66.25,3.78-134.28,3.62-199.94,2.8l-110.43.25-131.82-8.82v316.13l117.32,8.82c112.29,3.11,224.4,3.84,336.47-3.05,42.05-2.59,84.16-8.66,126.17-11.57v-316.13ZM2430.06,1815.17c3.3,3.72,81-33.95,89.94-39.08,33.44-19.16,85.62-53.98,81.1-97.21l-31.83,36.27c-23.69,19.04-50,34.14-77.29,47.41-9.87,4.8-55.76,21.27-59.07,25.03-5.75,6.53-1.89,19.11-2.85,27.57ZM2430.05,1849.98c45.71-9.82,162.43-69.32,170.89-117.63,1.04-5.96-.13-12.59.16-18.65l-33.24,37.76c-26.15,21.65-56.86,37.31-87.48,51.72-8.59,4.05-44.27,15.99-47.52,19.18-5.66,5.56-1.83,19.78-2.81,27.62ZM2430.05,1884.78c3.09,3.25,72.75-28.69,81.24-33.28,36.85-19.91,88.57-54.21,89.8-100.12-28.94,38.51-70.75,64.28-114,84.62-10,4.7-50.06,17.75-54.21,21.19-5.74,4.76-1.83,20.15-2.84,27.59ZM1241.12,2273.42v-314.67c-22.16-8.99-48.55-11.6-72.53-17.36-101.15-24.31-216.56-58.24-289.94-134.9v294.37c0,24.02,50.73,63.01,69.84,75.16,84.08,53.44,196.41,75.9,292.64,97.4ZM2305.35,1944.24v314.67c60.67-14.16,122.16-31.41,178.85-57.49,39.29-18.08,108.85-57.19,116.69-103.74.49-2.92,2.33-10.66-2.62-9.86-15.74,29.6-47.73,50.98-76.39,67.18-59.75,33.77-126.69,51.91-191.93,71.96l-1.38-8.58c70.43-18.48,145.12-38.94,206.81-78.88,25.76-16.68,71.73-52.31,64.31-86.49-52.4,68.17-145.07,102.01-225.43,125.47-10.76,3.14-28.62,9.72-38.76,10.58-6.1.51-7.99,1.96-6.97-5.52,36.4-9.09,72.87-19.51,108.01-32.67,47.06-17.62,166.02-69.34,164.64-128.31-.08-3.28,1.73-8.03-2.93-7.24-22.78,42.83-74.77,70-117.89,89.47-39.29,17.75-101.06,40.83-142.95,48.46-4.02.73-10,4.46-8.85-3.05,37.62-13.31,76.47-22.7,113.78-37.03,45.02-17.3,112.53-48.3,142.58-86.52,11.11-14.13,19.43-27.22,16.16-46.15l-33.4,37.6c-48.05,41.08-170.67,89.7-233.05,100.47-4.27.74-7.04,3.63-6.07-3.18,34.34-13.46,70.47-21.37,105.08-34.13,47.93-17.68,162.62-67.91,167.61-125.31.26-2.97,1.74-11.08-3-10.24-13.58,27.59-44.54,48.97-70.59,64.28-60.55,35.58-130.93,54.51-197.73,74.86l-1.43-7.2c71.07-20.58,145.93-40.6,208.57-81.46,26.26-17.13,69.96-50.2,62.6-85.3-40.43,57.08-112.41,87.53-176.85,110.25-21.31,7.51-69.57,25.07-89.99,26.07-5.77.28-4.52-.53-4.32-5.79,53.43-13.55,107.6-29.22,157.64-52.64,37.26-17.44,116.19-62.07,115.02-108.33-.08-3.28,1.74-8.03-2.93-7.25-.45,4.97-2.7,9.25-5.81,13.06-44.01,53.88-135.52,89.21-200.79,109.5-16.46,5.12-42.93,14.69-58.99,16.47-5.73.63-4.25-.6-4.12-5.59,65.67-18.49,136.1-38.27,195.16-73.11,30.95-18.26,84.04-54.46,75.96-95.17-46.56,68.23-142.59,102.62-219.61,125.51-13.84,4.11-31.66,10.23-45.42,12.61-4.27.74-7.04,3.63-6.07-3.18,53.64-18.82,109-32.48,160.5-57.01,42.39-20.18,110.64-57.38,112.02-109.8-55.97,59.09-135.81,90.35-212.33,113.88-11.82,3.63-82.07,19.73-83.42,23.88ZM2287.95,1948.59c-38.79,3.93-76.53,13.89-115.03,19.82-80.03,12.33-162.23,21.71-243.13,26.56-47.65,2.85-96.4.69-143.51,5.83v316.13c168.59-3.5,336.55-19.26,501.67-52.2v-316.13ZM1768.88,2000.8c-169.94-1.76-340.39-9.74-507.47-40.6v314.67l4.89,3.81c76.8,11.38,153.95,23.47,231.47,29.52,55.41,4.32,112.79,7.46,168.04,8.85,34.3.86,68.79-.88,103.06-.12v-316.13ZM1096.13,2575.04v-314.67c-77.05-29.13-161.4-53.23-217.49-117.46v297.27c0,1.59,13.28,24.23,15.88,27.62,43.18,56.26,136.54,85.47,201.61,107.24ZM2430.06,2276.31c45.57-16.04,97.84-37.89,134.74-69.68,17.38-14.97,39.99-39.12,36.3-63.72-43.99,50.52-107.17,76.29-168.25,99.97l-2.79,33.43ZM2430.05,2311.11c45.61-10.6,162.35-68.83,170.89-117.63,1.04-5.96-.13-12.59.16-18.65l-33.24,37.76c-26.16,21.62-56.84,37.35-87.48,51.72-9.31,4.37-43.12,14.9-47.52,19.18-5.65,5.49-1.82,19.83-2.8,27.63ZM2430.05,2345.93c5.02,4.91,78.3-31.17,88.93-37.21,33.49-19.05,84.87-53.38,82.12-96.2-29.37,36.78-65.97,61.62-108.2,81.72-11.76,5.6-54.41,19.51-59.97,24.13-5.8,4.82-1.87,20.05-2.87,27.57ZM2430.05,2380.73c42.09-9.96,89.66-33.34,124.43-59.71,22.95-17.41,49.87-42.34,46.62-73.7-40.58,56.4-107.91,83.31-170.57,107.78l-.47,25.63ZM2082.06,2316.92v316.13c113.3-9.96,224.77-34.73,333.5-66.74l-2.94-26.06-84.09,21.72c-.93-8.37-.74-5.52,4.39-7.26,10.5-3.57,78.58-19.78,79.85-25.09l-.16-27.09-82.66,26.06-1.44-7.2,84.26-26.57-.16-27.09c-24.34,6.54-50.02,17.58-74.6,22.54-3.53.71-11.66,2.96-9.49-3.66l83.82-24.97.28-28.7-84.11,21.71c-.29-6.51,5.65-6.14,9.75-7.65,22.69-8.39,48.86-11.77,71.52-21.28l2.84-27.59-82.59,23.24-1.5-8.72,82.31-22.92,1.79-26.41-82.68,23.16-1.43-7.2,83.72-25.07.38-28.59c-24.16,6.73-50.02,18.37-74.65,22.49-3.5.59-11.65,3.09-9.44-3.61l83.82-24.97.28-28.7-84.11,21.71c-.27-6.31,5.49-6.29,9.7-7.7,13.77-4.63,63.62-14.62,71.57-21.23,6.06-5.04,1.53-25.1,2.84-33.38-107.64,32.77-218.55,54.61-330.56,66.69ZM1461.5,2322.72c-117.6-7.66-234-29.35-347.98-58v316.13c113.81,30.71,230.68,48.78,347.98,60.9v-319.03ZM2430.06,2418.42c3.04,3.43,75.63-31.48,84.14-36.18,35.59-19.65,90.46-54.28,86.9-100.11l-27.45,31.96c-23.38,18.94-48.78,35.54-75.88,48.82-12.01,5.88-58.06,21.49-63.57,26.32-7.39,6.48-3.25,20.15-4.14,29.18ZM2430.05,2453.22c45.24-11.43,162.28-68.43,170.89-117.63,1.04-5.96-.13-12.59.16-18.65l-31.83,36.27c-25.91,21.25-54.94,36.89-85.07,51.23-9.55,4.55-47.12,17.05-51.35,21.15-5.65,5.49-1.82,19.83-2.8,27.63ZM2061.76,2319.82c-41.93,3.43-84.15,9.05-126.17,11.57-45.31,2.72-91.22,1.03-136.14,5.95l-200.33-2.9-117.32-8.82v314.67l7.25,4.35c165.93,9.9,332.9,13.98,498.74-.02,24.57-2.07,49.57-5.31,73.97-8.68v-316.13ZM2430.05,2488.03c3.98,4.13,73.57-29.04,83.13-34.3,34.79-19.14,90.04-54.99,87.92-99.1-29.25,36.26-66.34,61.8-108.2,81.72-12.14,5.78-53.6,18.82-59.97,24.13-5.82,4.84-1.85,20.03-2.87,27.56ZM2430.05,2522.85c5.37,5.22,83.56-33.56,94.73-40.11,32.1-18.84,79.19-52.05,76.32-93.3-40.94,56.06-107.8,83.32-170.57,107.78l-.48,25.63ZM2430.05,2557.65c5.37,5.22,83.56-33.56,94.73-40.11,32.08-18.82,76.84-52.9,76.32-93.29l-26.03,30.47c-42.25,35.62-92.81,58.98-144.64,77.21l-.38,25.71ZM1241.12,2630.15c-118.52-24.64-245.76-52.48-342.22-129.02l-20.26-21.79v297.27c0,23.33,55.22,64.79,74.51,76.29,84.14,50.17,192.38,75.01,287.97,93.37v-316.13ZM2305.35,2615.65v316.13c54.02-10.24,108.79-26.64,159.4-47.95,43.37-18.26,130.28-60.73,136.39-113.03.35-2.98,1.98-10.92-2.87-10.11-21.39,40.41-71.42,67.85-112.09,86.58-41.84,19.26-104.02,41.45-148.79,51.32-3.99.88-9.9,4.54-8.82-3.01,34.43-13.14,70.52-21.32,105.08-34.13,47.59-17.64,167.21-68.93,167.59-128.26.02-3.24,1.62-8.08-2.98-7.29-18.13,34.39-60.48,60.52-94.63,77.93-54.62,27.85-115.23,43.58-173.68,61.21l-1.42-8.64c70.43-16.66,147.39-40.51,208.56-80.02,27.01-17.45,69.68-49.32,62.6-85.3-38.17,54.73-106.85,85.01-168.15,107.35-23.24,8.47-76.19,27.87-98.68,28.97-5.77.28-4.52-.53-4.32-5.79,68.46-17.1,142.78-39.23,202.75-77.13,29.19-18.45,72.88-49.77,69.81-88.21-53.23,66.01-138.79,98.85-218.13,122.58-13.6,4.07-34.35,11.59-47.38,13.55-6.02.91-8.15,1.46-7.03-5.58,65.92-17.41,134.01-37.76,193.33-72.05,27.34-15.8,75.99-49.42,79.39-83.02.29-2.83,1.86-13.8-3-13.16-1.24,5.78-5.04,11.41-8.81,15.86-42.44,50.06-127.47,83.83-189.09,103.8-22.63,7.34-48.6,15.88-71.85,18.05-.27-6.31,5.49-6.29,9.7-7.7,64.46-21.65,239.52-67.57,261.59-141.5,1.34-4.48,4.34-21.43-1.54-23.31-21.08,38.9-67.23,65.09-106.29,83.68-51.57,24.54-107.18,39.86-161.94,55.56l-1.5-8.72c32.25-5.83,65.52-15.76,96.43-26.85,48.84-17.52,175.61-70.48,176.28-131.17.04-3.24,1.6-8.09-2.98-7.3-15.66,30.15-47.56,50.75-76.39,67.18-59.67,34-126.6,52.06-191.93,71.97l-1.38-8.58c69.62-17.33,148.07-40.4,208.52-80.07,25.33-16.63,70.02-51.58,62.6-85.3-42.95,58.82-118.07,90.21-185.55,113.14-18.91,6.43-60.75,21.39-78.63,22.9-6.08.52-8,1.97-6.95-5.51,67.53-18.29,141.12-39.18,200.97-76,29.45-18.11,74.8-51.02,71.57-89.34l-20.23,21.78c-78.55,63.11-178.81,91.48-275.52,114.52ZM2287.95,2621.45c-36.58,5.46-72.67,14.07-109.23,19.82-94.03,14.79-188.75,22.65-283.73,29.46l-108.71,2.93v316.13c170.58-.46,340.56-19.31,507.45-52.23l-5.79-2.87v-313.22ZM1768.88,2673.65c-129.18.52-258.46-5.22-386.75-20.67-40.31-4.86-80.28-13.19-120.71-17.03v316.13c87.1,12.89,174.45,25.61,262.46,31.87,33.72,2.4,68,1.32,101.34,5.95l143.66-.12v-316.13Z"/>
      <path class="cls-16" d="M2825.11,425.25c21.03,9.84,141.68,28.34,150.34,39.6,4.8,6.23,3.43,16.45-.66,23.08l-94.69,119.93c.13,51.09,12.27,102.23,14.09,153.03.53,14.87-2.75,29.48-20.47,26.39l-134.63-65.46-132.17,65.46c-10.49,3.38-21.95-6.98-22.31-17.03l16.05-162.43c-26.29-38.8-64.87-74.08-90.61-112.51-11.52-17.21-17.94-26.4,6.29-36.7l136.92-34.18,76.72-143.67c7.81-5.59,18.98-2.83,24.45,4.94l70.7,139.54ZM2813.51,439.76l-76.06-144.29-73.82,145.16-146.6,34.67,101.09,126.77-17,166.09,140.17-66.03,135.3,66.04-13.76-166.05,97.86-126.84-147.18-35.54Z"/>
      <path class="cls-16" d="M654.66,425.26l70.69-139.55c6.06-8.13,15.79-10.18,24.45-4.94,14.75,8.94,59.7,123.28,76.72,143.67l136.92,34.18c24.22,10.29,17.81,19.49,6.29,36.7-25.63,38.27-63.98,74.22-90.61,112.51l15.46,161.91c-.27,10.61-10.38,20.9-21.73,17.56l-132.17-65.47-134.63,65.46c-17.72,3.09-21-11.52-20.47-26.39,1.82-50.8,13.96-101.94,14.09-153.03l-94.73-119.89c-3.97-6.69-5.47-16.82-.62-23.12,8.78-11.41,129.33-29.28,150.35-39.6ZM962.73,475.31l-146.65-34.62-73.77-145.21-76.06,144.29-147.18,35.54,97.86,126.84-13.76,166.05,135.3-66.04,140.17,66.03-17-166.09,101.09-126.77Z"/>
      <path class="cls-1" d="M2166.16,3740.9l-111.33,19.63c-75.61-87.69-230.38-27.23-209.12,93.5,85.41-99.4,322.63-88.99,337.49,65.62,17.53,182.43-282.42,231.8-388.36,124.5-68.66-69.55-77.48-218.88-28.29-301.19,77.7-129.99,334.91-157.15,399.61-2.06ZM1877.2,3904.38c-26.44,28.11-19.04,73.25,12.5,94.19,55.64,36.95,206.65,10.52,176.45-80.76-21.53-65.07-149.47-55.41-188.95-13.43Z"/>
      <path class="cls-1" d="M1180.21,3926.54l108.26,5.7c14.58,35.89,40.13,52.18,77.24,59.67,85.47,17.24,137.91-22.49,153.76-105.96-23.68,17.97-53.56,27.49-82.95,31.56-112.61,15.59-258.25-39.16-229.46-177.29,31.81-152.66,266.75-149,364.4-70.1,103.17,83.37,69.97,304.32-33.64,374.8-104.95,71.38-350.31,38.2-357.6-118.38ZM1379.61,3701.08c-48.81,6.58-79.35,50.05-57.79,96.9,23.63,51.34,177.31,66.13,200.73,5.45,32.47-84.12-82.55-110.49-142.94-102.35Z"/>
      <path class="cls-1" d="M2601.17,3784.45l69.65-19.1c6.15,22.43,17.88,48.13,22.66,70.34,1.27,5.92-.28,2.85-3.59,4.11-9.9,3.77-63.95,16.21-65.32,21.74l25.87,85.28-107.02,28.78-28.07-83.6-243.32,69.43-21.24-68.96,163.84-333.71,108.36-31.23,78.19,256.92ZM2493.57,3816.06l-46.1-162.13-92.81,202.99,138.91-40.87Z"/>
      <path class="cls-1" d="M988.79,3993.27l-86.95-36.29-2.87-5.57,98.55-309.06c-46.59,5.85-94.54,3.17-140.62-5.91-3.74-.74-5.11,2.17-4.32-4.17,2.61-20.91,19.13-51.71,23.57-73.63,39.12,2.33,73.83,6.26,112.05-5.4,11.17-3.41,37.28-18.42,45.29-18.12,5.12.19,83.26,25.99,89.67,29.45,1.8.97,3.75,1.51,4.45,3.72l-138.82,424.98Z"/>
      <path class="cls-12" d="M1754.38,278.06c5.98-9.35,19.46-11.16,29.12-15.83,13.94-6.74,14.15-14.26,33.13-13.18,56.42,3.21,147.3,49.4,193.85,81.75,137.97,95.9,230.47,242.84,242.64,412.77l-1.46,465.5c-29.76-7.02-60.09-12.45-90.34-16.96-215.88-32.22-446.05-37.54-663.55-20.76-90.9,7.01-181.82,20.3-271.14,37.67v-465.45c12.35-213.63,172.71-412.91,374.74-477.88,12.24-3.94,54.85-17,64.78-16.4,6.33.38,13.87,11.43,18.43,16.11.5,2.89-9.95,14.08-12.57,18.73-2.96,5.26-3.24,13.07-6.18,17.02-2.54,3.41-38.49,17.97-46.79,22.81-70.88,41.35-119.03,123.69-116.97,206.41-8.98-7.77-20.73-7.35-31.99-4.47-9.31,31.21-38.3,57.82-14.36,90,8.56,11.5,22.76,20.43,37.59,18.96l67.43,476.36c4.97,9.49,50.08,16.28,62.61,18.59,96.27,17.73,200.27,14.06,293.68-15.48l69.82-479.09c20.74.77,41.95-17.31,45.21-37.41,4.57-28.18-15.84-46.16-22.32-71.99l-27.31-1.34-4.74,5.85c1.09-86.19-49-167.12-122.77-209.3-6.87-3.93-37.55-16-38.96-17.61-3.31-3.81-4.59-21.45-13.74-25.4h-47.85Z"/>
      <path class="cls-21" d="M2061.76,1646.97v316.13c-42.02,2.91-84.12,8.99-126.17,11.57-112.07,6.89-224.17,6.16-336.47,3.05l-117.32-8.82v-316.13l131.82,8.82,110.43-.25c65.66.82,133.69.99,199.94-2.8,45.9-2.62,91.8-9.71,137.77-11.57Z"/>
      <path class="cls-21" d="M2061.76,2319.82v316.13c-24.4,3.36-49.4,6.6-73.97,8.68-165.84,14-332.81,9.92-498.74.02l-7.25-4.35v-314.67l117.32,8.82,200.33,2.9c44.92-4.92,90.83-3.23,136.14-5.95,42.02-2.52,84.24-8.14,126.17-11.57Z"/>
      <path class="cls-21" d="M1768.88,2000.8v316.13c-34.27-.77-68.77.98-103.06.12-55.26-1.39-112.63-4.53-168.04-8.85-77.52-6.05-154.67-18.13-231.47-29.52l-4.89-3.81v-314.67c167.07,30.86,337.53,38.84,507.47,40.6Z"/>
      <path class="cls-21" d="M1768.88,2673.65v316.13l-143.66.12c-33.35-4.63-67.62-3.55-101.34-5.95-88.02-6.27-175.36-18.98-262.46-31.87v-316.13c40.43,3.84,80.4,12.18,120.71,17.03,128.29,15.45,257.58,21.19,386.75,20.67Z"/>
      <path class="cls-17" d="M2287.95,2621.45v313.22l5.79,2.87c-166.89,32.92-336.87,51.77-507.45,52.23v-316.13l108.71-2.93c94.98-6.81,189.7-14.66,283.73-29.46,36.56-5.75,72.65-14.36,109.23-19.82Z"/>
      <path class="cls-17" d="M2287.95,1948.59v316.13c-165.11,32.94-333.08,48.7-501.67,52.2v-316.13c47.11-5.14,95.87-2.98,143.51-5.83,80.9-4.84,163.1-14.23,243.13-26.56,38.49-5.93,76.23-15.89,115.03-19.82Z"/>
      <path class="cls-11" d="M2401.04,1559.93c-94.5,27.33-191.2,47.74-288.94,60.52-287.87,37.64-648.37,34.16-931.35-33.47-7.36-1.76-58.49-13.25-58.46-16.88l123.26-105.9c118.82,37.82,243.9,49.85,368.17,55.18,164.11,7.03,332.85,5.12,494.98-24.14,56.88-10.27,112.91-24.55,165.78-47.93l126.56,112.62Z"/>
      <path class="cls-17" d="M1461.5,2322.72v319.03c-117.29-12.12-234.17-30.2-347.98-60.9v-316.13c113.98,28.65,230.38,50.35,347.98,58Z"/>
      <path class="cls-17" d="M1461.5,1649.87v316.13c-64.28-3.86-128.54-12.83-191.92-24.11-51.88-9.24-107.44-19.48-156.05-38.24v-311.77c114.37,27.36,230.33,48.98,347.98,58Z"/>
      <path class="cls-4" d="M1241.12,2630.15v316.13c-95.58-18.36-203.83-43.2-287.97-93.37-19.29-11.5-74.51-52.96-74.51-76.29v-297.27l20.26,21.79c96.46,76.54,223.7,104.38,342.22,129.02ZM1043.92,2618.53c1.18-6.18-2.88-6.75-7.06-8.86-18.02-9.13-42.49-15.71-61.59-25.41-27.09-13.75-43.88-28.43-67.5-45.6-3.97-2.88-5.81-5.5-11.71-4.21-3.3,2.94,7.89,12.23,10.22,14.4,14.48,13.45,127.9,78.24,137.64,69.68ZM1043.92,2647.59c-35.73-12.1-72.26-27.91-104.14-48.14-12.16-7.72-23.17-19.35-34.75-26.17-4.69-2.76-3.79-6.37-8.93.31,22.98,23.62,53.48,41.81,83,56.14,12.66,6.15,48.58,23.13,60.5,23.66,5.76.26,4.58-.53,4.33-5.8ZM1043.93,2682.38c-31.35-9.52-65.48-24.54-93.68-41.2-17.12-10.11-31.39-24.06-46.99-34.23-4.42-2.88-7.34-1.08-7.17,1.44.42,6.17,44.24,35.57,52.37,40.37,16.11,9.51,75.55,39.62,91.05,39.51,5.75-.04,4.69-.3,4.42-5.89ZM1043.92,2725.84c1.11-5.65-2.62-6.97-6.64-9.28-20.28-11.66-51.3-19.82-74.6-32.7s-38.29-25.27-57.94-40.66c-4.61-3.61-3.39-6.53-8.68.04-.49,3.12,16.93,17.25,20.52,20.02,36.11,27.92,84.12,48.62,127.34,62.57ZM1043.92,2760.64c1.26-6.35-3.07-6.58-7.1-8.82-34.65-19.21-70.96-28.48-106.89-52.61-11.14-7.48-21.08-21.16-33.87-22.65-4.16,3.82,20.18,21.95,23.43,24.39,35.22,26.33,82.25,47.45,124.43,59.69ZM1043.92,2789.71c-44.03-14.88-86.9-35-124.44-62.64-2.01-1.48-23.91-25.4-23.38-11.36.3,7.93,68.26,48.7,79.17,54.17,11.46,5.75,54.29,25.16,64.27,25.68,5.75.3,4.68-.69,4.38-5.85ZM1043.93,2824.49c-31.18-9.93-65.56-24.5-93.68-41.19-16.69-9.91-31.93-25.36-47.02-34.21-3.7-2.17-7.4-2.38-7.13,1.42,1.17,16.96,121.96,77.04,143.5,82.59l4.33-8.61ZM1043.91,2867.95c1.14-5.76-2.69-6.92-6.66-9.26-20.13-11.91-51.5-20.09-74.58-32.71-22.23-12.16-38.37-25.32-57.94-40.66-3.07-2.41-6.48-6.87-8.67.04-1.54,4.86,13.98,10.5,16,15.84,39.62,29.36,84.86,51.74,131.85,66.76Z"/>
      <path class="cls-4" d="M1241.12,2273.42c-96.23-21.5-208.55-43.96-292.64-97.4-19.11-12.15-69.84-51.14-69.84-75.16v-294.37c73.38,76.66,188.79,110.59,289.94,134.9,23.98,5.77,50.37,8.38,72.53,17.36v314.67ZM1043.92,1945.68c1.13-5.74-2.66-6.9-6.66-9.26-19.92-11.78-51.38-19.95-74.58-32.71-22.24-12.24-38.33-25.29-57.94-40.66-3.07-2.41-6.48-6.87-8.67.04-1.54,4.86,13.98,10.5,16,15.84,39.28,29.73,84.6,52.55,131.85,66.76ZM1043.92,1980.48c1.26-6.35-3.07-6.58-7.1-8.82-34.64-19.21-70.96-28.48-106.89-52.61-11.14-7.48-21.08-21.16-33.87-22.65-4.16,3.82,20.18,21.95,23.43,24.39,35.28,26.37,82.33,47.13,124.43,59.69ZM1043.92,2009.54c-34.84-13.32-70.87-26.75-102.43-46.95-10.2-6.53-29.76-25.65-37.7-29.05-3.82-1.63-7.87-1.34-7.69,2,.45,8.5,66.4,47.13,77.62,52.82,12.66,6.42,54.36,26.43,65.82,27.03,5.75.3,4.68-.69,4.38-5.85ZM1043.92,2044.33c-35.58-11.35-72.67-27.98-104.14-48.13-12.3-7.87-23.64-19.67-34.76-26.16-4.67-2.73-3.76-6.4-8.93.31,39.3,40.36,92.88,60.61,143.5,82.59l4.32-8.6ZM1043.91,2079.17c-34.18-9.7-71.07-26.17-101.25-45.25-14.5-9.16-26.31-21.67-39.4-30.22-4.42-2.89-7.34-1.07-7.17,1.44.97,14.15,86.52,58.83,102.38,65.76,10.25,4.47,31.85,14.6,41.45,16.59,6.75,1.4,3.57-4.26,3.98-8.32ZM1043.92,2122.59c1.26-6.36-3.08-6.58-7.1-8.82-23.78-13.2-54.45-21.68-79.94-36.06-19.13-10.79-32.06-22.58-49.11-34.99-3.97-2.89-5.81-5.5-11.71-4.21-.98,5.68,3.79,8.26,7.33,11.49,36.1,33.03,94.26,58.13,140.53,72.58ZM1043.92,2151.65c-39.98-14.26-78.93-31.65-113.99-55.69-7.15-4.9-20.6-18.92-25.14-21.27s-8.76,1.09-8.69,2.96c.58,15.27,116.87,72.81,136.2,78.34,5.66,1.62,13.54,4.8,11.62-4.34ZM1043.92,2186.45c-28.6-9.32-57.92-21.51-84.15-36.23-20.37-11.43-36.6-27.39-54.74-38.08-4.69-2.76-3.78-6.37-8.93.31,24.58,25.07,57.01,44.19,88.8,59.05,11.91,5.57,43.44,20.26,54.7,20.75,5.76.26,4.58-.53,4.33-5.8Z"/>
      <path class="cls-7" d="M2082.06,1644.07c110.23-14.43,220.23-33.27,326.4-66.58,5.82-.7,3.63-.06,4.18,4.16.66,5.03,1.12,25.96-1.73,27.95l-82.39,24.34,4.03,6.94,80.07-22.9c-1.05,7.35,2.97,22.76-2.84,27.59-6.61,5.49-58.23,16.44-71.52,21.28-4.12,1.5-10.03,1.16-9.75,7.65l84.1-21.71c-1.07,9,3.73,23.03-4.55,28.77-9.38,4.97-78.2,20.96-79.54,24.9-2.25,6.58,5.98,4.36,9.49,3.66,24.36-4.9,50.23-16.68,74.61-22.53l-.28,28.7-83.83,24.95,1.45,7.21,82.65-26.07-.37,28.6-83.71,25.07,4.03,6.94,80.07-22.9-2.84,27.59-81.26,23.17,1.51,7.28,82.59-23.24c-1.08,9,3.73,23.03-4.55,28.78l-79.54,24.9c-1.12,7.35,4.84,3.88,8.9,3.07,25.53-5.12,50.16-15.17,75.2-21.94l-.28,28.7-83.82,24.97c-1.21,7.12,5.31,4.3,9.44,3.61,24.33-4.08,50.91-15.28,74.64-22.49l-.27,28.71c-107.69,32.28-218.33,54.71-330.28,67v-316.13Z"/>
      <path class="cls-7" d="M2082.06,2316.92c112.01-12.08,222.93-33.92,330.56-66.69-1.31,8.29,3.23,28.34-2.84,33.38-7.95,6.61-57.8,16.6-71.57,21.23-4.2,1.41-9.97,1.39-9.7,7.7l84.11-21.71-.28,28.7-83.82,24.97c-2.21,6.7,5.94,4.2,9.44,3.61,24.62-4.12,50.48-15.76,74.65-22.49l-.38,28.59-83.72,25.07,1.43,7.2,82.68-23.16-1.79,26.41-82.31,22.92,1.5,8.72,82.59-23.24-2.84,27.59c-22.66,9.5-48.83,12.89-71.52,21.28-4.1,1.51-10.04,1.14-9.75,7.65l84.11-21.71-.28,28.7-83.82,24.97c-2.18,6.62,5.95,4.37,9.49,3.66,24.57-4.95,50.26-16,74.6-22.54l.16,27.09-84.26,26.57,1.44,7.2,82.66-26.06.16,27.09c-1.27,5.31-69.35,21.52-79.85,25.09-5.12,1.74-5.32-1.11-4.39,7.26l84.09-21.72,2.94,26.06c-108.73,32.01-220.2,56.78-333.5,66.74v-316.13Z"/>
      <path class="cls-7" d="M1937.07,1293.14v203.02c-127.73,9.31-256.04,10.98-383.81.14l-1.87-29.16c2.23-2.19,54.58-1.76,62.51-2.74,4.96-.62,9.99-.79,10.03-7.37l-72.5,4.32v-28.97c21.03-5.33,46.4.47,66.19-5,5.13-1.42,7.53.92,6.26-6.62l-72.5,2.9.42-25.7c3.43-5.48,70.62-2.55,72.11-7.69,1.95-6.74-6.24-4.14-10.14-4.32-21.6-.99-41.12,2.99-62.39,2.91v-29.03c20.93,1.21,41.56-1.71,62.38-2.89,3.9-.22,12.08,2.46,10.14-4.32-1.34-4.68-63.26.4-72.52,1.43v-29.03s72.52-4.35,72.52-4.35l-4.36-7.35-68.13,5.9-.03-26.1c128.12-9.1,257.53-8.1,385.69.01Z"/>
      <path class="cls-3" d="M2305.35,1944.24c1.35-4.15,71.59-20.24,83.42-23.88,76.53-23.53,156.36-54.79,212.33-113.88-1.39,52.42-69.64,89.62-112.02,109.8-51.51,24.52-106.86,38.19-160.5,57.01-.96,6.81,1.8,3.92,6.07,3.18,13.75-2.38,31.57-8.49,45.42-12.61,77.03-22.89,173.05-57.29,219.61-125.51,8.08,40.71-45.01,76.92-75.96,95.17-59.07,34.84-129.5,54.62-195.16,73.11-.13,4.99-1.6,6.23,4.12,5.59,16.06-1.78,42.53-11.35,58.99-16.47,65.27-20.29,156.78-55.62,200.79-109.5,3.11-3.81,5.36-8.09,5.81-13.06,4.67-.78,2.85,3.96,2.93,7.25,1.17,46.26-77.76,90.89-115.02,108.33-50.04,23.43-104.21,39.09-157.64,52.64-.2,5.26-1.45,6.07,4.32,5.79,20.42-1,68.67-18.55,89.99-26.07,64.44-22.72,136.42-53.17,176.85-110.25,7.35,35.1-36.34,68.17-62.6,85.3-62.64,40.86-137.51,60.88-208.57,81.46l1.43,7.2c66.8-20.36,137.18-39.28,197.73-74.86,26.05-15.31,57-36.68,70.59-64.28,4.74-.84,3.26,7.27,3,10.24-4.99,57.4-119.68,107.64-167.61,125.31-34.61,12.76-70.74,20.66-105.08,34.13-.96,6.81,1.8,3.92,6.07,3.18,62.38-10.78,185-59.4,233.05-100.47l33.4-37.6c3.27,18.93-5.05,32.01-16.16,46.15-30.05,38.22-97.56,69.22-142.58,86.52-37.31,14.33-76.16,23.72-113.78,37.03-1.15,7.51,4.83,3.78,8.85,3.05,41.89-7.63,103.66-30.71,142.95-48.46,43.12-19.47,95.12-46.65,117.89-89.47,4.66-.79,2.85,3.97,2.93,7.24,1.38,58.97-117.58,110.69-164.64,128.31-35.14,13.16-71.62,23.57-108.01,32.67-1.02,7.49.87,6.04,6.97,5.52,10.14-.86,28-7.44,38.76-10.58,80.36-23.46,173.02-57.3,225.43-125.47,7.42,34.18-38.55,69.81-64.31,86.49-61.69,39.94-136.38,60.4-206.81,78.88l1.38,8.58c65.24-20.06,132.18-38.19,191.93-71.96,28.65-16.2,60.64-37.58,76.39-67.18,4.95-.79,3.11,6.94,2.62,9.86-7.84,46.55-77.4,85.66-116.69,103.74-56.69,26.08-118.18,43.33-178.85,57.49v-314.67Z"/>
      <path class="cls-3" d="M2305.35,2615.65c96.72-23.04,196.97-51.41,275.52-114.52l20.23-21.78c3.23,38.32-42.12,71.22-71.57,89.34-59.86,36.82-133.44,57.71-200.97,76-1.05,7.48.88,6.03,6.95,5.51,17.88-1.52,59.72-16.48,78.63-22.9,67.48-22.94,142.6-54.32,185.55-113.14,7.42,33.72-37.27,68.67-62.6,85.3-60.45,39.67-138.9,62.74-208.52,80.07l1.38,8.58c65.33-19.9,132.26-37.96,191.93-71.97,28.83-16.43,60.72-37.02,76.39-67.18,4.58-.79,3.02,4.06,2.98,7.3-.67,60.68-127.44,113.65-176.28,131.17-30.91,11.09-64.18,21.02-96.43,26.85l1.5,8.72c54.76-15.7,110.37-31.01,161.94-55.56,39.06-18.58,85.21-44.78,106.29-83.68,5.88,1.88,2.88,18.83,1.54,23.31-22.08,73.93-197.14,119.85-261.59,141.5-4.2,1.41-9.97,1.39-9.7,7.7,23.25-2.17,49.21-10.71,71.85-18.05,61.62-19.97,146.65-53.74,189.09-103.8,3.77-4.45,7.57-10.08,8.81-15.86,4.87-.64,3.29,10.33,3,13.16-3.39,33.61-52.05,67.22-79.39,83.02-59.32,34.28-127.41,54.64-193.33,72.05-1.12,7.05,1.01,6.49,7.03,5.58,13.04-1.97,33.79-9.48,47.38-13.55,79.35-23.73,164.9-56.57,218.13-122.58,3.07,38.44-40.62,69.76-69.81,88.21-59.96,37.9-134.29,60.03-202.75,77.13-.2,5.26-1.45,6.07,4.32,5.79,22.49-1.1,75.44-20.5,98.68-28.97,61.3-22.34,129.98-52.62,168.15-107.35,7.08,35.98-35.59,67.85-62.6,85.3-61.17,39.51-138.12,63.36-208.56,80.02l1.42,8.64c58.46-17.63,119.06-33.36,173.68-61.21,34.15-17.41,76.5-43.54,94.63-77.93,4.6-.79,3,4.05,2.98,7.29-.38,59.33-120,110.62-167.59,128.26-34.56,12.81-70.65,20.99-105.08,34.13-1.08,7.55,4.82,3.89,8.82,3.01,44.77-9.86,106.95-32.05,148.79-51.32,40.67-18.72,90.7-46.17,112.09-86.58,4.85-.81,3.22,7.13,2.87,10.11-6.11,52.3-93.02,94.77-136.39,113.03-50.6,21.3-105.38,37.7-159.4,47.95v-316.13Z"/>
      <path class="cls-12" d="M1672.78,342.14c28.24,51.61,109.31,50.29,138.34-.46,91.92,37.39,143.44,134.25,125.94,232.19-126.77-34.68-267.65-35.11-394.34.02-19.32-96.55,35.39-201.41,130.06-231.75Z"/>
      <path class="cls-11" d="M1165.71,1243.83c-.36,43.99.47,88.07.14,132.08-.07,8.94-3.87,14.76-2.41,25.22,3.52,25.17,34.19,39.53,53.68,50.88,2.41,1.4,4.83-.84,3.67,4.94l-124.83,107.56c-48.06-16-98.04-32.42-141.7-58.45-221.56-132.13,98.17-242.63,211.44-262.24Z"/>
      <path class="cls-7" d="M2290.85,1438.1c9.82-13.21,24.37-21.17,25.98-39.47.74-8.46-2.84-14.9-2.9-22.72-.34-44.02.49-88.1.14-132.08,70.48,15.17,148.42,38.08,210.72,74.91,172.79,102.14,16.24,193.6-99.62,231.88l-134.31-112.52Z"/>
      <path class="cls-9" d="M1096.13,1899.29c-58.76-15.5-131.37-41.17-178.25-81.29-10.75-9.2-39.23-39.84-39.23-53.57v-294.37c45.2,48.35,105.39,75.89,166.69,98.66,16.76,6.22,36.44,9.18,50.8,18.8v311.77ZM1043.94,1600.59c-39.9-11.43-80.57-31.34-115.23-54.45-8.66-5.78-17.18-15.57-25.44-20.97-4.42-2.89-7.34-1.06-7.17,1.44.42,6.17,44.24,35.57,52.37,40.37,16.11,9.51,75.54,39.62,91.05,39.51,5.75-.04,4.69-.3,4.42-5.89ZM1043.92,1644.05c1.26-6.35-3.08-6.58-7.1-8.82-22.59-12.53-51.67-20.58-76.02-34.18-21.45-11.97-37.08-24.78-56.05-39.65-4.6-3.61-3.4-6.54-8.67.04l30.95,26.97c11.01,11.7,111.92,60.01,116.89,55.62ZM1043.92,1678.86c1.18-6.16-2.87-6.77-7.05-8.87-28.21-14.17-59.18-22.98-87.67-39.93-16.07-9.56-27.19-20.75-41.43-31.07-3.97-2.88-5.81-5.5-11.71-4.21-4.16,3.82,20.18,21.95,23.43,24.39,35.22,26.33,82.25,47.45,124.43,59.69ZM1043.92,1707.91c-36.1-12.44-73.89-28.32-105.92-49.26-9.71-6.35-26.75-23.54-34.22-26.74-3.82-1.63-7.87-1.34-7.69,2,.47,8.91,66.27,47.06,77.62,52.82,13.27,6.74,53.47,26.42,65.87,26.98,5.76.26,4.58-.54,4.33-5.8ZM1043.93,1742.7c-32.39-9.71-66.54-24.98-95.46-42.31-16.39-9.82-30.25-23.36-45.21-33.11-4.42-2.88-7.34-1.07-7.17,1.44,1.17,16.96,121.96,77.04,143.5,82.59l4.33-8.61ZM1043.91,1786.17c1.14-5.76-2.69-6.92-6.66-9.26-19.92-11.78-51.39-19.95-74.58-32.71-12.17-6.7-24.21-14.47-35.65-22.35-8.26-5.69-16.65-15.07-23.73-19.78-4.45-2.96-7.36-.91-7.2,1.47,1.14,16.83,124.37,81.2,147.82,82.64ZM1043.92,1820.97c1.26-6.35-3.07-6.58-7.1-8.82-34.64-19.21-70.96-28.48-106.89-52.61-5.77-3.88-29.41-26.69-33.87-22.65-.98,5.68,3.79,8.26,7.33,11.49,36.41,33.31,93.84,58.03,140.53,72.58ZM1043.92,1850.03c-44.03-14.88-86.9-35-124.44-62.64-2.01-1.48-23.92-25.4-23.38-11.36.58,15.27,116.87,72.81,136.2,78.34,5.66,1.62,13.54,4.8,11.62-4.34Z"/>
      <path class="cls-9" d="M1096.13,2575.04c-65.07-21.77-158.42-50.97-201.61-107.24-2.6-3.39-15.88-26.03-15.88-27.62v-297.27c56.08,64.23,140.44,88.33,217.49,117.46v314.67ZM1043.92,2282.1c1.26-6.35-3.08-6.58-7.1-8.82-9.94-5.52-24.59-8.81-35.43-13.87-38.04-17.74-60.22-32.89-93.62-57.18-3.97-2.89-5.81-5.5-11.71-4.21-1.31,5.7,3.02,6.84,6.06,9.86,33.98,33.69,96.72,59.95,141.8,74.22ZM1043.92,2311.17c-43.92-15.17-86.87-34.99-124.44-62.64-2.01-1.48-23.92-25.4-23.38-11.36.58,15.27,116.87,72.81,136.2,78.34,5.66,1.62,13.54,4.8,11.62-4.34ZM1043.92,2345.97c-42.38-13.68-83.12-33.4-119.85-58.53-6.89-4.72-13.65-12.66-20.85-16.88-4.2-2.46-7.35-1.71-7.13,1.42.23,3.37,24.91,21.87,29.75,25.29,20.04,14.18,91.92,53.54,113.75,54.51,5.76.26,4.58-.53,4.33-5.8ZM1043.93,2380.75c-40.35-11.91-80.3-31.16-115.22-54.45-8.66-5.78-17.18-15.57-25.44-20.97-4.42-2.89-7.34-1.06-7.17,1.44,1.18,17.25,121.56,77.22,143.55,82.32l4.28-8.34ZM1043.92,2424.22c1.26-6.35-3.08-6.58-7.1-8.82-24.52-13.6-55.75-22-81.82-37.07-17-9.83-31.12-23.52-47.28-33.92-3.85-2.48-5.53-5.83-11.66-4.26,2.2,7.75,14.24,16.59,20.52,21.5,35.8,27.96,84.37,48.58,127.34,62.57ZM1043.92,2453.28c-40.02-14.22-78.88-31.71-113.99-55.69-5.68-3.88-29.48-26.68-33.87-22.65-1.03,5.08,2.62,7.16,5.74,10.18,25.51,24.63,84.42,55.42,118.17,67.43,5.24,1.86,26.79,12.51,23.95.73ZM1043.92,2488.08c-35.73-12.1-72.26-27.91-104.14-48.14-12.16-7.72-23.17-19.35-34.75-26.17-4.69-2.76-3.79-6.37-8.93.31,21.2,20.84,46.92,37.76,73.37,51.27,12.37,6.32,59.29,28.02,70.07,28.58,5.76.3,4.67-.7,4.39-5.86ZM1043.93,2522.87c-32.39-9.72-66.54-24.99-95.46-42.32-16.39-9.82-30.25-23.36-45.21-33.11-4.42-2.88-7.34-1.07-7.17,1.44.34,4.86,35.31,29.16,41.93,33.41,18.15,11.67,83.02,46.6,101.49,46.46,5.75-.04,4.69-.3,4.42-5.89Z"/>
      <path class="cls-17" d="M1957.37,1296.04c99.99,7.98,201.67,21.6,295.29,58.48l-1.3,81.04c-93.11,36.79-194.46,50.6-293.99,57.7v-197.22Z"/>
      <path class="cls-3" d="M2273.48,1423.65l.09-662.82c-5.47-265.54-237.18-518.75-503.11-537.99-13.92-1.01-44.23,3.17-54.74-.36-7.48-2.51-8.34-15.97-7.74-22.72,227.25-8.73,447.11,127.78,539.89,334.46,28.51,63.51,45.49,136.58,48.9,206.31,10.56,215.44-8.26,439.37,0,655.7-1.78,13.09-12.74,21.57-23.3,27.42Z"/>
      <path class="cls-8" d="M1655.78,208.45l2.84,23.12c-233.39,45.37-424.86,251.34-449.37,488.8l-4.36,703.27c-9.42-7.2-20.32-14.27-21.89-27.41,8.5-217.17-10.86-442.37,0-658.6,5.24-104.3,39.74-206.99,99.25-292.27,86.2-123.53,224.14-212.46,373.53-236.91Z"/>
      <path class="cls-11" d="M1934.17,1272.81c-97-6.87-194.21-6.04-291.55-5.89l-88.37,4.43,30.81-85.69c105.35-3.43,211.85-5.56,317.33,1.51l31.78,85.65Z"/>
      <path class="cls-7" d="M1226.62,1230.79c1.45-4.48,27.94-7.98,34.26-9.24,44.29-8.83,93.67-15.59,138.64-20.85,54.13-6.33,109.08-10.88,163.48-11.93l-33.72,86.6c-102.38,8.86-206.48,21.03-302.66,58.38v-102.96Z"/>
      <path class="cls-7" d="M2253.15,1333.74c-94.88-36.69-197.48-49.31-298.42-58.28l-29.31-85.24c50.63-.99,104.19,4.54,154.82,10.47,45.18,5.29,94.12,11.98,138.64,20.85,11.16,2.22,25.53,3.11,34.26,9.24v102.96Z"/>
      <polygon class="cls-13" points="1745.68 686.99 1864.57 678.32 1852.96 800.08 1745.68 805.9 1745.68 686.99"/>
      <polygon class="cls-13" points="1745.68 855.21 1850.12 850.9 1838.49 988.63 1745.68 991.52 1745.68 855.21"/>
      <path class="cls-13" d="M1734.08,686.99v118.91c-32.87.86-65.75-1.04-98.19-6.2l-9.12-118.52,107.31,5.81Z"/>
      <path class="cls-4" d="M1745.68,562.28c40.78-.98,81.41,3.77,121.65,8.82l-8.55,95.6-113.11,5.78v-110.21Z"/>
      <polygon class="cls-13" points="1734.08 855.21 1734.08 991.52 1649.97 988.63 1638.35 850.9 1734.08 855.21"/>
      <path class="cls-13" d="M1734.08,562.28v110.21c-33.65.28-67.72.5-100.77-6.5-4.93-4.26-9.03-84.83-9.43-97.92l110.21-5.79Z"/>
      <path class="cls-6" d="M1504.99,573.86l11.4,74.18c28.15,18.74,62.73,21.76,94.66,30.04l9.94,119.13c-32.9-2.25-64.78-12-95.45-23.48l1.18-8.4c10.86,5.79,23.16,8.37,34.96,11.44,4.18,1.09,8.07,6.48,7.09-1.28l-45.94-16.41-.41-11.17,46.36,10.15c-14.35-11.55-52.23-6.75-49.25-30.47,1.59-2.21,43.84,20.62,52.15,13.06-15.39-11.14-53.68-7.26-55.07-30.45,2.97-3.06,45.69,19.45,55.07,13.05-16.16-12.42-58.6-8.62-57.97-33.35,16.31,4.21,34.78,14.66,51.41,16.75,6.19.78,7.41,2.52,6.58-5.14-10.18.45-72.75-16.21-60.88-31.92,16.35,6.56,36.87,17.47,54.3,19.66,6.17.78,7.42,2.52,6.57-5.13-12.46-1.98-54.71-12.82-60.62-22.06l-14.72-86.79,8.64-1.42Z"/>
      <path class="cls-10" d="M1635.5,985.73c-3.41,3.35-79.17-11.76-82.77-17.3-2.28-3.5-1.2-7.89-1.32-11.71,11.12,1.88,21.91,8.14,33.37,8.71,5.79.29,4.51-.54,4.32-5.8-13.52-2.89-42.17-1.77-40.59-20.31,1.91-1.99,30.28,7.84,36.45,8.52,5.75.64,4.23-.63,4.14-5.62-15.12-3.33-46-2.54-43.48-23.22,11.65,3.94,27.33,10.11,39.34,11.44,5.74.63,4.24-.62,4.13-5.61-16.57-5.06-43.07-2.19-46.4-23.2,2.01-1.59,35.95,9.77,42.65,11.02,5.62,1.05,3.65-.4,3.75-5.22l-44.71-11.32-1.68-11.9c1.49-1.62,36.31,9.86,42.64,11.04,5.68,1.06,5.31-3.65,3.74-5.21-4.09-4.07-62.23-8.06-49.26-26.14,15.35,5.14,32.94,12.95,49.25,10.16l-50.44-15.67-1.72-11.88c3.04-3.32,43.44,17.05,52.17,10.15-14.74-12.05-57.53-6.18-55.06-30.45l91.52,22.99,9.97,136.52Z"/>
      <path class="cls-3" d="M1951.56,788.52l-3.29,22.77c-62.07,24.35-126.35,28.22-192.4,29.43-56.34,1.03-113.69-.61-169.7-13.04-9.76-2.17-47.23-11.29-53.17-15.74-3.43-2.57-9.12-25.84-.57-23.34,12.07,3.53,24.91,10.26,38.66,13.56,95.34,22.89,215.14,23.74,311.42,5.73,23.66-4.43,46.7-10.61,69.05-19.37Z"/>
      <path class="cls-24" d="M1980.55,573.9l-13.13,89.79c-21.51,13.27-46.99,16.8-70.92,23.34-.47,5.52,9.17,2.6,12.28,2.12,17.61-2.74,39.23-14.74,52.96-16.69,5.93-.84,5.7,3.87,4.25,7.2-4.13,9.49-60.1,22.84-72.39,24.77,0,5.71,11.84,2.63,15.18,2.12,19.71-3,37.96-12.46,57.29-16.62-1.92,15.54-21.98,19.57-35.5,23.92-6.08,1.96-32.86,6.75-34.09,7.99-1.59,1.6-1.93,6.27,3.74,5.21,21.55-4.03,42.23-13.02,62.94-19.74-.65,4.13-1.5,12.23-5.01,14.51-13.13,8.55-45.71,12.97-61.68,17.4.1,4.82-1.87,6.28,3.75,5.22,19.94-3.73,38.75-12.64,58.56-16.89,3.92,15.01-22.97,20.43-34.01,23.99s-22.81,5.02-34.08,7.99c-.04,5.67,11.93,2.67,15.17,2.11,16.97-2.94,35.4-10.44,51.47-16.64,11.98,15.53-57.98,30.77-66.66,31.94l1.38,5.7,60.98-20.23.92,11.1c-27.38,12.33-56.87,19.02-86.47,23.67l8.97-121.52c29.31-6.38,61.41-11.19,86.94-27.59,6.58-21.66,5.16-45.77,10.96-67.49,1.34-5.01-2.04-8.05,6.19-6.69Z"/>
      <path class="cls-8" d="M1531.11,1327.93v29.03c-103.14,6.52-207.72,21.24-304.48,57.98l.38-28.59c96.67-37.08,201.12-51.17,304.1-58.41Z"/>
      <path class="cls-8" d="M1531.11,1362.73v29.03c-78.52,5.08-156.85,16.36-233.22,35.02-13.47,3.29-40.12,14.92-50.69,15.8-9.2.76-27.18-9.62-20.21-21.48,97.26-35.74,201.05-50.26,304.12-58.36Z"/>
      <path class="cls-14" d="M1945.75,826.22c.05,3.93.73,7.96-1.41,11.61-6.21,10.58-53.93,16.62-65.25,24.65,20.46,4.62,41.6-10.58,59.55-15.87,6.42-1.89,5.33,8.42,3.73,11.03-3.79,6.18-55.9,18.69-66.18,20.82l1.38,5.7,60.98-20.23c2.74.65,1.73,7.92.98,9.68-4.36,10.32-53.53,21.18-66.27,22.21-.08,4.99-1.61,6.25,4.14,5.62,17.91-1.98,40.94-11.18,58.18-17.27l.97,11.15c-20.89,8.81-43.22,16.67-66.19,17.9-.98,7.58.81,5.97,6.94,5.5,17.9-1.37,40.45-9.75,56.84-17.12.01,3.89.74,8.04-1.37,11.65-5.07,8.67-52.23,14.69-62.38,21.71,20.07,2.75,40.32-7.76,59.39-13.11,2.67-.04,1.87,7.7,1.13,9.83-3.22,9.36-56.34,15.36-66.32,23.58,20.77.26,44.61-7.37,63.75-15.96l-.27,14.21-63.48,19.16c20.07,2.75,40.32-7.76,59.39-13.11l1.17,11.33-75.06,14.79,11.73-139.06,83.94-20.42Z"/>
      <path class="cls-10" d="M1922.56,985.73l-4.91,23.24c-116.87,25.69-243.53,28.98-359.17-2.78-.93-5.26-5.33-20.95,3.05-20.51,10.1.53,22.31,5.96,32.77,7.88,107.77,19.75,221.62,16.24,328.25-7.83Z"/>
      <path class="cls-3" d="M1531.08,1293.15l.14,24.16c-1.23,5.35-73.65,9.46-85.29,11-74.31,9.84-149.75,23.71-219.28,51.83l.46-25.63c96.02-39.91,201.51-48.84,303.97-61.37Z"/>
      <path class="cls-9" d="M1745.68,1040.82l87.01-2.92c.51,28.11-4.31,56.1-5.8,84.14l-81.21,5.78v-87.01Z"/>
      <path class="cls-8" d="M1531.08,1397.55l.03,29.02c-37.07,3.35-74.34,6.64-111.18,12.07-29.09,4.29-93.76,22.61-116.53,22.29-10.04-.14-35.05-10.21-44.88-15.54,88.21-27.47,180.6-39.19,272.55-47.84Z"/>
      <path class="cls-9" d="M1734.08,1040.82v87.01l-72.24-6.05c-2.89-27.81-6.46-55.87-6.07-83.87l78.31,2.91Z"/>
      <path class="cls-8" d="M1812.38,185.22c-1.56,1.14-35.04-2.46-38.55-3.47-6.23-1.8-12.12-11.89-23.98-13.71-46.74-7.15-71.09,42.68-33.22,70.86l-24.62,18.34c-23.62-17.21-33.42-46.86-23.09-74.81,20.23-54.72,125.84-54.55,143.46,2.79Z"/>
      <path class="cls-3" d="M1641.31,1035.01l5.79,84.14-75.2-14.75-.17-8.46,17.36,1.46-19.04-7.06-1.23-11.8,20.26,1.45c-7.87-7.5-25.71-3.14-23.17-18.85,3.45-3.48,25.88,10.4,23.2-2.9-13.98-.18-27.56.07-26.08-17.41.89-1.19,28.58,13.97,26.08.02-15.79-1.17-28.56-.9-27.6-20.25l79.8,14.42Z"/>
      <path class="cls-24" d="M1712.34,315.76c-105.82,11.89-191.4,119.7-187,224.73,1.05,25.13,21.3,62.67,0,79.79-3.11-38.21-14.73-68.55-11.26-108.38,10.7-122.79,125.5-222.56,248.81-207.54l.2,11.4c-16.25,1.3-34.83-1.79-50.75,0Z"/>
      <path class="cls-10" d="M2430.05,1600.57l.39-31.5c62.93-21.08,124.59-50.31,170.65-99.01,1.86,29.88-24.59,54.09-46.62,70.8-34.76,26.37-82.34,49.75-124.43,59.71Z"/>
      <path class="cls-10" d="M2430.06,2276.31l2.79-33.43c61.08-23.68,124.25-49.45,168.25-99.97,3.69,24.6-18.93,48.74-36.3,63.72-36.9,31.79-89.17,53.64-134.74,69.68Z"/>
      <path class="cls-3" d="M1531.08,1432.36l-.3,28.69c-2.48,2.91-52.26,5.33-61.67,6.47-22.38,2.72-55.23,11.2-75.89,11.34-20.99.13-46.46-11.14-68.02-11.71-.7-7.69-.13-4.7,4.35-5.74,66.04-15.39,134.38-20.46,201.53-29.04Z"/>
      <path class="cls-6" d="M2430.05,1849.98c.97-7.85-2.86-22.06,2.81-27.62,3.25-3.19,38.92-15.14,47.52-19.18,30.62-14.41,61.33-30.07,87.48-51.72l33.24-37.76c-.28,6.06.89,12.7-.16,18.65-8.45,48.31-125.18,107.81-170.89,117.63Z"/>
      <path class="cls-6" d="M2430.05,1780.37l.38-28.59c51.69-18.32,102.5-41.5,144.63-77.21l26.03-30.47c4.49,37.49-36.88,68.76-65.14,87.07-32.6,21.13-69.46,36.09-105.91,49.21Z"/>
      <path class="cls-6" d="M2430.05,2453.22c.97-7.8-2.85-22.14,2.8-27.63,4.22-4.11,41.79-16.61,51.35-21.15,30.13-14.34,59.16-29.98,85.07-51.23l31.83-36.27c-.28,6.06.89,12.7-.16,18.65-8.61,49.21-125.65,106.21-170.89,117.63Z"/>
      <path class="cls-6" d="M2430.05,2311.11c.97-7.8-2.85-22.14,2.8-27.63,4.4-4.28,38.21-14.81,47.52-19.18,30.64-14.37,61.32-30.09,87.48-51.72l33.24-37.76c-.28,6.06.89,12.7-.16,18.65-8.54,48.8-125.28,107.03-170.89,117.63Z"/>
      <path class="cls-6" d="M2430.05,2345.93c1-7.52-2.93-22.75,2.87-27.57,5.56-4.62,48.21-18.53,59.97-24.13,42.23-20.1,78.83-44.94,108.2-81.72,2.75,42.82-48.63,77.15-82.12,96.2-10.63,6.05-83.9,42.13-88.93,37.21Z"/>
      <path class="cls-6" d="M2430.06,1638.26l.39-28.58c51.53-17.17,101.36-40.91,143.21-75.74l27.45-31.96c4.74,31.94-26.02,59.11-49.52,76.59-35.35,26.3-80.07,45.21-121.52,59.69Z"/>
      <path class="cls-6" d="M2430.05,1673.06c.96-8.47-2.89-21.04,2.85-27.58,3.73-4.24,41.87-16.74,51.29-21.21,30.15-14.28,59.14-30.03,85.07-51.23l31.83-36.27c4.48,44.04-47.19,77.86-81.1,97.21-9.62,5.49-86.06,43.17-89.94,39.08Z"/>
      <path class="cls-10" d="M2430.06,2418.42c.89-9.03-3.25-22.7,4.14-29.18,5.51-4.83,51.56-20.44,63.57-26.32,27.1-13.27,52.5-29.87,75.88-48.82l27.45-31.96c3.56,45.83-51.32,80.46-86.9,100.11-8.51,4.7-81.1,39.61-84.14,36.18Z"/>
      <path class="cls-6" d="M2430.05,2380.73l.47-25.63c62.66-24.47,129.99-51.38,170.57-107.78,3.25,31.36-23.67,56.29-46.62,73.7-34.76,26.37-82.34,49.75-124.43,59.71Z"/>
      <path class="cls-10" d="M2430.05,1742.68c.99-7.44-2.88-22.87,2.84-27.61,4.2-3.48,44.16-16.45,54.21-21.19,44.2-20.86,84.43-44.97,114-84.62,2.87,41.25-44.22,74.47-76.32,93.3-11.16,6.55-89.37,45.34-94.73,40.11Z"/>
      <path class="cls-10" d="M2430.06,1815.17c.95-8.47-2.9-21.04,2.85-27.57,3.31-3.76,49.2-20.23,59.07-25.03,27.29-13.27,53.6-28.37,77.29-47.41l31.83-36.27c4.52,43.23-47.66,78.04-81.1,97.21-8.94,5.12-86.64,42.8-89.94,39.08Z"/>
      <path class="cls-9" d="M1930.89,585.87c.29,19.01-2.41,25.75,10.39,40.41,4.61,5.28,15.18,4.92,8.96,14.44s-64.16,18.36-76.94,23.07l7.09-87.14c4.37-6.72,41.7,7.86,50.5,9.22Z"/>
      <path class="cls-10" d="M2430.05,1707.87c1.03-7.52-2.95-22.71,2.87-27.56,6.37-5.3,47.83-18.35,59.97-24.13,41.86-19.92,78.95-45.46,108.2-81.72,2.12,44.11-53.13,79.96-87.92,99.1-9.55,5.26-79.15,38.43-83.13,34.3Z"/>
      <path class="cls-10" d="M2430.05,2488.03c1.03-7.52-2.95-22.71,2.87-27.56,6.37-5.3,47.83-18.35,59.97-24.13,41.86-19.92,78.95-45.46,108.2-81.72,2.12,44.11-53.13,79.96-87.92,99.1-9.55,5.26-79.15,38.43-83.13,34.3Z"/>
      <path class="cls-6" d="M2430.05,2522.85l.48-25.63c62.77-24.46,129.63-51.72,170.57-107.78,2.87,41.25-44.22,74.47-76.32,93.3-11.17,6.56-89.36,45.33-94.73,40.11Z"/>
      <path class="cls-3" d="M1681.9,336.08l30.51-6.11c33.29,33.98,76.48,1.62,56.49-40.3l30.04.38c10.5,3.54,7.96,33.6,5.39,42.29-14.2,47.87-105.31,51.69-122.42,3.73Z"/>
      <path class="cls-6" d="M2430.05,1884.78c1.01-7.44-2.9-22.83,2.84-27.59,4.15-3.44,44.21-16.49,54.21-21.19,43.25-20.34,85.07-46.1,114-84.62-1.23,45.91-52.95,80.21-89.8,100.12-8.49,4.59-78.16,36.53-81.24,33.28Z"/>
      <path class="cls-10" d="M2430.05,2557.65l.38-25.71c51.83-18.24,102.38-41.59,144.64-77.21l26.03-30.47c.52,40.39-44.24,74.47-76.32,93.29-11.17,6.55-89.36,45.33-94.73,40.11Z"/>
      <path class="cls-24" d="M1858.77,1046.65l1.39,5.72,56.59-14.43-4.93,14.56-58.86,11.55c1.46,5.81,4.23,4.75,8.67,4.59,8.71-.32,49.8-12.65,52.21-10.4.33,4.02-1.54,9.49-5.08,11.58-11.43,6.74-41.78,9.65-55.81,11.62-.05,5-1.66,6.24,4.09,5.57,18.24-2.12,35.79-8.77,53.91-11.37,13.79,14.31-56.03,26.78-63.76,26.12.8,5.56,14.63,2.94,18.48,2.52,12.97-1.43,29.04-5.72,40.98-11.22,2.67.11,1.7,4.99.96,6.76-5.24,12.53-53.1,14.75-66.22,19.3l6.1-83.78,67.87-14.77c2.69.74,1.72,7.76,1.04,9.75-2.59,7.66-47.9,14.11-57.64,16.34Z"/>
      <path class="cls-24" d="M1954.44,620.29c-22.52-14.04-4.73-42.08-2.92-62.4,8.39-94.21-33.06-170.02-113-217.52-10.95-6.51-26.62-5.46-23.23-21.69,86.3,27.04,148.17,117.15,150.88,207.22,1.01,33.57-12.38,61.73-11.74,94.39Z"/>
      <path class="cls-6" d="M1789.17,249.02c-20.27,8.28-40.75,17.98-59.91,28.56-6.41,3.54-16.64,14.49-17.73,14.87-8.64,3.04-25.56,2.8-35.44,5.88,9.45-23.69,35.9-50.29,60.85-56.68,5.15-1.32,38.61.7,44.87,1.73,3.42.56,6.86,1.75,7.36,5.65Z"/>
      <path class="cls-14" d="M1531.11,1470.04l-.03,26.12-113.06-11.63c-.52-4.33,7.76-4.28,10.99-4.9,12.15-2.35,98.48-13.21,102.1-9.58Z"/>
      <path class="cls-15" d="M2000.49,539.47c16.03,31.32,37.38,70.2-11.21,83.7-2.14-16.05,15.51-16.42,17.31-30.71,2.21-17.49-17.42-34.81-14.41-53.38l8.31.39Z"/>
      <path class="cls-24" d="M1487.59,539.1c1.98,19.28-23.9,44.3-11.79,62.57,5.08,7.67,16.49,4.66,11.78,21.52-15.17-5.22-29.91-19.03-29.18-36.19.15-3.62,17.06-42.31,19.17-44.9,3.28-4.04,5.32-3.28,10.02-3Z"/>
      <path class="cls-24" d="M1612.28,602.9l-2.76,13.16-84.2,24.51c-5.2-4.56,18.57-16.63,21.2-17.92,7.65-3.77,63.27-22.42,65.77-19.75Z"/>
      <path class="cls-24" d="M1615.04,637.77l3.07,26.03-55.11-8.74c-1.18-7.45.71-4.5,4.08-6.05,5.59-2.57,45.9-12.68,47.96-11.24Z"/>
      <path class="cls-15" d="M1612.28,585.5l-1.68,11.89-64.97,19.99c-12.95-17.32,55.89-32.02,66.65-31.89Z"/>
      <path class="cls-15" d="M1615.18,620.3l-1.67,11.9c-25.81,1.64-52.05,21.13-76.59,14.15.67-4.36,9.91-6.44,13.75-7.94,8.08-3.16,61.85-21.04,64.51-18.11Z"/>
      <polygon class="cls-15" points="1609.37 570.99 1607.7 579.95 1548.51 597.07 1550.24 585.19 1609.37 570.99"/>
      <path class="cls-20" d="M2813.51,439.76l147.18,35.54-97.86,126.84,13.76,166.05-135.3-66.04-140.17,66.03,17-166.09-101.09-126.77,146.6-34.67,73.82-145.16,76.06,144.29ZM2802.01,451.28l-64.55-121.01-63.87,123.21-127.54,30.51,86.34,112.25-10.95,145.84c4.42,4.95,104.4-57,120.26-55.3l117.49,55.3-13.37-142.18c3.07-16.02,67.69-83.49,81.29-104.57,2.3-3.56,5.42-6.57,4.6-11.34l-129.7-32.71Z"/>
      <path class="cls-20" d="M962.73,475.31l-101.09,126.77,17,166.09-140.17-66.03-135.3,66.04,13.76-166.05-97.86-126.84,147.18-35.54,76.06-144.29,73.77,145.21,146.65,34.62ZM933.72,483.99l-127.54-30.51-63.87-123.21c-5.67-4.29-57.03,114.82-69.66,123.15-13.08,8.63-91.77,24.5-112.85,29.25-4.88,1.1-9.66,1.63-14.64,1.34l89.32,118.07-13.9,140,117.49-55.3c15.85-1.7,115.85,60.25,120.26,55.3l-10.95-145.83,86.35-112.26Z"/>
      <path class="cls-5" d="M1877.2,3904.38c39.48-41.98,167.42-51.64,188.95,13.43,30.2,91.29-120.81,117.72-176.45,80.76-31.54-20.95-38.94-66.08-12.5-94.19Z"/>
      <path class="cls-5" d="M1379.61,3701.08c60.38-8.13,175.4,18.23,142.94,102.35-23.42,60.68-177.1,45.89-200.73-5.45-21.56-46.85,8.98-90.33,57.79-96.9Z"/>
      <polygon class="cls-23" points="2493.57 3816.06 2354.66 3856.93 2447.47 3653.94 2493.57 3816.06"/>
      <path class="cls-2" d="M1043.92,2760.64c-42.17-12.24-89.21-33.36-124.43-59.69-3.26-2.43-27.59-20.57-23.43-24.39,12.79,1.49,22.73,15.17,33.87,22.65,35.93,24.13,72.24,33.4,106.89,52.61,4.03,2.23,8.36,2.47,7.1,8.82Z"/>
      <path class="cls-2" d="M1043.92,2618.53c-9.73,8.56-123.16-56.22-137.64-69.68-2.33-2.17-13.52-11.46-10.22-14.4,5.9-1.29,7.74,1.33,11.71,4.21,23.62,17.16,40.41,31.84,67.5,45.6,19.1,9.7,43.57,16.27,61.59,25.41,4.17,2.12,8.24,2.69,7.06,8.86Z"/>
      <path class="cls-25" d="M1043.92,2647.59c.24,5.27,1.43,6.06-4.33,5.8-11.92-.53-47.83-17.51-60.5-23.66-29.52-14.34-60.02-32.52-83-56.14,5.15-6.68,4.24-3.07,8.93-.31,11.58,6.82,22.59,18.45,34.75,26.17,31.89,20.23,68.41,36.04,104.14,48.14Z"/>
      <path class="cls-25" d="M1043.93,2824.49l-4.33,8.61c-21.55-5.55-142.33-65.62-143.5-82.59-.26-3.8,3.43-3.59,7.13-1.42,15.09,8.85,30.33,24.3,47.02,34.21,28.12,16.69,62.5,31.26,93.68,41.19Z"/>
      <path class="cls-25" d="M1043.92,2725.84c-43.23-13.96-91.23-34.66-127.34-62.57-3.59-2.77-21.01-16.9-20.52-20.02,5.29-6.57,4.07-3.65,8.68-.04,19.65,15.39,35.69,28.36,57.94,40.66s54.32,21.04,74.6,32.7c4.02,2.31,7.75,3.63,6.64,9.28Z"/>
      <path class="cls-25" d="M1043.93,2682.38c.27,5.59,1.33,5.85-4.42,5.89-15.5.11-74.93-29.99-91.05-39.51-8.13-4.8-51.95-34.2-52.37-40.37-.17-2.52,2.75-4.32,7.17-1.44,15.6,10.16,29.87,24.11,46.99,34.23,28.21,16.66,62.33,31.68,93.68,41.2Z"/>
      <path class="cls-2" d="M1043.92,2789.71c.29,5.16,1.37,6.15-4.38,5.85-9.98-.52-52.81-19.93-64.27-25.68-10.91-5.48-78.87-46.24-79.17-54.17-.53-14.04,21.37,9.88,23.38,11.36,37.54,27.64,80.4,47.77,124.44,62.64Z"/>
      <path class="cls-25" d="M1043.91,2867.95c-46.99-15.02-92.23-37.4-131.85-66.76-2.01-5.33-17.54-10.98-16-15.84,2.19-6.91,5.59-2.45,8.67-.04,19.57,15.34,35.71,28.5,57.94,40.66,23.08,12.63,54.45,20.81,74.58,32.71,3.96,2.34,7.79,3.5,6.66,9.26Z"/>
      <path class="cls-2" d="M1043.92,1980.48c-42.1-12.56-89.14-33.32-124.43-59.69-3.26-2.43-27.59-20.57-23.43-24.39,12.79,1.49,22.73,15.17,33.87,22.65,35.93,24.13,72.25,33.4,106.89,52.61,4.03,2.23,8.36,2.47,7.1,8.82Z"/>
      <path class="cls-2" d="M1043.92,2122.59c-46.28-14.45-104.43-39.55-140.53-72.58-3.53-3.23-8.31-5.82-7.33-11.49,5.9-1.29,7.74,1.32,11.71,4.21,17.05,12.41,29.98,24.2,49.11,34.99,25.49,14.37,56.16,22.86,79.94,36.06,4.03,2.24,8.36,2.46,7.1,8.82Z"/>
      <path class="cls-25" d="M1043.92,2186.45c.24,5.27,1.43,6.06-4.33,5.8-11.26-.5-42.78-15.19-54.7-20.75-31.78-14.85-64.22-33.98-88.8-59.05,5.15-6.68,4.24-3.07,8.93-.31,18.15,10.69,34.38,26.64,54.74,38.08,26.23,14.73,55.55,26.91,84.15,36.23Z"/>
      <path class="cls-25" d="M1043.92,2044.33l-4.32,8.6c-50.62-21.98-104.2-42.23-143.5-82.59,5.16-6.71,4.25-3.04,8.93-.31,11.12,6.49,22.46,18.29,34.76,26.16,31.47,20.15,68.57,36.78,104.14,48.13Z"/>
      <path class="cls-2" d="M1043.92,2151.65c1.92,9.14-5.95,5.96-11.62,4.34-19.34-5.53-135.62-63.07-136.2-78.34-.07-1.87,4.19-5.29,8.69-2.96s17.99,16.37,25.14,21.27c35.07,24.04,74.02,41.42,113.99,55.69Z"/>
      <path class="cls-25" d="M1043.92,1945.68c-47.25-14.21-92.57-37.03-131.85-66.76-2.01-5.33-17.54-10.98-16-15.84,2.19-6.91,5.59-2.45,8.67-.04,19.61,15.37,35.7,28.42,57.94,40.66,23.2,12.77,54.66,20.93,74.58,32.71,4,2.36,7.79,3.52,6.66,9.26Z"/>
      <path class="cls-25" d="M1043.92,2009.54c.3,5.16,1.37,6.15-4.38,5.85-11.46-.6-53.16-20.61-65.82-27.03-11.22-5.69-77.17-44.33-77.62-52.82-.18-3.34,3.87-3.64,7.69-2,7.94,3.4,27.5,22.52,37.7,29.05,31.56,20.21,67.59,33.63,102.43,46.95Z"/>
      <path class="cls-25" d="M1043.91,2079.17c-.42,4.06,2.77,9.73-3.98,8.32-9.6-1.99-31.2-12.12-41.45-16.59-15.86-6.93-101.42-51.6-102.38-65.76-.17-2.5,2.74-4.33,7.17-1.44,13.08,8.55,24.9,21.05,39.4,30.22,30.18,19.08,67.08,35.55,101.25,45.25Z"/>
      <path class="cls-2" d="M1043.92,1820.97c-46.69-14.55-104.13-39.27-140.53-72.58-3.53-3.23-8.31-5.82-7.33-11.49,4.46-4.04,28.1,18.77,33.87,22.65,35.93,24.13,72.25,33.4,106.89,52.61,4.03,2.23,8.36,2.47,7.1,8.82Z"/>
      <path class="cls-2" d="M1043.92,1678.86c-42.17-12.24-89.21-33.36-124.43-59.69-3.26-2.43-27.59-20.57-23.43-24.39,5.9-1.29,7.74,1.33,11.71,4.21,14.24,10.32,25.36,21.52,41.43,31.07,28.49,16.95,59.46,25.76,87.67,39.93,4.18,2.1,8.23,2.71,7.05,8.87Z"/>
      <path class="cls-25" d="M1043.93,1742.7l-4.33,8.61c-21.55-5.55-142.33-65.62-143.5-82.59-.17-2.51,2.74-4.32,7.17-1.44,14.96,9.75,28.81,23.29,45.21,33.11,28.92,17.33,63.07,32.6,95.46,42.31Z"/>
      <path class="cls-25" d="M1043.92,1644.05c-4.98,4.39-105.88-43.93-116.89-55.62l-30.95-26.97c5.27-6.58,4.07-3.65,8.67-.04,18.97,14.87,34.61,27.67,56.05,39.65,24.35,13.59,53.43,21.64,76.02,34.18,4.03,2.24,8.36,2.46,7.1,8.82Z"/>
      <path class="cls-2" d="M1043.92,1850.03c1.92,9.14-5.95,5.96-11.62,4.34-19.34-5.53-135.62-63.07-136.2-78.34-.53-14.04,21.38,9.88,23.38,11.36,37.54,27.64,80.4,47.77,124.44,62.64Z"/>
      <path class="cls-2" d="M1043.92,1707.91c.24,5.26,1.43,6.06-4.33,5.8-12.41-.56-52.6-20.24-65.87-26.98-11.35-5.76-77.15-43.91-77.62-52.82-.18-3.34,3.87-3.64,7.69-2,7.47,3.19,24.51,20.39,34.22,26.74,32.03,20.95,69.81,36.82,105.92,49.26Z"/>
      <path class="cls-25" d="M1043.94,1600.59c.27,5.59,1.33,5.85-4.42,5.89-15.5.11-74.93-29.99-91.05-39.51-8.13-4.8-51.95-34.2-52.37-40.37-.17-2.5,2.74-4.33,7.17-1.44,8.26,5.4,16.78,15.19,25.44,20.97,34.66,23.11,75.33,43.02,115.23,54.45Z"/>
      <path class="cls-25" d="M1043.91,1786.17c-23.44-1.45-146.68-65.82-147.82-82.64-.16-2.38,2.75-4.43,7.2-1.47,7.08,4.72,15.47,14.09,23.73,19.78,11.44,7.88,23.48,15.65,35.65,22.35,23.2,12.77,54.66,20.94,74.58,32.71,3.96,2.34,7.8,3.5,6.66,9.26Z"/>
      <path class="cls-2" d="M1043.92,2282.1c-45.08-14.27-107.82-40.53-141.8-74.22-3.04-3.02-7.38-4.16-6.06-9.86,5.9-1.29,7.74,1.32,11.71,4.21,33.39,24.29,55.58,39.44,93.62,57.18,10.85,5.06,25.5,8.35,35.43,13.87,4.03,2.24,8.36,2.46,7.1,8.82Z"/>
      <path class="cls-25" d="M1043.92,2345.97c.24,5.27,1.43,6.06-4.33,5.8-21.82-.97-93.7-40.33-113.75-54.51-4.84-3.43-29.52-21.92-29.75-25.29-.21-3.13,2.94-3.88,7.13-1.42,7.2,4.23,13.96,12.17,20.85,16.88,36.73,25.14,77.47,44.86,119.85,58.53Z"/>
      <path class="cls-2" d="M1043.92,2453.28c2.84,11.78-18.71,1.14-23.95-.73-33.75-12.01-92.66-42.79-118.17-67.43-3.13-3.02-6.77-5.1-5.74-10.18,4.38-4.03,28.19,18.77,33.87,22.65,35.12,23.98,73.98,41.47,113.99,55.69Z"/>
      <path class="cls-25" d="M1043.92,2311.17c1.92,9.14-5.95,5.96-11.62,4.34-19.34-5.53-135.62-63.07-136.2-78.34-.53-14.04,21.38,9.88,23.38,11.36,37.56,27.66,80.52,47.48,124.44,62.64Z"/>
      <path class="cls-2" d="M1043.93,2522.87c.27,5.59,1.33,5.85-4.42,5.89-18.47.14-83.34-34.79-101.49-46.46-6.62-4.26-41.59-28.56-41.93-33.41-.17-2.51,2.74-4.32,7.17-1.44,14.96,9.75,28.81,23.29,45.21,33.11,28.92,17.33,63.08,32.6,95.46,42.32Z"/>
      <path class="cls-25" d="M1043.92,2424.22c-42.97-13.99-91.54-34.61-127.34-62.57-6.28-4.91-18.32-13.75-20.52-21.5,6.12-1.56,7.81,1.78,11.66,4.26,16.16,10.41,30.28,24.09,47.28,33.92,26.07,15.07,57.31,23.47,81.82,37.07,4.03,2.24,8.36,2.46,7.1,8.82Z"/>
      <path class="cls-25" d="M1043.93,2380.75l-4.28,8.34c-21.99-5.1-142.37-65.07-143.55-82.32-.17-2.5,2.74-4.33,7.17-1.44,8.26,5.4,16.78,15.19,25.44,20.97,34.92,23.29,74.87,42.54,115.22,54.45Z"/>
      <path class="cls-25" d="M1043.92,2488.08c.28,5.16,1.37,6.16-4.39,5.86-10.78-.56-57.7-22.26-70.07-28.58-26.44-13.51-52.17-30.43-73.37-51.27,5.15-6.68,4.24-3.07,8.93-.31,11.58,6.82,22.59,18.45,34.75,26.17,31.89,20.23,68.41,36.04,104.14,48.14Z"/>
      <path class="cls-4" d="M2802.01,451.28l129.7,32.71c.82,4.77-2.3,7.78-4.6,11.34-13.6,21.08-78.22,88.55-81.29,104.57l13.37,142.18-117.49-55.3c-15.86-1.69-115.84,60.25-120.26,55.3l10.95-145.84-86.34-112.25,127.54-30.51,63.87-123.21,64.55,121.01Z"/>
      <path class="cls-4" d="M933.72,483.99l-86.35,112.26,10.95,145.83c-4.42,4.95-104.41-57-120.26-55.3l-117.49,55.3,13.9-140-89.32-118.07c4.99.29,9.76-.24,14.64-1.34,21.08-4.75,99.77-20.61,112.85-29.25,12.63-8.34,63.99-127.44,69.66-123.15l63.87,123.21,127.54,30.51Z"/>
    </g>
  </g>
</svg>