<svg width="208" height="186" viewBox="0 0 208 186" fill="none" xmlns="http://www.w3.org/2000/svg">
<path d="M0.0065966 111.241C1.82027 109.832 0.435284 107.943 0.666116 106.211C6.19948 65.2558 58.7698 41.3759 99.5808 41.9394C115.64 42.1613 125.77 42.0653 140.636 45.9084C167.017 52.7313 195.831 70.4119 203.303 94.4117L204.464 94.8674L203.91 96.0065C208.692 105.281 208.25 118.663 205.539 127.591C195.297 161.339 151.531 183.534 115.053 184.428C113.899 184.458 113.18 184.182 112.422 185.357H95.3269C94.5684 184.182 93.843 184.464 92.6954 184.428C54.6939 183.181 1.54328 156.585 1.08821 117.41C1.07502 116.415 0.870565 115.516 0 114.832V111.247L0.0065966 111.241ZM41.431 80.1665V62.8336L28.7814 70.5917L23.037 76.893L23.38 150.068C28.1417 155.733 34.816 160.068 41.431 163.839V151.884C49.6288 158 60.7417 159.367 71.017 157.862V175.794L89.4242 178.78V169.217C101.263 172.497 113.708 163.03 115.066 152.484C115.66 151.884 118.351 154.39 118.351 154.57V178.18L117.038 178.774L137.417 175.788L136.758 159.061H152.21C156.069 159.061 162.934 155.458 166.344 153.683V163.845C168.191 163.282 170.209 161.813 171.811 160.746C174.364 159.055 184.27 152.01 184.738 149.786L185.14 76.857C179.857 71.1134 173.355 66.5508 166.66 62.2521C164.649 62.0962 166.344 62.8996 166.344 63.1394V75.9877C160.547 71.6889 153.622 70.6517 146.36 70.0701L136.758 71.2093V51.4842C136.758 51.3043 138.974 52.0178 138.73 50.8907C131.376 49.7275 124.201 47.857 116.728 47.2754C116.194 47.2334 114.334 47.0955 115.396 47.8989H118.351V58.6548C109.817 55.777 100.867 56.3525 93.6979 61.6405L89.4242 66.4189V47.8929H94.6806L90.4201 47.3054L71.6568 50.5729L71.017 64.6323C61.388 64.4044 51.4689 67.5101 45.3881 74.5068L41.431 80.1725V80.1665Z" fill="white"/>
<path d="M122.947 11.4346L111.188 20.158L115.053 32.3467L110.713 30.3442C108.86 28.6955 105.503 25.8656 102.878 25.7098C100.326 28.024 97.1006 29.4629 94.2449 31.3635C93.7107 31.7172 91.5541 34.7809 92.4049 31.1596C92.6423 30.1524 93.7833 28.1679 94.2054 26.9808C94.7264 25.5239 95.7091 23.6593 95.9135 22.9938C96.0454 22.5621 95.6431 21.2611 96.3686 20.3918L84.1543 11.4405L99.8179 11.3566C100.115 10.0316 102.311 0.312979 102.891 0.0731607C103.063 0.00121519 104.685 -0.136686 104.382 0.366932C105.167 4.43785 106.763 7.38164 107.818 11.4346H122.941H122.947Z" fill="white"/>
<path d="M162.161 82.7687C167.306 87.4692 167.556 97.2178 164.879 103.039C163.685 105.629 161.469 106.996 160.427 109.443C178.306 114.731 173.472 140.253 160.367 147.945C153.403 152.034 145.067 152.034 137.093 151.279C132.635 150.853 120.922 149.48 120.539 144.336C125.749 124.815 127.543 105 123.006 85.1669C122.999 81.8694 125.868 81.144 128.73 80.3406C138.155 77.6966 154.55 75.82 162.168 82.7747L162.161 82.7687ZM140.701 81.3658C136.658 81.2579 129.166 81.6776 127.385 85.7005C126.376 87.9788 127.464 102.35 129.192 102.872C130.537 103.279 131.263 102.47 131.48 101.379C132.219 97.6915 129.383 89.3338 130.649 86.8876C131.837 84.5914 137.792 84.0458 140.305 83.2064L140.694 81.3598L140.701 81.3658ZM157.789 98.0992C158.745 91.2943 159.53 83.1585 149.241 83.758C148.509 87.2054 151.233 86.36 153.179 87.6491C156.14 89.6216 156.094 95.1554 155.164 98.0932H157.789V98.0992ZM139.573 88.7102C136.961 90.6288 136.579 101.99 142.376 102.836C154.999 104.67 156.147 89.7115 148.12 88.0567C146.26 87.673 141.037 87.6371 139.573 88.7102ZM152.532 116.619C152.921 114.629 151.701 114.329 149.94 113.903C145.983 112.944 137.403 112.194 134.877 115.81C133.532 117.74 132.443 123.826 136.13 121.727C137.199 121.122 137.37 118.508 138.128 117.566C140.232 114.934 149.261 116.373 152.539 116.619H152.532ZM143.84 118.568C141.789 118.807 139.685 119.371 139.025 121.374C138.366 123.376 137.72 131.506 138.214 133.526C139.513 138.826 151.774 138.389 154.544 131.89C157.888 124.048 153.528 117.423 143.846 118.568H143.84ZM159.675 120.894L157.795 120.804C157.749 122.974 158.475 124.869 158.501 127.087C158.534 129.779 155.995 133.053 160.684 132.789C163.032 129.174 161.39 124.479 159.668 120.888L159.675 120.894ZM130.161 131.584C126.138 129.066 124.239 140.571 125.057 143.095C127.213 149.75 150.824 148.185 156.483 145.613C159.18 144.39 160.236 142.526 156.45 143.185C154.24 143.569 152.031 144.504 149.565 144.708C145.574 145.038 132.292 144.966 129.258 142.993C127.042 140.859 131.56 132.465 130.161 131.59V131.584Z" fill="white"/>
<path d="M70.1265 133.748C73.3713 130.858 70.6541 127.303 71.1356 124.251C72.5206 115.48 86.7134 117.345 90.3408 124.455C95.1157 133.82 81.0679 147.202 71.5445 149.672C38.4762 158.258 23.1094 118.124 48.7119 101.888C43.5677 84.4116 53.012 70.5621 73.9715 72.4027C82.9871 73.1941 95.8544 79.1596 89.5757 88.9682C85.9352 94.6579 78.2386 86.8098 73.9385 86.1863C67.2246 85.215 59.8578 88.5845 62.9707 95.5572C65.2131 100.575 77.0185 99.5262 74.697 106.487C72.6393 112.65 66.2485 108.813 62.2057 108.915C45.7639 109.329 46.74 136.326 63.4654 135.793C65.4703 135.727 68.6888 135.043 70.1331 133.754L70.1265 133.748ZM86.0803 83.6982C87.6895 81.6837 81.8132 78.2243 80.2369 77.4569C76.3853 75.5743 72.0457 74.5851 67.7259 75.3945L67.7522 77.1392C71.9072 77.7147 74.8355 78.2483 78.4562 80.2688C80.1644 81.2221 84.4776 85.7007 86.0803 83.6982ZM50.6311 88.2308C50.2288 90.9827 50.9213 94.3521 50.6311 97.194L51.2643 97.8115C56.2964 99.0885 53.9419 95.1435 53.8825 92.4396C53.8166 89.28 53.9881 86.2523 54.5685 83.1526C52.7086 81.4679 50.7762 87.1935 50.6245 88.2308H50.6311ZM42.6575 132.243C41.2066 131.41 40.5405 132.183 40.89 133.544C41.3847 135.451 44.214 138.994 45.6913 140.541C54.3244 149.54 66.2881 149.462 76.7481 143.059C78.9179 141.734 83.2905 139.54 81.8791 136.926C80.3491 134.905 76.0688 139.57 74.5189 140.433C63.5709 146.555 53.2296 145.385 45.0978 136.296C44.2206 135.319 42.8686 132.369 42.6509 132.249L42.6575 132.243Z" fill="white"/>
<path d="M105.7 64.7822C114.419 63.6371 124.213 69.8724 122.01 78.4159C121.179 81.6355 116.629 86.3119 113.43 82.5468C111.108 79.8188 114.327 74.7047 111.366 74.2251C108.404 73.7454 107.303 81.8093 107.191 83.4581C107.019 85.8862 107.382 93.3925 108.569 95.3351C110.944 99.2201 120.177 95.437 119.531 102.434C118.825 110.048 110.937 105.971 108.18 109.46C105.569 112.764 108.332 126.517 108.523 131.236C108.827 138.778 109.018 152.352 103.234 158.15C98.4259 162.97 86.6073 164.259 86.8514 156.423C86.9833 152.166 92.6881 142.873 93.8555 137.075C95.1877 130.433 96.2297 119.371 94.5414 112.872C93.13 107.44 89.7071 109.364 85.3147 108.711C78.2644 107.662 77.3411 100.257 83.3361 97.6373C87.6362 95.7548 93.5851 98.5546 94.6337 91.7678C95.9725 83.0804 91.5933 66.6408 105.714 64.7882L105.7 64.7822ZM100.503 93.8182C101.242 88.3324 99.9758 82.8825 99.9032 77.4446C99.8769 75.4182 101.836 72.4624 98.6304 72.3965L96.6057 91.8277L97.984 94.2379L100.51 93.8122L100.503 93.8182ZM92.7079 104.076C90.5645 104.682 82.9932 100.731 82.1886 103.195C81.1597 106.355 93.7829 108.351 92.7079 104.076ZM98.9601 110.648C98.0896 110.899 98.0236 112.002 97.9379 112.704C97.1926 118.687 98.294 126.23 97.9973 132.483C97.9181 134.156 95.7285 141.926 97.6477 142.316C99.0591 142.603 99.5735 140.283 99.7714 139.474C100.609 135.978 101.09 130.163 101.282 126.505C101.46 123.076 101.849 115.15 101.249 112.14C101.018 110.989 100.273 110.27 98.9601 110.648Z" fill="white"/>
<path d="M91.3894 119.012C87.6631 117.405 84.8272 115.271 80.4678 114.893C75.2708 114.437 69.2757 116.997 68.0094 121.962C66.5717 127.579 71.5511 134.378 60.2997 132.034C53.4605 130.607 51.2247 117.117 58.5717 113.382C64.3161 110.462 74.0243 117.657 76.9327 108.85C79.1751 109.221 80.4546 111.092 82.7959 111.578C85.3086 112.099 87.6763 111.494 90.0967 112.111C91.6532 114.132 91.4356 116.674 91.3828 119.006L91.3894 119.012Z" fill="white"/>
<path d="M82.8428 94.5005C80.2575 95.1 77.1512 96.6169 76.9203 99.2848H75.9508C73.8997 97.2344 60.6698 94.2546 67.7596 90.0578C71.7563 87.6896 77.8964 91.5387 81.7084 93.4453C82.1965 93.6911 82.8692 93.883 82.8428 94.5005Z" fill="white"/>
<path d="M119.658 86.7371L120.977 95.7003L111.935 93.7697L111.131 85.5439C113.815 87.4145 116.48 87.7983 119.665 86.7371H119.658Z" fill="white"/>
<path d="M142.016 133.357V122.901C155.536 117.481 155.035 137.14 142.016 133.357Z" fill="white"/>
<path d="M142.107 99.2023C142.549 95.9527 139.132 90.6587 144.956 90.8746C152.896 91.1683 148.979 102.638 142.107 99.2023Z" fill="white"/>
</svg>
