<svg width="228" height="311" viewBox="0 0 228 311" fill="none" xmlns="http://www.w3.org/2000/svg">
<path d="M179.085 176.24C179.085 210.957 149.903 239.102 113.908 239.102C77.9122 239.102 48.7305 210.957 48.7305 176.24C48.7305 141.523 77.9122 113.378 113.908 113.378C149.903 113.378 179.085 141.523 179.085 176.24ZM176.5 176.244C176.5 142.905 148.479 115.875 113.908 115.875C79.337 115.875 51.3158 142.901 51.3158 176.244C51.3158 209.586 79.337 236.612 113.908 236.612C148.479 236.612 176.5 209.586 176.5 176.244Z" fill="white"/>
<path d="M62.485 114.689C62.6382 116.071 64.7639 119.096 64.3809 120.323C64.2775 120.652 63.5574 121.176 63.1897 121.209C62.1671 121.305 57.931 118.177 57.6514 118.417L62.642 124.246C62.9178 124.36 63.6455 123.282 64.4077 123.614C65.5836 124.128 64.3771 125.081 63.8523 125.561C63.4846 125.897 61.7917 127.282 61.447 127.268C60.2482 127.212 60.3937 125.786 61.3474 125.325L55.4835 118.406C54.9128 117.992 54.5911 118.579 54.2157 118.539C53.7676 118.491 53.3578 117.896 53.4842 117.445C53.5914 117.061 55.9355 115.332 56.5866 115.469L62.7952 118.731L60.2022 112.288C60.1907 112.096 60.2214 111.922 60.3018 111.749C60.3593 111.627 62.0215 110.175 62.1518 110.116C63.2702 109.614 63.9864 110.951 62.9906 111.664C64.8443 113.696 66.7211 115.823 68.6668 117.8C69.7163 118.867 69.383 118.154 70.3176 117.977C71.1487 117.822 71.5892 118.742 71.1717 119.436C70.9419 119.82 68.5174 121.712 68.0578 121.874C66.8705 122.292 66.407 120.633 67.6174 120.049L62.4697 114.693L62.485 114.689Z" fill="white"/>
<path d="M184.834 148.383L191.595 145.431L190.794 143.643C192.564 140.987 193.387 146.399 194.647 147.219C194.034 148.039 192.924 148.054 192.644 146.986L183.065 151.257C181.923 151.7 181.322 150.806 181.575 149.827L187.895 140.932L180.652 143.883C181.372 144.655 182.096 147.445 180.169 146.595C179.763 146.418 178.304 143.488 178.151 142.953C177.745 141.545 179.48 140.677 180.028 142.158L188.68 138.372C187.933 137.578 188.236 136.096 189.511 136.492C190.174 136.695 191.277 139.258 190.878 140.005L184.838 148.383H184.834Z" fill="white"/>
<path d="M180.292 123.419C180.855 124.424 183.686 127.449 183.544 128.421L177.81 137.512C177.695 137.844 178.036 138.077 178.071 138.383C178.182 139.381 176.902 139.713 176.228 139.056C175.864 138.125 173.919 136.514 173.746 135.69C173.689 135.424 173.72 135.317 173.873 135.096C174.677 133.932 175.535 135.247 176.056 135.96L177.228 133.995L174.367 129.979C173.823 129.488 172.689 130.437 171.95 130.375L172.601 132.152C172.479 132.521 172.008 133.053 171.586 132.99C170.939 132.898 168.342 129.529 168.434 128.93C168.775 127.974 170.054 127.852 170.261 128.975L179.997 126.33C179.028 125.258 177.983 123.463 180.288 123.415L180.292 123.419ZM180.809 128.044L175.658 129.44C175.405 129.713 177.676 132.004 177.753 132.543L180.809 128.044Z" fill="white"/>
<path d="M87.2664 109.241L84.6734 100.818C84.3248 100.271 83.2064 100.958 82.9575 99.8244C82.8043 99.1262 83.1068 98.9858 83.689 98.7309C84.7155 98.2802 88.1128 97.1683 89.1699 97.0279C96.2748 96.097 98.7989 105.724 93.4444 108.912C91.5523 110.038 89.0589 110.36 87.0289 111.265C85.9833 110.847 86.0139 109.396 87.2664 109.241ZM89.0091 99.2037C88.6452 99.2518 86.8795 99.7726 86.8144 100.028L89.6028 108.594C92.7396 107.73 95.0607 106.429 94.1261 102.879C93.4482 100.305 91.8664 98.8196 89.0091 99.2001V99.2037Z" fill="white"/>
<path d="M183.422 154.63C183.595 154.467 184.376 154.246 184.625 154.39C185.054 154.585 185.115 155.11 185.154 155.524L194.449 153.126C193.978 152.055 194.748 151.597 195.775 151.711C196.092 151.937 196.181 152.277 196.307 152.609C196.924 154.223 197.732 157.966 197.533 159.624C197.069 163.451 191.132 165.272 187.835 163.887C184.265 162.391 184.487 158.265 183.254 155.254C183.223 155.062 183.284 154.763 183.422 154.63ZM185.797 157.386C185.95 158.933 186.498 161.043 187.973 161.885C190.144 163.122 194.943 161.996 195.418 159.288C195.518 158.723 195.365 155.498 194.882 155.38L185.797 157.386Z" fill="white"/>
<path d="M101.001 258.197C101.495 257.809 103.502 258.104 104.249 257.99C105.723 257.764 107.547 255.699 107.872 254.34C107.991 253.841 106.949 254.495 106.666 254.573C104.735 255.097 102.399 253.642 101.736 251.894C100.89 249.66 102.039 246.165 104.655 245.648C112.365 244.122 112.327 257.21 106.064 259.582C104.854 260.04 102.249 260.31 101.131 259.622C100.606 259.301 100.564 258.544 101.005 258.197H101.001ZM104.394 247.805C102.789 249.364 103.896 253.52 106.819 252.397C108.332 251.813 108.454 249.397 107.845 248.178C107.301 247.088 105.241 246.989 104.394 247.809V247.805Z" fill="white"/>
<path d="M109.654 95.7468L106.915 95.9019L107.72 104.675L107.973 105.045C108.865 105.041 110.788 104.239 110.926 105.462C111.094 106.955 109.941 106.785 108.765 106.925C107.505 107.073 105.088 107.402 103.928 107.372C102.572 107.335 102.557 105.632 103.648 105.407C103.97 105.34 105.717 105.385 105.797 105.13L104.82 96.0571L102.105 96.3859L102.411 99.8509C102.009 100.856 100.642 100.675 100.32 99.6995C100.454 98.3511 100.017 97.0028 100.148 95.6581C100.24 94.7199 100.439 94.6497 101.381 94.5167C103.798 94.1805 106.812 93.8924 109.252 93.7261C109.934 93.6781 111.416 93.4306 111.581 94.2729C111.772 95.2444 112.025 97.8413 111.91 98.7759C111.807 99.6256 111.06 100.132 110.37 99.4778C109.807 98.9422 109.742 96.5743 109.654 95.7468Z" fill="white"/>
<path d="M36.5279 153.16C35.8538 153.81 33.617 152.775 33.5097 152.886L32.2343 158.076L35.7542 158.937L36.2559 156.547C34.8426 156.484 34.3639 154.759 35.8423 154.741C36.2521 154.737 39.5843 155.443 39.6303 155.624L39.4235 156.88L37.7037 156.928L37.2173 159.395L41.2351 160.489C41.4917 159.643 41.7445 156.957 43.2268 157.714C43.7936 158.003 44.0081 158.553 43.9622 159.148C43.8971 159.994 43.2421 162.096 42.9625 163.008C42.6829 163.92 42.6867 165.047 41.35 164.652C40.4729 164.393 40.8559 162.967 41.0781 162.354L31.7479 160.186L31.1504 161.741C30.6103 162.037 30.1737 161.767 29.6758 161.549L29.6873 160.448L32.15 151.18C32.242 151.061 32.3952 150.965 32.5407 150.921C33.0003 150.788 36.5432 151.582 36.7079 152.051C36.773 152.343 36.7462 152.945 36.5317 153.152L36.5279 153.16Z" fill="white"/>
<path d="M124.943 253.808C123.839 254.665 123.15 255.171 121.645 255.049C115.903 254.58 115.869 245.208 122.296 245.729C128.11 246.202 128.528 258.488 122.047 260.254C121.139 260.502 118.569 261 118.65 259.633C118.711 258.555 120.538 258.865 121.373 258.673C123.598 258.159 124.743 255.847 124.943 253.812V253.808ZM121.526 247.469C119.013 247.931 118.971 252.279 121.526 252.681C125.077 253.243 124.962 246.837 121.526 247.469Z" fill="white"/>
<path d="M153.764 104.908L149.241 112.891L153.845 115.451C154.036 115.436 155.247 112.924 155.68 112.584C156.315 112.089 157.043 112.381 156.978 113.197C156.928 113.8 155.304 116.633 154.864 117.228C154.691 117.46 154.488 117.771 154.159 117.8L144.185 112.518C143.703 109.466 146.832 111.945 147.004 111.823L151.823 103.992C151.057 103.467 149.586 103.416 149.973 102.263C150.241 101.458 150.896 101.299 151.62 101.624C153.412 102.422 155.212 103.656 156.997 104.513C157.759 107.634 154.021 104.731 153.768 104.912L153.764 104.908Z" fill="white"/>
<path d="M140.883 249.46C139.156 251.27 137.168 252.027 134.874 250.52C132.277 248.814 132.17 244.019 135.368 242.818C141.504 240.513 145.242 250.72 141.45 254.894C140.374 256.08 137.992 257.447 136.322 257.077C135.441 255.548 137.287 255.507 138.313 254.972C139.282 254.466 140.887 252.977 140.887 251.865V249.46H140.883ZM136.655 244.373C134.28 244.85 135.05 249.298 137.275 249.608C141.094 250.143 140.267 243.649 136.655 244.373Z" fill="white"/>
<path d="M165.623 110.36C166.171 110.186 167.163 111.146 167.611 111.505C168.496 112.214 170.093 113.518 170.836 114.294C171.357 114.837 171.48 115.343 170.921 115.941C170.013 116.917 168.657 115.084 168.01 114.538L161.816 121.298L165.623 124.449C166.711 123.954 167.117 122.509 168.297 122.103C169.193 121.793 169.798 122.779 169.381 123.621C169.208 123.972 167.201 126.204 166.807 126.573C166.068 127.271 165.765 127.212 164.949 126.643C163.099 125.35 159.373 122.251 157.779 120.674C157.301 120.201 156.803 119.521 157.469 118.967C158.66 117.977 159.756 120.275 160.361 119.901L166.795 113.06C166.344 112.432 164.808 111.878 165.106 110.977C165.149 110.847 165.482 110.404 165.616 110.36H165.623Z" fill="white"/>
<path d="M47.8818 140.046C49.2032 139.001 49.7165 141.18 49.7739 142.089C50.1837 148.587 43.301 151.568 38.3333 147.375C36.1923 145.569 35.2807 142.425 36.7553 139.946C37.1 139.363 38.4291 138.177 38.5823 137.819C38.7661 137.394 38.2452 136.071 39.5436 136.108C39.7237 136.112 42.6422 137.312 42.8337 137.442C43.5155 137.911 43.0635 139.163 42.4048 139.348C41.8034 139.514 40.9838 138.86 40.2063 138.916C38.8466 139.012 37.8852 140.656 37.7358 141.823C37.1307 146.551 47.4873 149.599 47.6827 143.031C47.7095 142.189 47.1771 140.604 47.8818 140.042V140.046Z" fill="white"/>
<path d="M138.437 98.5056L137.02 98.5388L137.829 103.042C138.108 103.112 138.15 102.931 138.311 102.809C139.307 102.07 140.322 100.785 141.368 100.013C140.349 99.4291 140.134 98.9784 140.751 97.9441C141.145 97.7114 144.818 98.8713 145.083 99.2259C145.293 99.5104 145.347 100.061 145.075 100.33C144.696 100.704 143.926 100.441 143.463 100.641C143.145 100.777 138.334 104.737 138.143 105.018C138.047 105.155 137.062 108.051 137.181 108.166C137.698 108.221 139.479 108.55 139.678 108.941C140.084 109.728 139.671 110.519 138.709 110.497C138.127 110.485 133.508 109.026 132.834 108.709C132.233 108.424 131.968 108.055 132.275 107.39C132.765 106.333 134.531 107.497 135.393 107.371C135.534 106.5 136.27 105.144 136.323 104.339C136.354 103.844 135.101 98.5647 134.852 97.9071C134.653 97.3863 134.079 97.5303 133.88 97.1388C133.711 96.8063 133.765 96.2448 133.872 95.8865C134.263 95.3472 137.813 96.6142 138.365 97.0095C139.054 97.5008 138.847 97.8739 138.437 98.5019V98.5056Z" fill="white"/>
<path d="M128.443 94.7012C129.19 95.4695 128.137 96.3487 127.275 96.3783C126.796 96.3968 126.275 96.0865 125.766 96.2305C125.061 99.0195 125.935 104.236 123.499 106.23C122.039 107.424 119.63 107.065 117.941 106.467C114.475 105.24 115.884 103.722 116.29 100.911C118.535 100.006 117.646 102.359 117.899 103.556C118.201 104.993 120.32 105.469 121.61 105.189C122.993 104.889 123.196 101.775 123.334 100.641C123.525 99.0823 123.575 97.4717 123.656 95.9054C122.25 95.6912 118.646 96.3118 119.856 94.0289C120.17 93.7887 121.629 93.87 122.124 93.8885C123.713 93.955 126.011 94.1545 127.589 94.3613C127.769 94.3872 128.332 94.5904 128.443 94.7012Z" fill="white"/>
<path d="M76.9322 102.307C78.5064 103.74 74.3047 104.752 74.4196 105.421L78.7477 113.134C79.2417 113.489 82.5471 109.983 82.6927 112.532L82.3442 112.96C80.2146 113.803 77.9816 115.583 75.9095 116.381C74.4886 116.928 73.374 116.015 74.8256 115.025C75.1282 114.819 76.8862 113.995 76.9513 113.891L76.9781 113.692L72.765 106.093C72.6616 105.953 72.6386 105.82 72.4126 105.853C71.4513 106.001 69.3332 108.742 68.6055 106.378C68.6131 106.082 69.1111 105.72 69.3523 105.554C70.4593 104.789 74.2166 102.761 75.4576 102.285C75.8904 102.118 76.5568 101.967 76.9322 102.31V102.307Z" fill="white"/>
<path d="M93.0718 242.94L89.3565 254.488C89.3987 254.747 91.3827 255.179 91.6968 255.519C92.1985 256.062 91.7504 257.237 90.9422 257.041C89.211 256.21 85.9056 255.929 84.3889 254.965C83.8297 254.61 83.5462 254.163 83.8565 253.535C84.4042 252.427 87.2002 254.019 87.4376 253.808L90.4903 244.566C90.4405 243.993 86.7597 244.843 87.6789 243.092C88.1041 242.276 92.1027 243.033 93.0756 242.94H93.0718Z" fill="white"/>
<path d="M120.44 225.549L125.396 213.942C125.561 213.096 124.91 212.132 124.764 211.282H103.074C102.879 212.076 102.289 213.14 102.442 213.942L107.234 225.393L90.1934 211.153L105.246 163.47L122.769 163.599L137.63 210.765L137.58 211.26L120.432 225.549H120.44Z" fill="white"/>
<path d="M95.0027 165.31L83.9988 176.163L64.5762 151.49L95.0027 165.31Z" fill="white"/>
<path d="M163.261 151.49L143.846 176.167L132.838 165.535L163.261 151.49Z" fill="white"/>
<path d="M113.909 270.498C167.143 270.498 210.298 228.263 210.298 176.163C210.298 124.063 167.143 81.8271 113.909 81.8271C60.6744 81.8271 17.5195 124.063 17.5195 176.163C17.5195 228.263 60.6744 270.498 113.909 270.498Z" stroke="white" stroke-width="6" stroke-miterlimit="10"/>
</svg>
