<?xml version="1.0" encoding="UTF-8"?>
<svg id="Layer_1" data-name="Layer 1" xmlns="http://www.w3.org/2000/svg" viewBox="0 0 3941.13 3943.06">
  <defs>
    <style>
      .cls-1 {
        fill: #015493;
      }

      .cls-2 {
        fill: #4381af;
      }

      .cls-3 {
        fill: #fefeff;
      }

      .cls-4 {
        fill: #015593;
      }

      .cls-5 {
        fill: #035694;
      }

      .cls-6 {
        fill: #025694;
      }

      .cls-7 {
        fill: #aec8dc;
      }

      .cls-8 {
        fill: #6b9cc0;
      }

      .cls-9 {
        fill: #c9dbe8;
      }

      .cls-10 {
        fill: #bad1e2;
      }

      .cls-11 {
        fill: #055795;
      }

      .cls-12 {
        fill: #c7dae7;
      }

      .cls-13 {
        fill: #fafcfd;
      }

      .cls-14 {
        fill: #feffff;
      }
    </style>
  </defs>
  <g id="_6G15SP.tif" data-name="6G15SP.tif">
    <g>
      <path class="cls-11" d="M2019.13,0c8.84,7.02,26.39,3.8,38.44,3.85,10.2.04,20.57-.43,30.75,0,998.2,41.78,1826.91,900.12,1848.97,1896.51,1.04,47.12,1.04,95.22,0,142.33-22.46,1020.78-874.56,1865.77-1891.25,1896.51-47.32,1.43-98.74,1.38-146.07,0C904.1,3910.14,94.12,3120.17,8.75,2133.06c-2.07-23.94,1.66-51.61-7.73-74.98,2.38-56.96-3.2-116.46,0-173.11C58.06,876.36,843.12,61.21,1857.68,3.85c13.98-.79,28.28.59,42.28,0,9.66-.4,19.42.52,29.13.16l9.31-4.01h80.72ZM1856.89,66.53C965.66,110.31,213.02,812.41,86.23,1691.35c-181.37,1257.35,879.9,2332.97,2138.01,2170.38,893.34-115.45,1611.67-881.05,1651.71-1786.17C3926.85,924.64,3005.84,10.09,1856.89,66.53Z"/>
      <path class="cls-9" d="M2046.04,3939.21v3.85h-146.07v-3.85c47.33,1.38,98.75,1.43,146.07,0Z"/>
      <path class="cls-10" d="M3941.13,2042.7h-3.84c1.04-47.12,1.04-95.22,0-142.33h3.84v142.33Z"/>
      <path class="cls-7" d="M1899.96,0v3.85c-14,.59-28.31-.79-42.28,0V0h42.28Z"/>
      <path class="cls-2" d="M1938.4,0l-9.31,4.01c-9.71.36-19.47-.56-29.13-.16V0h38.44Z"/>
      <path class="cls-8" d="M2057.57,0v3.85c-12.05-.05-29.6,3.17-38.44-3.85h38.44Z"/>
      <path class="cls-12" d="M2088.32,0v3.85c-10.18-.43-20.55.04-30.75,0V0h30.75Z"/>
      <path class="cls-3" d="M1856.89,66.53c1148.95-56.44,2069.96,858.12,2019.06,2009.03-40.04,905.13-758.37,1670.72-1651.71,1786.17C966.13,4024.32-95.15,2948.7,86.23,1691.35,213.02,812.41,965.66,110.31,1856.89,66.53ZM1868.42,424.29C730.52,486.56,63.64,1758.15,630.78,2745.42c584.6,1017.66,2064.54,1033.77,2667.67,25.53,647.25-1082.01-181.68-2414.97-1430.03-2346.66Z"/>
      <path class="cls-11" d="M1868.42,424.29c1248.35-68.32,2077.28,1264.65,1430.03,2346.66-603.13,1008.25-2083.07,992.13-2667.67-25.53C63.64,1758.15,730.52,486.56,1868.42,424.29ZM1876.11,489.68C846.17,546.05,194.26,1647.64,623.07,2587.71c460.58,1009.7,1838.01,1172.37,2520.03,293.21,785.66-1012.77,6.47-2460.92-1267-2391.23Z"/>
      <path class="cls-13" d="M1876.11,489.68c1273.47-69.69,2052.66,1378.47,1267,2391.23-682.02,879.16-2059.45,716.49-2520.03-293.21C194.26,1647.64,846.17,546.05,1876.11,489.68ZM1899.17,551.24C851.68,602.38,218.01,1749.52,734.57,2668.47c509.13,905.74,1795.52,972.35,2396.33,123.29,685.57-968.83-52.78-2298.1-1231.73-2240.53Z"/>
      <path class="cls-1" d="M1899.17,551.24c1178.94-57.57,1917.29,1271.7,1231.73,2240.53-600.81,849.06-1887.2,782.45-2396.33-123.29C218.01,1749.52,851.68,602.38,1899.17,551.24ZM1337.97,1301.4c-396.79,31.02-461.18,397.01-445.29,727.99,18.69,389.43,224.57,596.79,624.32,547.53,368.48-45.41,435.03-390.25,421.6-705.59-16.61-389.89-193.88-601.73-600.62-569.93ZM2072.94,1334.87v1211.77l563.31.16c218.18-17.77,359.97-132.45,344.04-363.85-11.01-159.92-116.22-211.94-257.94-242.62l.73-43.3c114.22-28.56,219.37-78.77,230.08-210.22,17.26-211.8-88.89-332.32-297.9-351.88l-582.32-.05Z"/>
      <path class="cls-14" d="M2072.94,1334.87l582.32.05c209.01,19.56,315.16,140.08,297.9,351.88-10.71,131.46-115.86,181.67-230.08,210.22l-.73,43.3c141.72,30.68,246.93,82.7,257.94,242.62,15.94,231.4-125.85,346.08-344.04,363.85l-563.31-.16v-1211.77ZM2376.62,1823.42h171.06c4.88,0,34.98-9.67,41.24-12.58,34.32-15.96,46.49-57.86,49.23-93.07,3.51-45.12,3.88-127.86-33.4-159.19-7.29-6.13-37.48-19.82-45.54-19.82h-182.59v284.67ZM2376.62,2342.75h182.59c5.78,0,35.93-8,43.05-10.78,30.23-11.79,45.16-36.12,53.01-66.2,15.28-58.52,19-182.1-39.02-218.61-6.13-3.86-36.46-16.01-41.66-16.01h-197.97v311.6Z"/>
      <path class="cls-3" d="M1337.97,1301.4c406.74-31.8,584.01,180.03,600.62,569.93,13.44,315.34-53.12,660.19-421.6,705.59-399.75,49.26-605.63-158.1-624.32-547.53-15.89-330.98,48.5-696.97,445.29-727.99ZM1384.02,1516.75c-199.31,23.96-179.27,368.51-172.17,512.52,6.25,126.78,15.5,319.72,179.25,336.1,249.21,24.92,232.02-310.65,228.09-474.46-3.83-159.76-10.46-401.17-235.17-374.15Z"/>
      <path class="cls-5" d="M2376.62,2342.75v-311.6h197.97c5.2,0,35.53,12.15,41.66,16.01,58.02,36.51,54.31,160.09,39.02,218.61-7.86,30.09-22.79,54.41-53.01,66.2-7.12,2.77-37.27,10.78-43.05,10.78h-182.59Z"/>
      <path class="cls-6" d="M2376.62,1823.42v-284.67h182.59c8.06,0,38.25,13.7,45.54,19.82,37.28,31.33,36.91,114.07,33.4,159.19-2.74,35.21-14.9,77.11-49.23,93.07-6.26,2.91-36.36,12.58-41.24,12.58h-171.06Z"/>
      <path class="cls-4" d="M1384.02,1516.75c224.71-27.01,231.34,214.39,235.17,374.15,3.93,163.81,21.12,499.38-228.09,474.46-163.76-16.37-173.01-209.32-179.25-336.1-7.09-144.01-27.14-488.56,172.17-512.52Z"/>
    </g>
  </g>
</svg>