<svg width="160" height="161" viewBox="0 0 160 161" fill="none" xmlns="http://www.w3.org/2000/svg">
<path d="M160 80.0128C160 124.203 124.183 160.026 80 160.026C35.8174 160.026 0 124.203 0 80.0128C0 35.823 35.8174 0 80 0C124.183 0 160 35.823 160 80.0128ZM144.931 80.0169C144.931 44.15 115.86 15.0738 79.9989 15.0738C44.1376 15.0738 15.0663 44.15 15.0663 80.0169C15.0663 115.884 44.1376 144.96 79.9989 144.96C115.86 144.96 144.931 115.884 144.931 80.0169Z" fill="#0048FF"/>
<path d="M142.226 80.0126C142.226 114.383 114.368 142.246 80.0029 142.246C45.6379 142.246 17.7793 114.383 17.7793 80.0126C17.7793 45.642 45.6379 17.7793 80.0029 17.7793C114.368 17.7793 142.226 45.642 142.226 80.0126ZM139.57 80.0164C139.57 47.109 112.897 20.4324 79.9954 20.4324C47.0936 20.4324 20.4211 47.109 20.4211 80.0164C20.4211 112.924 47.0936 139.6 79.9954 139.6C112.897 139.6 139.57 112.924 139.57 80.0164Z" fill="#0048FF"/>
<path d="M84.1973 53.1948L106.631 53.1914C114.246 53.4702 120.42 56.2592 121.214 64.5963C121.516 67.7674 121.085 71.167 118.765 73.5071C116.838 75.4508 114.117 76.1643 111.586 76.9915L111.568 78.7219C112.561 79.0908 113.639 79.2501 114.658 79.5713C119.478 81.0909 122.06 84.0453 122.358 89.197C122.925 99.0146 116.605 103.601 107.449 104.197L84.1976 104.193V53.1948H84.1973ZM97.0267 73.7903C99.1839 73.6904 101.46 73.9245 103.604 73.7896C106.82 73.5871 107.794 71.886 107.976 68.8449C108.145 66.0062 107.914 62.4497 104.495 61.9493C102.142 61.6048 99.4221 62.0176 97.0271 61.858V73.7903H97.0267ZM97.0267 95.6117C99.2282 95.5362 101.495 95.7117 103.69 95.6151C105.957 95.5152 107.775 95.094 108.551 92.713C109.249 90.5723 109.363 85.4109 107.606 83.7635C107.08 83.2699 105.79 82.6169 105.076 82.6169H97.0267V95.6117Z" fill="#0048FF"/>
<path d="M43.7829 102.445C37.0943 98.1611 35.1347 89.7391 34.7602 82.2522C34.2711 72.4808 35.2696 59.7967 44.757 54.4087C50.5782 51.103 61.6702 50.9757 67.6397 53.9439C77.5359 58.865 78.9398 71.2151 78.5611 81.1079C78.1479 91.9027 75.1372 102.181 63.4438 104.973C57.3063 106.438 49.1799 105.902 43.7829 102.445ZM55.4996 60.9849C48.5751 61.651 48.2535 70.6805 48.0837 75.9614C47.9282 80.7983 47.7576 89.8357 50.7089 93.8427C52.759 96.6261 56.6819 97.0889 59.8106 96.0265C64.3405 94.4881 65.1043 86.3452 65.2436 82.336C65.386 78.2497 65.3826 73.2813 64.6426 69.2818C63.6804 64.0839 61.3629 60.4203 55.4992 60.9846L55.4996 60.9849Z" fill="#0048FF"/>
</svg>
