<svg width="213" height="210" viewBox="0 0 213 210" fill="none" xmlns="http://www.w3.org/2000/svg">
<path d="M209.626 104.7C209.626 160.759 163.438 206.209 106.461 206.209C49.4834 206.209 3.29492 160.765 3.29492 104.7C3.29492 48.6347 49.4834 3.19043 106.461 3.19043C163.438 3.19043 209.626 48.6347 209.626 104.7ZM190.109 104.7C190.109 59.2437 152.661 22.393 106.461 22.393C60.2601 22.393 22.8119 59.2437 22.8119 104.7C22.8119 150.156 60.2601 187.007 106.461 187.007C152.661 187.007 190.109 150.156 190.109 104.7Z" fill="white"/>
<path d="M186.714 104.702C186.714 148.314 150.786 183.669 106.46 183.669C62.1334 183.669 26.2051 148.314 26.2051 104.702C26.2051 61.0898 62.1334 25.7344 106.46 25.7344C150.786 25.7344 186.714 61.0898 186.714 104.702ZM183.2 104.702C183.2 62.9988 148.84 29.1919 106.46 29.1919C64.0797 29.1919 29.7192 62.9988 29.7192 104.702C29.7192 146.405 64.0797 180.212 106.46 180.212C148.84 180.212 183.2 146.405 183.2 104.702Z" fill="white"/>
<path d="M111.789 70.9227L112.402 70.6508C121.521 70.9168 130.82 70.3317 139.92 70.6508C152 71.0764 160.633 75.6096 159.702 88.9077C159.173 96.4966 153.863 99.1266 147.123 100.882L147.093 103.01C151.388 104.18 156.217 105.208 158.849 109.109C161.756 113.418 161.738 120.746 159.726 125.416C156.788 132.248 149.267 134.86 142.227 135.428H111.795V70.9168L111.789 70.9227ZM128.465 96.668H138.31C139.169 96.668 140.677 95.6809 141.206 94.9776C142.87 92.7672 142.846 86.8509 141.752 84.3804C141.254 83.2575 139.566 81.8272 138.31 81.8272H128.465V96.668ZM128.465 124.429H137.602C138.208 124.429 139.782 124.092 140.401 123.867C144.053 122.514 143.987 117.088 143.723 113.873C143.506 111.284 141.921 108.022 138.845 108.022H128.465V124.429Z" fill="white"/>
<path d="M73.0724 68.967C92.0548 67.7376 102.183 76.5085 104.333 94.8423C106.514 113.424 103.114 135.056 80.4732 137.172C60.8781 139.004 50.2455 129.559 48.2752 110.723C46.3049 91.8871 49.9872 70.4623 73.0784 68.967H73.0724ZM74.6643 80.6575C66.7229 81.5382 65.5696 91.562 65.2933 97.7974C65.0169 104.033 64.8547 116.645 68.5972 121.965C72.3396 127.284 80.7375 126.888 84.2516 121.687C87.7658 116.486 87.7658 103.016 87.3092 96.574C86.7445 88.601 84.9725 79.5168 74.6643 80.6575Z" fill="white"/>
</svg>
