<svg width="156" height="157" viewBox="0 0 156 157" fill="none" xmlns="http://www.w3.org/2000/svg">
<path d="M82.5744 0L94.1547 1.67617C149.762 13.5966 175.09 80.7549 139.634 126.642C98.6557 179.678 15.439 159.541 1.72408 94.7788L0.052959 83.1213C0.176988 80.0713 -0.1135 76.9655 0.052959 73.9188C2.2202 34.667 34.4676 2.1823 73.4354 0H82.5744ZM75.5178 22.7465L48.0096 11.7693C35.8189 17.3828 25.123 26.3519 17.7597 37.6414L23.0439 60.7264L51.5836 70.1787L75.4101 50.9061L75.5178 22.7432V22.7465ZM80.492 22.7465L80.5997 50.9094L104.426 70.1819L132.966 60.7297L138.25 37.6447C130.831 26.3256 120.09 17.2086 107.746 11.7266L80.492 22.7465ZM21.425 65.9981L5.59508 85.4909C6.77988 97.2766 10.6052 108.905 17.3158 118.643L43.0843 122.629L56.9429 104.067L49.9386 75.6607L48.8615 74.9081L21.4283 65.9981H21.425ZM134.591 65.9883L107.155 74.9081L106.078 75.6607L99.0734 104.067L112.935 122.692L138.893 118.534C145.323 108.698 149.318 97.2701 150.421 85.5008L134.591 65.985V65.9883ZM62.8636 150.207C72.2441 152.113 82.3557 152.524 91.7721 150.506C92.7382 150.299 94.9283 149.967 95.5027 149.356L108.767 125.903L95.0621 107.501L61.6984 107.33L60.8074 107.662L47.569 125.909L62.8636 150.207Z" fill="#0048FF"/>
</svg>
