<svg width="158" height="157" viewBox="0 0 158 157" fill="none" xmlns="http://www.w3.org/2000/svg">
<path d="M158 78.5C158 121.858 122.625 157 79 157C35.3751 157 0 121.849 0 78.5C0 35.1512 35.3751 0 79 0C122.625 0 158 35.1512 158 78.5ZM148.327 78.5281C148.327 40.482 117.288 9.64033 79 9.64033C40.7115 9.64033 9.67348 40.482 9.67348 78.5281C9.67348 116.574 40.7115 147.416 79 147.416C117.288 147.416 148.327 116.574 148.327 78.5281Z" fill="#0048FF"/>
<path d="M60.4451 33.8021C62.1704 33.2868 64.2824 33.4742 65.7061 34.5891L120.277 74.3403C123.049 76.4951 123.709 79.5961 120.984 82.0413C102.797 93.7147 85.4584 109.988 67.224 121.184C61.3125 124.809 57.8145 124.406 57.098 116.78C54.8258 92.5529 58.8799 64.8873 57.098 40.2852C57.0508 38.1492 58.1823 34.4673 60.4451 33.8021ZM66.9977 47.6771V109.388L109.35 78.1908L66.9977 47.6771Z" fill="#0048FF"/>
</svg>
