<?xml version="1.0" encoding="UTF-8"?>
<svg id="Layer_1" data-name="Layer 1" xmlns="http://www.w3.org/2000/svg" viewBox="0 0 3550.04 3546.52">
  <defs>
    <style>
      .cls-1 {
        fill: #f5f9f8;
      }

      .cls-2 {
        fill: #097864;
      }

      .cls-3 {
        fill: #176f5a;
      }

      .cls-4 {
        fill: #087864;
      }

      .cls-5 {
        fill: #f1f6f4;
      }

      .cls-6 {
        fill: #fbfdfc;
      }

      .cls-7 {
        fill: #067662;
      }

      .cls-8 {
        fill: #046954;
      }

      .cls-9 {
        fill: #117a68;
      }

      .cls-10 {
        fill: #f3f8f6;
      }

      .cls-11 {
        fill: #fafcfc;
      }

      .cls-12 {
        fill: #157966;
      }

      .cls-13 {
        fill: #f8fbfa;
      }

      .cls-14 {
        fill: #f9fcfb;
      }

      .cls-15 {
        fill: #fff;
      }

      .cls-16 {
        fill: #077764;
      }

      .cls-17 {
        fill: #edf4f2;
      }

      .cls-18 {
        fill: #006852;
      }

      .cls-19 {
        fill: #f6faf9;
      }

      .cls-20 {
        fill: #0b7864;
      }

      .cls-21 {
        fill: #137966;
      }

      .cls-22 {
        fill: #067763;
      }

      .cls-23 {
        fill: #0f7865;
      }

      .cls-24 {
        fill: #448c7c;
      }

      .cls-25 {
        fill: #fdfefe;
      }

      .cls-26 {
        fill: #0b7966;
      }

      .cls-27 {
        fill: #1b7a67;
      }

      .cls-28 {
        fill: #fcfdfd;
      }

      .cls-29 {
        fill: #277d6b;
      }
    </style>
  </defs>
  <g id="o57yLg.tif">
    <g>
      <path class="cls-12" d="M1657.29,3545.43C200.79,3469.8-500.39,1786.53,402.73,664.84,1428.17-608.75,3459.15,65.19,3550.04,1688.69v170.08l-22.39,200.85c-127.28,760.88-753.02,1370.56-1520.48,1470.62l-151.4,15.18c-65.82-2.51-132.77,3.41-198.49,0ZM1726.72,39.55C429.37,92.75-369.38,1500.92,259.54,2643.08c522.03,948.04,1855.91,1146.48,2659.69,431.18C4110.8,2013.83,3392.18,106.28,1831.26,37.17l-104.54,2.38Z"/>
      <path class="cls-11" d="M1726.72,39.55l104.54-2.38c1560.92,69.11,2279.55,1976.66,1087.97,3037.09-803.78,715.31-2137.66,516.86-2659.69-431.18C-369.38,1500.92,429.37,92.75,1726.72,39.55ZM1655.83,131.68C441.8,208.58-263.15,1598.15,354.33,2640.45c556.73,939.76,1911.39,1048.6,2639.33,246C3993.02,1784.61,3142.05,37.53,1655.83,131.68Z"/>
      <path class="cls-20" d="M1655.83,131.68c1486.22-94.15,2337.19,1652.94,1337.83,2754.78-727.95,802.6-2082.61,693.75-2639.33-246C-263.15,1598.15,441.8,208.58,1655.83,131.68ZM1769.07,216.42c-190.35,23.45-173.6,333.42,26.11,324.44,207.65-9.34,187.17-350.72-26.11-324.44ZM2250.36,431.91c21.67-21.17,27.71-61.38,20.31-89.94-18.4-70.94-170.32-79.08-230.52-99.04l-78.08,297.59,70.34,13.74,32.15-112.2c112.83,20.88,106.54,43.51,89.73,147.4l63,14.98c-.71-32.56,16.74-71.16,14.69-102.66-1.65-25.4-18.29-31.58-21.76-53.21,13.98-.1,30.33-7.07,40.14-16.66ZM1423.33,462.72c89.93-2.43,197.63-55.51,143.21-160.91-42.07-81.48-160.01-43.18-231.51-23.11-7.56,2.12-14.82,1.76-17.35,11.32l63.92,292.34,62.86-6.47-21.13-113.17ZM2600.11,448.6l-234.09-110.48c-8.26,13.75-27.52,38.82-17.97,53.75l74.79,38.82-110.33,223.49,60.69,28.18,106.52-219.69,94.69,36.01,25.72-50.08ZM1252.93,405.64c-16.23-76.87-104.12-68.75-161.93-37.81-86.59,46.36-85.58,168.95,23.76,173.2,36.67,1.42,140.26-35.45,149.82,6.32,12.85,56.17-99.02,90.76-129.33,36.88l-51.88,20.52c32.45,131.12,267.3,46.16,244.84-71.49-24.69-129.31-180.44-33.68-223.92-59.9-42.07-25.37,22.58-82,73.06-66,10.73,3.4,16.19,19.94,28.46,18.85,11.91-1.06,31.09-20.91,47.12-20.57ZM883.11,513.79c-66.55,6.65-128.07,81.44-182.72,115.39l188.46,243.99c47.34-29.85,137.42-84.52,160.11-136.34,42.46-96.98-62.25-233.4-165.85-223.04ZM2791.39,717.75c77.66-102.64-90.1-246.55-180.72-170.12-93.81,79.12,63.34,171.68,50.4,219.95-15.54,57.97-94.2,5.63-96.92-39.29-.89-14.79,8.9-37.29,4.47-45.92l-43.97-34.87c-107.88,85.12,70.69,255.8,171.19,190.8,111.1-71.86-24.74-159.95-37.53-210.91-22.26-88.71,122.74-14.74,70.14,44.48l62.93,45.88ZM608.12,1717.04c-7.31,51.67-7.14,99.25-7.09,152.42,0,5.35-3.03,36.79,7.09,17.66,74.11,952.55,1219.06,1396.19,1935.39,761.93,226.23-200.31,350.05-458.15,389.79-754.84.3-2.26,6.34-10.4,7.56-24.06,5.44-60.9-5.01-130.13-.44-192.07.07-8.46-6.17,3.49-7.12,3.53-3.13.13-6.12.11-7.03-3.57-51.66-723.18-788.97-1220.5-1485.32-1009.97-313.25,94.71-602.46,356-734.82,654.42-56.78,128.01-78.88,259.26-98.02,394.55ZM620.43,754.93c-54.62,8.75-116.58,68.27-125.28,122.73-21.32,133.52,134.12,244.19,250.05,172.07,169.38-105.37,29.71-319.56-124.77-294.8ZM3131.8,1001.15l-120.67-184.13c-29.19,23.9-262.52,164.73-262.55,180.66-.02,11.41,35.62,46.24,46.36,46.19l99.47-63.5c38.76,32.67,64.17,149.54,116.2,68.13l-69.82-100.49,52.88-37.58,88.48,116.12,49.64-25.4ZM501.78,1220.84l56-116.94-49.18-21.62-56.31,107.34-63.2-28.78,61.42-127.98-54.5-24.04-85.15,197.39,272.58,127.35,28.83-63.29-110.5-49.44ZM3059.05,1109.28c-220.37,35.05-159.61,367.92,65.45,299.28,197.25-60.15,135.23-331.2-65.45-299.28ZM3309.05,1447.7l-311.93,35.51,7.1,70.85,127.61-14.23c-6.29,32.92,16.47,66.34,1.79,97.59-16.58,35.3-92.82,25.96-105.11,43.91l4.11,71.15c39.4-34.53,117.82-10.28,134.75-70.83,28.06,8.97,30.38,26.82,67.03,28.79,149.06,7.99,72.77-177.53,74.65-262.73ZM331.61,1454.86c-116.05-.51-164.15,134.48-99.18,223.16,88.65,121,311.04,66.6,297.38-91.22-2.34-27.06-21.71-44.11-28.03-68.16l32.38-6.63,3.05-35.88-170.1-21.31-14.22,127.52,50.08,4.17,6.67-60.83c54.64-3.62,75.27,62.98,52.55,105.79-42.43,79.95-217.61,44.67-198.6-56.36,6.05-32.16,26.57-55.41,60.14-57.28l7.86-62.96ZM508.63,1844.19l-6.92-70.46c-49.55,29.39-116.25,10.71-145.29,70.84-28.44-63.4-141.36-41.63-151.98,25.24-10.04,63.26,16,137.29,13.76,201.61l311.9-28.43-7.08-70.85-116.07,14.68c-13.72-2-18.06-97.3-4.6-110.52l106.29-32.11ZM3337.41,1802.04l-304.8-21.16-21.34,233.77,63.85.07,7.02-163.07,77.85,7.29-14.06,148.63,56.7,7.09,7.1-148.83h63.87s-7.07,162.97-7.07,162.97l56.61,7.12,14.25-233.86ZM3046.76,2255.71c57.11-17.7,177.34-27.08,224.95-55.08,21.26-12.51,21.78-39.87,29.62-61.34l-296.87-96.01-13.46,47.25,6,12.68c52.87,22.51,114.46,33.16,167.43,52.49,9.86,3.6,12.07-2.47,9.92,14.86-52.08,16.58-172.56,26.26-214.92,50.97-19.7,11.49-23.29,47.47-25.85,69.1l287.17,90.91,24.52-62.01-198.5-63.8ZM422.08,2108.68c-246.72,35.41-156.54,391.59,79.62,292.15,167.31-70.44,105.37-318.7-79.62-292.15ZM3181.42,2468.35l-273.07-141.12c-4.54.34-46.84,64.16-20.25,69.22l241.91,127.15c33.92,9.67,36.81-34.33,51.41-55.25ZM523.2,2751.7l262-174.15c2.4-10.41-104.6-153.53-123.88-166.06-62.6-40.68-140.62,13.52-131.23,85.08-31.75-8.73-54.61-5.82-81.51,14.16-83.44,61.98,52.59,176.49,74.61,240.97ZM2826.97,2652.56l223.2,21.26,53.14-53.22-254.95-187.76-25.46,56.65,145.84,113.32c-65.06,10.37-162.78-25.63-223.16-13.92-12.54,2.43-55.79,42.45-53.33,52.84l245.6,180.27,44.95-45.5-155.84-123.94ZM650.52,2872.14c12.66-36.53,57.01-56.5,85.3-81.35,21.21-18.63,123.91-109.5,131.47-124.18,6.7-13.01-41.14-67.71-57.35-49.98l-212.87,198.92c-8.98,17.39,33.81,43.03,43.16,56.48l10.3.11ZM2585.94,3006.72c73.62,52.5,173.15,30.93,216.57-49.13,74.36-137.1-103.22-307.89-237.39-216.05-27.47,18.8-56.74,52.85-50.15,88.13-25.68-25.17-40.8-8.79-63.72,10.88l109.7,131.22,101.22-81.77c-31.47-68.04-45.21-22.11-90.34-3.66-26.49-60.67,25.6-117.5,88.17-105.95,46.7,8.62,97.88,89.48,87.63,136.27-3.06,13.99-33.01,49.25-46.17,53.28-32.81,10.06-51.82-14.12-65.46-9.53-8.17,2.75-53.42,41.5-50.06,46.33ZM905.77,3091.86l111.31-301.38-58.31-46.09-279.62,173.86,58.89,45.09,174.87-112.38-68.65,195.06,61.51,45.83ZM1359.53,3276.1l60.15,7.4c22.58-86.51,69.64-182.8,85.97-269.4,4.75-25.2-23.36-24.15-42.27-29.07-19.52,41.64-64.12,44.17-103.76,28.83l-11.31,42.85,68.19,24.92-56.98,194.47ZM2084.29,3043.95c31.44-31.3,66.4,13.06,86.03,12.4,68.57-2.31,24.42-57.17-9.33-67.61-212.5-65.77-183.81,357.69,21.09,305.31,116.65-29.82,91.35-243.68-55.67-204.45-28.86,7.7-33.89,29.41-57.92,37.68-6.54-7.61,6.06-73.63,15.8-83.33ZM1162.79,3061.77c33.44,33.96,87.56-34.71,47.96-58.53-40.98-24.65-77.33,28.69-47.96,58.53ZM2328.78,3000.78c-28.47,7.72-39.33,58.74-7.23,68.43,71.44,21.55,60.88-82.97,7.23-68.43ZM1685.68,3169.91c22.46,1.54,43.25-19.49,48.06-40.53,37.77-165.04-296.36-132.86-175.76,22.82l.07,10.47c-45.1,5.01-61.58,46.85-56.92,88.77,10.37,93.3,183.77,114.76,222.71,31.02,13.16-28.3,15.43-54.2-2.74-80.78-10.63-15.55-27.82-18.11-35.41-31.78ZM1777.79,3269.11c34.21,126.06,195.88,86.07,212.06-32.57,11.11-81.41-6.88-204.58-109.16-208.91-199.45-8.44-116.2,321.86,52.99,177.64-3.03,35.51-11.87,94.91-59.64,92.02-33.28-2.01-38.15-57.77-96.25-28.17Z"/>
      <path class="cls-14" d="M2933.3,1681.6v212.6c-39.74,296.69-163.56,554.53-389.79,754.84-716.33,634.26-1861.28,190.62-1935.39-761.93v-170.08c19.14-135.28,41.24-266.53,98.02-394.55,132.36-298.42,421.56-559.71,734.82-654.42,696.35-210.54,1433.66,286.79,1485.32,1009.97.9,3.68,3.9,3.7,7.03,3.57ZM1919.58,873.71v-138.19c-17.61-18.35-50.05-20.61-75.27-24.06-12.53-1.71-17.74-5.51-17.13,10,1.17,29.86,65.76,128.75,92.4,152.25ZM1607.66,735.51v152.37c22.21-24.23,90.68-131.17,92.46-159.26.96-15.06-.69-9.29-10.7-10.86-15.73-2.46-76.37.87-81.76,17.75ZM1437.53,1320.17c-1.18,2.1-14.25,8.26-20.12,18.67-179.04,318-360.46,634.57-539.91,952.22l17.61,7.2,1790.08-.11,14.11-3.47c-75.18-130.01-150.85-259.78-227.92-388.71-102.72-171.86-208.5-347.2-317.87-514.93l-.26-15.95c-49.79-66.71-81.77-140.17-126.12-215.6-85.51-145.44-172.6-290.15-259.97-434.47-114.26,184.81-217.35,378.93-324.21,569.02-5.02,8.93-3.45,22.61-5.43,26.13ZM2337.83,1596.56c1.73,2.86,3.13,26.81,14.21,17.69l-.03-719.28c-3.81-16.24-127.61-82.44-151.14-93.4-31.62-14.73-69.43-32.95-104.06-34.17v421.66c76.67,138.07,159.44,272.46,241.03,407.49ZM1196.5,894.97c-28.64,37.84-7.09,46.15-7.09,74.41v676.79l7-.05c3.69-17.57,12.83-34.04,21.35-49.55,68.68-124.94,141.61-248.34,212.67-372.06v-439.38l-16.53-9.66c-54.76,32.14-179.88,69.93-217.41,119.5ZM2543.41,1950.9c17.38,46,138.69,247.94,171.26,285.89,6.3,7.34,7.04,14.78,20.05,11.73,25.79-70.21,58.03-137.91,76-211.12,63.25-257.77,17.68-575.92-122.57-801.68-37.02-59.6-82.13-113.65-123.47-170.67-8.68-11.97-8.85-17.32-28.32-14.14l-.53,875.97c-3.82,11.29,5.32,18.01,7.58,24.02ZM990.89,1079.26c-11.9-2.73-14.31,3.87-21.07,10.75-253.73,258.45-314.88,691.73-214.7,1029.3,7.13,24.03,52.05,160.89,69.34,164.64,16.23-2.6,25.45-25.04,32.97-37.76,51.3-86.71,89.89-189.45,140.16-278.01l-6.69-888.92ZM2550.5,2354.85c-9.59,5.09-11.97,5.61-14.1,17.66-7.04,39.86,4.96,96.23-.04,138.22,25.8,2.93,42.61-24.54,56.68-42.49,11.79-15.04,76.25-108.57,63.78-120.44-30.33,3.02-79.65-7.11-106.31,7.05ZM1926.67,2354.85l-311.84-.04-.43,301.57,14.11,184.34c98.28,18.08,200.24,13.32,298.16-3.97v-481.9ZM2359.1,2354.85h-248.11v432.29c49.47-2.06,226.87-81.58,244.42-120.62l3.69-311.67ZM1196.5,2376.11c11.4,60.59-18.13,269.43,7.09,311.82,17.03,28.62,223.72,123.22,241.02,106.33,6.25-34.75-6.36-70.21-7.38-102.49-3.01-95.16,7.06-197.41.61-291.16-.6-8.7-2.21-36.64-12.13-38.96l-224.76,8.49-4.46,5.97ZM1005.1,2390.28c-6.96,2.3-15.38-7.09-17.72-7.09h-109.88c4.41,23.61,23.1,46.61,36.76,66.01,10.01,14.22,80.98,106.96,97.9,89.86,5.43-11.66-7.05-26.72-7.05-31.86v-116.93Z"/>
      <path class="cls-19" d="M523.2,2751.7c-22.02-64.48-158.04-178.99-74.61-240.97,26.9-19.98,49.76-22.9,81.51-14.16-9.4-71.56,68.63-125.76,131.23-85.08,19.28,12.53,126.28,155.65,123.88,166.06l-262,174.15ZM605.97,2469.55c-58.17,17.94,5.41,100.36,26.85,125.82l67.12-52.1c-31.18-27.41-41.78-89.81-93.97-73.72ZM549.42,2555.39c-21.49-18.05-61.29-9.67-61.54,23.22-.19,25.8,31,59.59,46.52,80.48l58.86-38.44c-17.16-13.12-30.86-54.35-43.85-65.25Z"/>
      <path class="cls-5" d="M2585.94,3006.72c-3.36-4.83,41.9-43.58,50.06-46.33,13.64-4.59,32.65,19.59,65.46,9.53,13.16-4.03,43.11-39.29,46.17-53.28,10.24-46.78-40.94-127.65-87.63-136.27-62.56-11.55-114.66,45.28-88.17,105.95,45.13-18.45,58.87-64.37,90.34,3.66l-101.22,81.77-109.7-131.22c22.92-19.67,38.04-36.05,63.72-10.88-6.59-35.28,22.68-69.33,50.15-88.13,134.17-91.84,311.75,78.96,237.39,216.05-43.43,80.06-142.95,101.63-216.57,49.13Z"/>
      <path class="cls-5" d="M883.11,513.79c103.59-10.36,208.31,126.07,165.85,223.04-22.69,51.82-112.77,106.49-160.11,136.34l-188.46-243.99c54.65-33.96,116.17-108.74,182.72-115.39ZM879.92,750.84c4.4,4.8,35.8,29.22,40.48,28,71.78-38.58,98.31-92.72,38.19-159.83-55.19-61.61-117.13-35-165.87,17.29,34.5,30.11,58.29,83.02,87.2,114.53Z"/>
      <path class="cls-13" d="M2826.97,2652.56l155.84,123.94-44.95,45.5-245.6-180.27c-2.46-10.4,40.79-50.41,53.33-52.84,60.38-11.71,158.11,24.29,223.16,13.92l-145.84-113.32,25.46-56.65,254.95,187.76-53.14,53.22-223.2-21.26Z"/>
      <path class="cls-11" d="M3046.76,2255.71l198.5,63.8-24.52,62.01-287.17-90.91c2.56-21.62,6.15-57.61,25.85-69.1,42.36-24.71,162.84-34.39,214.92-50.97,2.16-17.33-.05-11.26-9.92-14.86-52.96-19.32-114.56-29.98-167.43-52.49l-6-12.68,13.46-47.25,296.87,96.01c-7.84,21.47-8.36,48.83-29.62,61.34-47.62,28.01-167.85,37.38-224.95,55.08Z"/>
      <path class="cls-1" d="M620.43,754.93c154.48-24.76,294.15,189.44,124.77,294.8-115.94,72.12-271.38-38.55-250.05-172.07,8.7-54.47,70.66-113.98,125.28-122.73ZM589.38,970.39c100.95,101.45,227.02-15.07,128.92-111.16-108.19-105.97-217.86,21.78-128.92,111.16Z"/>
      <path class="cls-11" d="M2250.36,431.91c-9.81,9.59-26.16,16.56-40.14,16.66,3.47,21.64,20.1,27.82,21.76,53.21,2.05,31.5-15.41,70.1-14.69,102.66l-63-14.98c16.81-103.88,23.1-126.52-89.73-147.4l-32.15,112.2-70.34-13.74,78.08-297.59c60.2,19.96,212.13,28.1,230.52,99.04,7.41,28.56,1.36,68.77-20.31,89.94ZM2075.5,398.88c39.16-.76,107.17,41.2,124.5-13.85,19.85-63.05-68.3-63.14-110.28-71.22l-14.22,85.07Z"/>
      <path class="cls-6" d="M508.63,1844.19l-106.29,32.11c-13.46,13.22-9.12,108.52,4.6,110.52l116.07-14.68,7.08,70.85-311.9,28.43c2.24-64.32-23.8-138.34-13.76-201.61,10.62-66.87,123.54-88.65,151.98-25.24,29.04-60.12,95.73-41.45,145.29-70.84l6.92,70.46ZM352.89,1993.37c-14.31-35.78,7.87-117.1-46.62-120.3-64.83-3.81-46.12,87.43-38.39,127.46l85.01-7.16Z"/>
      <path class="cls-14" d="M331.61,1454.86l-7.86,62.96c-33.58,1.87-54.09,25.12-60.14,57.28-19.01,101.03,156.17,136.31,198.6,56.36,22.72-42.81,2.09-109.41-52.55-105.79l-6.67,60.83-50.08-4.17,14.22-127.52,170.1,21.31-3.05,35.88-32.38,6.63c6.31,24.05,25.69,41.1,28.03,68.16,13.66,157.82-208.73,212.22-297.38,91.22-64.97-88.68-16.87-223.67,99.18-223.16Z"/>
      <path class="cls-6" d="M3309.05,1447.7c-1.89,85.2,74.41,270.72-74.65,262.73-36.65-1.96-38.97-19.81-67.03-28.79-16.93,60.55-95.35,36.3-134.75,70.83l-4.11-71.15c12.3-17.94,88.54-8.6,105.11-43.91,14.67-31.25-8.08-64.67-1.79-97.59l-127.61,14.23-7.1-70.85,311.93-35.51ZM3259.1,1518.76c-15.74,7.15-80.21,1.92-82.9,17.23,9.89,28.6,2.36,98.6,38.75,108.93,83.08,8.05,54.45-74.56,44.16-126.17Z"/>
      <path class="cls-17" d="M2791.39,717.75l-62.93-45.88c52.6-59.22-92.4-133.2-70.14-44.48,12.79,50.97,148.63,139.05,37.53,210.91-100.5,65-279.07-105.68-171.19-190.8l43.97,34.87c4.43,8.63-5.37,31.12-4.47,45.92,2.71,44.92,81.38,97.26,96.92,39.29,12.94-48.27-144.2-140.82-50.4-219.95,90.61-76.43,258.38,67.48,180.72,170.12Z"/>
      <path class="cls-14" d="M422.08,2108.68c184.99-26.55,246.94,221.71,79.62,292.15-236.17,99.43-326.34-256.75-79.62-292.15ZM421.95,2179.38c-46.31,8.02-95.76,49.05-88.91,99.15,15.49,113.25,186.33,71.41,202.66.43,19.3-83.9-39.45-112.45-113.75-99.59Z"/>
      <path class="cls-14" d="M3059.05,1109.28c200.68-31.92,262.7,239.13,65.45,299.28-225.06,68.64-285.83-264.24-65.45-299.28ZM3006.68,1209.28c-93.02,87.45,44.47,201.6,149.85,103.73,94.86-88.1-50.04-197.56-149.85-103.73Z"/>
      <path class="cls-15" d="M1769.07,216.42c213.28-26.27,233.76,315.1,26.11,324.44-199.71,8.98-216.46-300.99-26.11-324.44ZM1776.14,272.7c-97.4,14.22-98.48,218.98,18.51,210.95,109.13-7.49,99.54-228.18-18.51-210.95Z"/>
      <polygon class="cls-14" points="3337.41 1802.04 3323.16 2035.91 3266.54 2028.79 3273.61 1865.82 3209.74 1865.82 3202.63 2014.66 3145.94 2007.57 3159.99 1858.94 3082.14 1851.65 3075.12 2014.72 3011.27 2014.65 3032.61 1780.88 3337.41 1802.04"/>
      <path class="cls-13" d="M1252.93,405.64c-16.03-.34-35.2,19.51-47.12,20.57-12.28,1.09-17.73-15.45-28.46-18.85-50.49-16-115.14,40.64-73.06,66,43.48,26.22,199.23-69.41,223.92,59.9,22.46,117.65-212.39,202.61-244.84,71.49l51.88-20.52c30.31,53.88,142.18,19.29,129.33-36.88-9.55-41.77-113.15-4.89-149.82-6.32-109.35-4.24-110.35-126.84-23.76-173.2,57.8-30.95,145.7-39.06,161.93,37.81Z"/>
      <path class="cls-28" d="M1685.68,3169.91c7.59,13.67,24.78,16.23,35.41,31.78,18.18,26.58,15.9,52.48,2.74,80.78-38.93,83.74-212.34,62.28-222.71-31.02-4.66-41.92,11.82-83.76,56.92-88.77l-.07-10.47c-120.6-155.68,213.53-187.86,175.76-22.82-4.81,21.04-25.61,42.07-48.06,40.53ZM1602.63,3072.78c-61.16,49.71,63.25,116.13,75.96,43.54,7.93-45.32-45.24-68.51-75.96-43.54ZM1591.42,3192.63c-37.7,11.06-37.58,81.99,5.77,90.37,12.73,2.46,41.79,2.39,53.12-3.23,46.55-47.19,1.96-105-58.9-87.14Z"/>
      <path class="cls-14" d="M1423.33,462.72l21.13,113.17-62.86,6.47-63.92-292.34c2.53-9.56,9.79-9.2,17.35-11.32,71.5-20.07,189.45-58.37,231.51,23.11,54.41,105.4-53.28,158.48-143.21,160.91ZM1409.22,413.09c38.58-11.2,99.96-7.64,99.96-60.26.01-66.95-72.71-39.3-113.99-31.65l14.02,91.91Z"/>
      <polygon class="cls-17" points="905.77 3091.86 844.26 3046.02 912.91 2850.96 738.04 2963.34 679.15 2918.24 958.77 2744.38 1017.08 2790.48 905.77 3091.86"/>
      <path class="cls-25" d="M1777.79,3269.11c58.1-29.6,62.98,26.16,96.25,28.17,47.77,2.89,56.61-56.51,59.64-92.02-169.19,144.22-252.44-186.08-52.99-177.64,102.28,4.33,120.26,127.5,109.16,208.91-16.18,118.65-177.86,158.63-212.06,32.57ZM1860.98,3078.97c-52.67,11.12-48.69,126.1,25.01,110.87,56.99-11.78,39.77-124.55-25.01-110.87Z"/>
      <path class="cls-14" d="M2084.29,3043.95c-9.74,9.7-22.35,75.72-15.8,83.33,24.03-8.26,29.06-29.98,57.92-37.68,147.03-39.23,172.32,174.63,55.67,204.45-204.89,52.38-233.59-371.09-21.09-305.31,33.75,10.45,77.9,65.3,9.33,67.61-19.62.66-54.59-43.7-86.03-12.4ZM2180.07,3238.81c36.39-34.27.27-122.11-53.04-99.05-75.36,32.6,1.47,147.62,53.04,99.05Z"/>
      <path class="cls-1" d="M3131.8,1001.15l-49.64,25.4-88.48-116.12-52.88,37.58,69.82,100.49c-52.03,81.4-77.44-35.46-116.2-68.13l-99.47,63.5c-10.75.05-46.38-34.78-46.36-46.19.03-15.93,233.36-156.76,262.55-180.66l120.67,184.13Z"/>
      <polygon class="cls-13" points="501.78 1220.84 612.27 1270.28 583.44 1333.58 310.86 1206.22 396.01 1008.83 450.51 1032.87 389.09 1160.86 452.28 1189.63 508.59 1082.29 557.77 1103.9 501.78 1220.84"/>
      <path class="cls-1" d="M2600.11,448.6l-25.72,50.08-94.69-36.01-106.52,219.69-60.69-28.18,110.33-223.49-74.79-38.82c-9.55-14.93,9.71-40,17.97-53.75l234.09,110.48Z"/>
      <path class="cls-10" d="M650.52,2872.14l-10.3-.11c-9.34-13.45-52.14-39.09-43.16-56.48l212.87-198.92c16.21-17.73,64.05,36.96,57.35,49.98-7.56,14.68-110.26,105.55-131.47,124.18-28.29,24.85-72.64,44.83-85.3,81.35Z"/>
      <path class="cls-14" d="M1359.53,3276.1l56.98-194.47-68.19-24.92,11.31-42.85c39.64,15.34,84.23,12.81,103.76-28.83,18.9,4.92,47.02,3.87,42.27,29.07-16.33,86.6-63.39,182.9-85.97,269.4l-60.15-7.4Z"/>
      <path class="cls-14" d="M3181.42,2468.35c-14.6,20.93-17.49,64.92-51.41,55.25l-241.91-127.15c-26.59-5.06,15.71-68.88,20.25-69.22l273.07,141.12Z"/>
      <path class="cls-10" d="M2328.78,3000.78c53.64-14.54,64.2,89.98-7.23,68.43-32.1-9.68-21.24-60.71,7.23-68.43Z"/>
      <path class="cls-10" d="M1162.79,3061.77c-29.38-29.84,6.98-83.18,47.96-58.53,39.61,23.82-14.52,92.5-47.96,58.53Z"/>
      <path class="cls-18" d="M2933.3,1894.21v-212.6c.94-.04,7.18-11.99,7.12-3.53-4.56,61.95,5.88,131.18.44,192.07-1.22,13.66-7.26,21.81-7.56,24.06Z"/>
      <path class="cls-18" d="M608.12,1887.12c-10.12,19.13-7.08-12.3-7.09-17.66-.06-53.18-.22-100.75,7.09-152.42v170.08Z"/>
      <path class="cls-21" d="M990.89,1079.26l6.69,888.92c-50.26,88.56-88.85,191.3-140.16,278.01-7.52,12.72-16.74,35.16-32.97,37.76-17.29-3.75-62.21-140.61-69.34-164.64-100.18-337.57-39.03-770.85,214.7-1029.3,6.76-6.89,9.17-13.48,21.07-10.75Z"/>
      <path class="cls-23" d="M2564.68,1065.05c41.33,57.03,86.44,111.08,123.47,170.67,140.25,225.76,185.82,543.91,122.57,801.68-17.96,73.21-50.21,140.91-76,211.12-13,3.05-13.75-4.39-20.05-11.73-32.56-37.95-153.88-239.89-171.26-285.89,8.04-11.8,6.98-25.14,7.38-38.62,8.19-272.36-11.05-550.95-.29-822.74.54-13.66-7.29-28.43,14.18-24.48Z"/>
      <path class="cls-16" d="M1926.67,2354.85v481.9c-97.93,17.29-199.88,22.05-298.16,3.97l-14.11-184.34.43-301.57,311.84.04Z"/>
      <path class="cls-2" d="M2352.01,894.97l-14.18,701.59c-81.59-135.04-164.36-269.42-241.03-407.49v-421.66c34.63,1.21,72.44,19.44,104.06,34.17,23.53,10.96,147.33,77.16,151.14,93.4Z"/>
      <path class="cls-2" d="M1217.77,1596.56l-21.28-17.37.02-684.22c37.53-49.58,162.65-87.36,217.41-119.5l16.53,9.66v439.38c-71.06,123.72-143.98,247.12-212.67,372.06Z"/>
      <path class="cls-4" d="M2359.1,2354.85l-3.69,311.67c-17.55,39.05-194.95,118.56-244.42,120.62v-432.29h248.11Z"/>
      <path class="cls-4" d="M1196.5,2376.11l4.46-5.97,224.76-8.49c9.92,2.31,11.53,30.26,12.13,38.96,6.45,93.75-3.62,196-.61,291.16,1.02,32.29,13.63,67.75,7.38,102.49-17.3,16.89-224-77.71-241.02-106.33l-7.09-311.82Z"/>
      <path class="cls-22" d="M912.94,2269.81c7.36,11.75,26.89,7.06,38.89,7.21,568.14,7.05,1136.91-5.53,1705-.12,16.62-1.94,29.09,2.92,28.36,21.26l-1790.08.11-17.61-7.2,9.39.16c8.66-18.03,14.63-15.32,26.05-21.42Z"/>
      <path class="cls-9" d="M1437.53,1320.17c1.98-3.52.41-17.2,5.43-26.13,106.86-190.09,209.95-384.21,324.21-569.02,87.36,144.33,174.46,289.04,259.97,434.47,44.34,75.43,76.33,148.88,126.12,215.6l.26,15.95-7.09,14.17c-124.79-211-248.34-423.24-379.26-630.59-112.42,172.22-205.33,357.61-306.97,536.65-4.94,8.7-14.26,13.67-15.58,15.99l-7.09-7.09Z"/>
      <path class="cls-29" d="M1444.62,1327.26c-145.82,257.01-289.37,516.56-433.65,774.79-21.54,38.55-61.95,136.7-83.29,163.38-6.49,8.11-12.19,3.01-14.74,4.37-11.42,6.1-17.39,3.39-26.05,21.42l-9.39-.16c179.46-317.65,360.88-634.22,539.91-952.22,5.86-10.41,18.93-16.57,20.12-18.67l7.09,7.09Z"/>
      <path class="cls-29" d="M2153.51,1391.04c109.37,167.72,215.15,343.06,317.87,514.93,77.06,128.93,152.73,258.7,227.92,388.71l-14.11,3.47c.73-18.34-11.73-23.2-28.36-21.26-169.66-290.72-339.06-581.96-510.41-871.68l7.09-14.17Z"/>
      <path class="cls-24" d="M2564.68,1065.05c-21.47-3.95-13.64,10.82-14.18,24.48-10.76,271.79,8.48,550.38.29,822.74-.41,13.49.66,26.83-7.38,38.62-2.27-6-11.4-12.72-7.58-24.02l.53-875.97c19.47-3.17,19.64,2.17,28.32,14.14Z"/>
      <path class="cls-27" d="M1005.1,2390.28v116.93c0,5.13,12.48,20.19,7.05,31.86-16.91,17.1-87.89-75.64-97.9-89.86-13.65-19.41-32.35-42.4-36.76-66.01h109.88c2.34,0,10.76,9.39,17.72,7.09Z"/>
      <path class="cls-7" d="M2550.5,2354.85c26.66-14.16,75.98-4.03,106.31-7.05,12.47,11.87-51.99,105.4-63.78,120.44l-42.5,21.22-.04-134.61Z"/>
      <path class="cls-4" d="M1607.66,735.51c5.39-16.88,66.03-20.21,81.76-17.75,10.02,1.57,11.66-4.2,10.7,10.86-1.78,28.08-70.25,135.03-92.46,159.26v-152.37Z"/>
      <path class="cls-16" d="M1919.58,873.71c-26.64-23.5-91.23-122.39-92.4-152.25-.61-15.52,4.6-11.72,17.13-10,25.21,3.45,57.66,5.71,75.27,24.06v138.19Z"/>
      <path class="cls-3" d="M1196.5,894.97l-.02,684.22,21.28,17.37c-8.53,15.51-17.66,31.98-21.35,49.55l-7,.05v-676.79c0-28.27-21.55-36.57,7.09-74.41Z"/>
      <path class="cls-8" d="M2352.01,894.97l.03,719.28c-11.08,9.12-12.48-14.83-14.21-17.69l14.18-701.59Z"/>
      <path class="cls-24" d="M2550.5,2354.85l.04,134.61,42.5-21.22c-14.07,17.95-30.88,45.42-56.68,42.49,5-41.99-7-98.36.04-138.22,2.13-12.05,4.51-12.57,14.1-17.66Z"/>
      <path class="cls-18" d="M1203.59,2687.93c-25.22-42.39,4.31-251.23-7.09-311.82l7.09,311.82Z"/>
      <path class="cls-21" d="M605.97,2469.55c52.2-16.1,62.79,46.3,93.97,73.72l-67.12,52.1c-21.44-25.46-85.02-107.88-26.85-125.82Z"/>
      <path class="cls-21" d="M549.42,2555.39c12.99,10.91,26.69,52.14,43.85,65.25l-58.86,38.44c-15.53-20.88-46.71-54.68-46.52-80.48.24-32.89,40.04-41.27,61.54-23.22Z"/>
      <path class="cls-27" d="M879.92,750.84c-28.9-31.51-52.7-84.42-87.2-114.53,48.74-52.29,110.68-78.9,165.87-17.29,60.11,67.11,33.59,121.24-38.19,159.83-4.68,1.22-36.08-23.2-40.48-28Z"/>
      <path class="cls-23" d="M589.38,970.39c-88.94-89.39,20.73-217.13,128.92-111.16,98.1,96.09-27.97,212.62-128.92,111.16Z"/>
      <path class="cls-20" d="M2075.5,398.88l14.22-85.07c41.98,8.08,130.13,8.18,110.28,71.22-17.33,55.05-85.34,13.08-124.5,13.85Z"/>
      <path class="cls-23" d="M352.89,1993.37l-85.01,7.16c-7.73-40.03-26.45-131.27,38.39-127.46,54.49,3.2,32.31,84.52,46.62,120.3Z"/>
      <path class="cls-26" d="M3259.1,1518.76c10.29,51.61,38.92,134.22-44.16,126.17-36.39-10.33-28.85-80.33-38.75-108.93,2.7-15.32,67.17-10.08,82.9-17.23Z"/>
      <path class="cls-4" d="M421.95,2179.38c74.3-12.86,133.05,15.68,113.75,99.59-16.33,70.98-187.16,112.82-202.66-.43-6.86-50.11,42.6-91.14,88.91-99.15Z"/>
      <path class="cls-20" d="M3006.68,1209.28c99.82-93.84,244.71,15.63,149.85,103.73-105.39,97.87-242.88-16.28-149.85-103.73Z"/>
      <path class="cls-22" d="M1776.14,272.7c118.05-17.23,127.64,203.46,18.51,210.95-116.99,8.03-115.91-196.73-18.51-210.95Z"/>
      <path class="cls-22" d="M1591.42,3192.63c60.86-17.86,105.45,39.95,58.9,87.14-11.33,5.62-40.4,5.69-53.12,3.23-43.35-8.38-43.47-79.31-5.77-90.37Z"/>
      <path class="cls-26" d="M1602.63,3072.78c30.72-24.97,83.89-1.78,75.96,43.54-12.71,72.59-137.12,6.17-75.96-43.54Z"/>
      <path class="cls-4" d="M1409.22,413.09l-14.02-91.91c41.27-7.65,114-35.3,113.99,31.65,0,52.62-61.38,49.06-99.96,60.26Z"/>
      <path class="cls-16" d="M1860.98,3078.97c64.78-13.68,82,99.1,25.01,110.87-73.7,15.23-77.68-99.75-25.01-110.87Z"/>
      <path class="cls-23" d="M2180.07,3238.81c-51.57,48.57-128.4-66.45-53.04-99.05,53.31-23.06,89.43,64.78,53.04,99.05Z"/>
      <path class="cls-1" d="M2146.43,1405.22c171.35,289.72,340.75,580.96,510.41,871.68-568.09-5.41-1136.86,7.17-1705,.12-12-.15-31.53,4.54-38.89-7.21,2.55-1.36,8.26,3.74,14.74-4.37,21.33-26.68,61.75-124.83,83.29-163.38,144.28-258.23,287.83-517.78,433.65-774.79,1.32-2.32,10.64-7.29,15.58-15.99,101.64-179.04,194.55-364.43,306.97-536.65,130.92,207.36,254.47,419.59,379.26,630.59ZM2600.12,2248.55l-832.95-1417.43-783.33,1417.43h1616.29Z"/>
      <path class="cls-22" d="M2600.12,2248.55H983.83l783.33-1417.43,832.95,1417.43ZM1806.19,1766.61c6.86-111.21,142.03-123.26,185.77-228.79,43.65-105.3-43.52-210.59-157.85-186.15-40.19,8.59-49.12,41.54-100.77,30.71-16.39-3.44-32.3-19.43-47.47-23.41-101.13-26.54-182.5,68.29-150.75,164.85,12.72,38.68,89.73,109.87,122.06,140.17,16.9,15.84,135.04,90.33,72.95,108.55-41.27,12.11-107.27-72.52-140.4-97.81-45.43-34.67-84.04-61.39-145.63-46.76-27.29,6.48-68.86,34.8-81.09,60.63-47.09,99.45,42.45,134.6,31.58,208.68-3.48,23.71-22.15,41.25-21.17,71.11,3.24,99.12,120.61,115.85,194.1,80.56,90.77-43.59,124.35-194.49,183.75-220.21,61.58-26.67,82.58,63.26,108.54,100.45,55.82,79.96,114.04,135.47,218.82,120.48,27.35-3.91,74.69-49.71,80.5-75.45,14.89-65.9-27.08-114.77-23.36-144.73,3.19-25.72,30.76-44.44,40.51-64.86,26.01-54.49-4.06-140.5-63.62-159.05s-115.08,18.07-160.95,54.99c-19.84,15.97-122.57,129.51-145.5,106.06ZM1784.78,1851.72c-5.55-3.58-18.73-.53-24.54,7.22-10.33,13.79-16.27,100.38-29.91,133.1-8.08,19.39-22.2,32.15-30.51,50.93,64.95,16,98.76-55.21,99.18-109.8.07-9.53-10.75-79.2-14.22-81.44Z"/>
      <path class="cls-25" d="M1806.19,1766.61c22.92,23.45,125.66-90.09,145.5-106.06,45.87-36.93,100.94-73.68,160.95-54.99s89.64,104.56,63.62,159.05c-9.75,20.42-37.32,39.14-40.51,64.86-3.72,29.96,38.26,78.83,23.36,144.73-5.82,25.75-53.16,71.54-80.5,75.45-104.78,14.99-163-40.53-218.82-120.48-25.96-37.19-46.96-127.11-108.54-100.45-59.4,25.72-92.97,176.62-183.75,220.21-73.49,35.29-190.86,18.56-194.1-80.56-.98-29.86,17.69-47.4,21.17-71.11,10.88-74.07-78.66-109.23-31.58-208.68,12.23-25.83,53.8-54.14,81.09-60.63,61.59-14.63,100.2,12.09,145.63,46.76,33.13,25.28,99.13,109.91,140.4,97.81,62.09-18.22-56.05-92.71-72.95-108.55-32.33-30.3-109.34-101.49-122.06-140.17-31.75-96.56,49.62-191.39,150.75-164.85,15.17,3.98,31.08,19.97,47.47,23.41,51.65,10.83,60.57-22.12,100.77-30.71,114.33-24.43,201.5,80.85,157.85,186.15-43.75,105.53-178.91,117.58-185.77,228.79ZM1848.53,1440.97c-58.51-37.24-62.49,138.68-88.4,141.26-35.35-6.72-41.22-132.43-54.18-140.65l-34.46-.89c-8.59,7.7,61.9,212.64,71.72,218.7,12.26,7.56,29.86-2.2,37.79-13.56,6.52-9.33,74.01-196.24,67.52-204.86ZM1955.02,1741.84v209.06c68.46,25.63,27.65-66.75,49.44-88.76,17.03-17.19,62.23-8.46,85.28-10.48l-1.11-27.2c-38.1-18.63-93.28,25-95.09-43.58,14.12-28.28,115.44-1.61,117.12-31.87,2.18-39.39-113.56-11.98-137.92-17.8l-17.72,10.63ZM1480.06,1752.47l-7.27,10.16.18,195.36c54.97,35.82,32.78-26.83,35.56-52.42,5.01-46.2,65.12-38.94,99.17-39.74l-.69-27.65c-11.55-13.78-124.72,25.9-92.08-52.73,35.8-20.93,75.18.9,113.98-18.88,2.15-13.61-5.59-18.92-17.74-21.14-21.31-3.89-112.83-1.4-131.1,7.04Z"/>
      <path class="cls-6" d="M1784.78,1851.72c3.47,2.24,14.29,71.91,14.22,81.44-.42,54.6-34.23,125.8-99.18,109.8,8.31-18.78,22.42-31.53,30.51-50.93,13.63-32.72,19.58-119.31,29.91-133.1,5.81-7.75,18.99-10.79,24.54-7.22Z"/>
      <path class="cls-26" d="M1955.02,1741.84l17.72-10.63c24.36,5.82,140.1-21.59,137.92,17.8-1.68,30.25-103,3.58-117.12,31.87,1.81,68.58,56.99,24.94,95.09,43.58l1.11,27.2c-23.05,2.03-68.25-6.71-85.28,10.48-21.8,22.01,19.02,114.4-49.44,88.76v-209.06Z"/>
      <path class="cls-26" d="M1848.53,1440.97c6.49,8.61-61,195.53-67.52,204.86-7.93,11.35-25.53,21.12-37.79,13.56-9.82-6.05-80.31-211-71.72-218.7l34.46.89c12.96,8.22,18.83,133.93,54.18,140.65,25.91-2.58,29.89-178.5,88.4-141.26Z"/>
      <path class="cls-9" d="M1480.06,1752.47c18.27-8.44,109.79-10.93,131.1-7.04,12.15,2.22,19.89,7.52,17.74,21.14-38.8,19.79-78.18-2.04-113.98,18.88-32.63,78.63,80.54,38.95,92.08,52.73l.69,27.65c-34.04.8-94.15-6.46-99.17,39.74-2.78,25.59,19.41,88.24-35.56,52.42,16.25-65.01,2.71-138.47,7.09-205.52Z"/>
      <path class="cls-8" d="M1472.97,1957.99l-.18-195.36,7.27-10.16c-4.38,67.04,9.16,140.51-7.09,205.52Z"/>
    </g>
  </g>
</svg>