<svg width="1591" height="513" viewBox="0 0 1591 513" fill="none" xmlns="http://www.w3.org/2000/svg">
<path d="M0 265H43V451H0V265Z" fill="#0048FF"/>
<rect x="201" y="265" width="86" height="186" fill="#0048FF"/>
<rect x="447" y="265" width="86" height="186" fill="#0048FF"/>
<rect x="811" y="265" width="86" height="186" fill="#0048FF"/>
<rect x="1186" y="265" width="86" height="186" fill="#0048FF"/>
<rect x="79" y="265" width="86" height="186" fill="#0048FF"/>
<rect x="323" y="265" width="86" height="186" fill="#0048FF"/>
<rect x="687" y="265" width="86" height="186" fill="#0048FF"/>
<rect x="1062" y="265" width="86" height="186" fill="#0048FF"/>
<rect x="569" y="265" width="86" height="186" fill="#0048FF"/>
<rect x="933" y="265" width="86" height="186" fill="#0048FF"/>
<rect x="1308" y="265" width="86" height="186" fill="#0048FF"/>
<rect x="1428" y="265" width="86" height="186" fill="#0048FF"/>
<rect x="1548" y="265" width="43" height="186" fill="#0048FF"/>
<rect x="15" y="451" width="86" height="62" fill="#0048FF"/>
<rect x="259" y="451" width="86" height="62" fill="#0048FF"/>
<rect x="505" y="451" width="86" height="62" fill="#0048FF"/>
<rect x="869" y="451" width="86" height="62" fill="#0048FF"/>
<rect x="1244" y="451" width="86" height="62" fill="#0048FF"/>
<rect x="139" y="451" width="86" height="62" fill="#0048FF"/>
<rect x="383" y="451" width="86" height="62" fill="#0048FF"/>
<rect x="747" y="451" width="86" height="62" fill="#0048FF"/>
<rect x="1122" y="451" width="86" height="62" fill="#0048FF"/>
<rect x="629" y="451" width="86" height="62" fill="#0048FF"/>
<rect x="993" y="451" width="86" height="62" fill="#0048FF"/>
<rect x="1368" y="451" width="86" height="62" fill="#0048FF"/>
<rect x="1488" y="451" width="86" height="62" fill="#0048FF"/>
</svg>
