<svg width="930" height="184" viewBox="0 0 930 184" fill="none" xmlns="http://www.w3.org/2000/svg">
<path d="M929.878 142.191H899.247V134.43C880.172 155.272 847.661 140.688 840.441 113.096C831.384 78.3836 852.253 44.3859 884.615 49.2639C890.019 50.0768 894.74 54.1172 898.862 57.8126L899.247 50.9146H929.878V142.191ZM884.166 76.9546C866.159 78.4081 864.728 108.735 879.296 114.82C904.501 125.34 908.709 74.9837 884.166 76.9546Z" fill="#F6F6F6"/>
<path d="M43.8833 62.9869C52.0644 62.8391 61.4844 61.7058 60.331 49.6342C59.8824 44.9041 55.3753 40.0262 51.3809 39.2625C39.7607 37.0945 34.1002 43.5245 29.9349 55.2758L0.542714 50.9399C1.80299 30.2211 14.0853 14.6019 31.3447 9.37909C52.1072 3.0723 80.8158 7.80245 88.5056 34.3846L90.9407 46.6286V9.60088H171.62V42.3173H121.572V67.2735H164.891V99.1277H121.572V141.305H90.9407V106.001L88.7192 115.929C84.682 129.947 75.0271 139.432 62.5525 142.61C34.7197 149.705 3.74681 137.782 0.5 101.37L29.9776 95.6295C32.7118 105.459 36.6421 112.604 46.532 112.924C67.0168 113.614 64.0691 84.297 43.8833 88.7807V62.9622V62.9869ZM90.7484 55.4236C83.1654 56.1873 74.6639 69.7617 70.0928 76.2163C77.0563 83.2869 82.8237 97.0338 93.5894 95.7281C102.71 94.6195 105.38 82.7202 98.481 76.2163C105.893 67.372 101.835 54.315 90.7484 55.4236Z" fill="#F6F6F6"/>
<path d="M748.334 143.054C762.731 155.963 798.787 165.251 798.382 133.593C786.121 147.439 765.23 145.419 752.456 133.593C729.002 111.84 733.809 61.829 763.863 51.2109C775.782 46.9982 789.965 47.9096 798.382 59.587V50.9891H829.013V145.271C829.013 146.453 826.364 154.435 825.68 156.061C811.988 188.359 773.197 189.566 748.334 174.957V143.103V143.054ZM781.015 76.9553C766.127 79.9363 764.675 108.046 779.136 114.008C788.513 117.876 798.531 112.234 799.813 100.335C801.372 85.7997 794.622 74.2454 781.015 76.9553Z" fill="#F6F6F6"/>
<path d="M291.153 16.4734V51.7767C288.29 50.3971 285.727 47.9088 282.95 46.1597C272.163 39.3109 255.288 32.6593 243.113 39.04C237.196 42.1441 236.085 50.3725 242.066 54.5359C258.791 66.2134 294.463 62.5919 297.796 95.3577C303.435 150.986 236.961 153.178 207.483 132.287V97.4272C211.627 98.9299 214.639 103.118 218.185 105.311C228.887 111.913 248.73 117.702 260.372 113.169C268.254 110.115 269.6 101.615 262.252 96.7126C244.501 84.8627 210.709 86.7844 206.928 54.5853C200.926 3.39184 262.957 -1.58467 291.153 16.4981V16.4734Z" fill="#F6F6F6"/>
<path d="M401.717 57.814L432.711 48.3291L433.459 58.6762C441.746 47.0727 458.429 46.9742 469.686 52.2463C497.263 65.1309 501.663 112.678 479.427 134.038C466.867 146.084 444.502 149.065 433.095 133.594V180.082H401.717V57.814ZM444.887 76.9315C422.073 79.2719 429.016 125.784 452.79 114.526C468.469 107.086 464.047 74.9606 444.887 76.9315Z" fill="#F6F6F6"/>
<path d="M338.211 50.916V107.308C338.211 111.348 345.067 115.339 348.293 115.339C351.518 115.339 358.375 111.348 358.375 107.308V50.916H389.754V109.032C389.754 109.722 388.237 116.004 387.874 117.187C375.271 158.427 306.832 148.844 306.832 108.17V50.916H338.211Z" fill="#F6F6F6"/>
<path d="M579.521 106.027H527.23C534.92 126.992 559.954 118.098 573.54 110.338V135.738C561.193 145.617 539.598 146.134 525.564 141.084C488.076 127.583 487.82 66.6339 524.047 52.0002C556.772 38.7707 585.886 66.7078 579.521 106.027ZM552.628 87.9439C550.748 68.4569 528.832 69.6394 526.482 87.9439H552.628Z" fill="#F6F6F6"/>
<path d="M685.598 142.191H654.967V14.7492L685.598 5.28906V142.191Z" fill="#F6F6F6"/>
<path d="M619.102 49.1912V63.825L623.972 56.0892C630.829 48.8463 639.437 47.713 648.238 50.0534V82.77C639.929 81.2918 627.454 81.3411 622.819 90.9245C622.007 92.5997 619.85 99.7687 619.85 101.296V142.192H589.219V59.1194L619.102 49.2159V49.1912Z" fill="#F6F6F6"/>
<path d="M729.664 49.1914V142.192H699.033V57.814L729.664 49.1914Z" fill="#F6F6F6"/>
<path d="M709.307 1.19821C722.487 -1.36393 734.171 7.25873 731.864 23.7648C728.916 44.8778 693.735 43.3503 696.042 16.9159C696.683 9.67297 703.091 2.40537 709.286 1.19821H709.307Z" fill="#F6F6F6"/>
</svg>
