<svg width="1854" height="323" viewBox="0 0 1854 323" fill="none" xmlns="http://www.w3.org/2000/svg">
<g opacity="0.2">
<path d="M0 0H66.2143V242.25H0V0Z" fill="#0048FF"/>
<rect x="246.591" width="98.1798" height="242.25" fill="#0048FF"/>
<rect x="527.432" width="98.1798" height="242.25" fill="#0048FF"/>
<rect x="942.983" width="98.1798" height="242.25" fill="#0048FF"/>
<rect x="1371.09" width="98.1798" height="242.25" fill="#0048FF"/>
<rect x="107.312" width="98.1798" height="242.25" fill="#0048FF"/>
<rect x="385.869" width="98.1798" height="242.25" fill="#0048FF"/>
<rect x="385.869" width="98.1798" height="242.25" stroke="black"/>
<rect x="801.421" width="98.1798" height="242.25" fill="#0048FF"/>
<rect x="1229.53" width="98.1798" height="242.25" fill="#0048FF"/>
<rect x="666.709" width="98.1798" height="242.25" fill="#0048FF"/>
<rect x="1082.26" width="98.1798" height="242.25" fill="#0048FF"/>
<rect x="1510.37" width="98.1798" height="242.25" fill="#0048FF"/>
<rect x="1647.37" width="98.1798" height="242.25" fill="#0048FF"/>
<rect x="1784.36" width="69.6392" height="242.25" fill="#0048FF"/>
<rect x="34.248" y="242.25" width="98.1798" height="80.75" fill="#0048FF"/>
<rect x="312.806" y="242.25" width="98.1798" height="80.75" fill="#0048FF"/>
<rect x="593.645" y="242.25" width="98.1798" height="80.75" fill="#0048FF"/>
<rect x="1009.2" y="242.25" width="98.1798" height="80.75" fill="#0048FF"/>
<rect x="1437.31" y="242.25" width="98.1798" height="80.75" fill="#0048FF"/>
<rect x="175.812" y="242.25" width="98.1798" height="80.75" fill="#0048FF"/>
<rect x="454.367" y="242.25" width="98.1798" height="80.75" fill="#0048FF"/>
<rect x="869.918" y="242.25" width="98.1798" height="80.75" fill="#0048FF"/>
<rect x="1298.03" y="242.25" width="98.1798" height="80.75" fill="#0048FF"/>
<rect x="735.207" y="242.25" width="98.1798" height="80.75" fill="#0048FF"/>
<rect x="1150.76" y="242.25" width="98.1798" height="80.75" fill="#0048FF"/>
<rect x="1578.87" y="242.25" width="98.1798" height="80.75" fill="#0048FF"/>
<rect x="1715.86" y="242.25" width="98.1798" height="80.75" fill="#0048FF"/>
</g>
</svg>
