<svg width="158" height="157" viewBox="0 0 158 157" fill="none" xmlns="http://www.w3.org/2000/svg">
<path d="M89.8868 0.00588964C90.8619 0.494253 91.8489 0.670758 92.8714 1.17089C95.785 2.61244 107.393 14.3214 109.904 17.3222C112.061 19.8993 112.948 22.1882 112.676 25.6185C112.416 28.9252 109.857 31.2553 112.812 34.662C115.767 38.0688 118.622 35.6682 121.784 35.2975C123.947 35.0445 126.435 35.3269 128.385 36.3213C130.844 37.5746 143.101 49.9072 145.306 52.5785C148.722 56.7149 149.047 61.8221 145.915 66.2292C151.931 65.8349 157.102 70.1714 157.622 76.1847C158.048 81.1095 158.208 93.7776 157.475 98.4435C157.102 100.809 155.477 103.533 153.586 104.992C150.938 107.034 147.522 107.058 147.433 111.453C147.327 116.695 152.563 116.513 155.276 119.914C156.293 121.191 157.315 123.415 157.534 125.027C158.184 129.793 158.101 142.426 157.611 147.327C157.096 152.493 152.776 156.559 147.623 157H9.9999C4.83446 156.5 1.2884 152.987 0.00590686 148.098V124.797C0.685569 123.079 1.15838 121.402 2.3404 119.92C4.88765 116.719 10.0885 116.66 10.1831 111.77C10.2777 106.881 6.80844 107.14 4.03069 104.992C1.83213 103.298 0.868785 100.968 0 98.4258V75.1256C1.16429 70.6303 4.59806 66.8293 9.42071 66.2645C11.3356 66.0409 16.1346 66.6704 17.4053 65.9408C39.1722 44.5058 60.4072 22.4412 82.5878 1.47686L86.187 0H89.8809L89.8868 0.00588964ZM87.6468 9.2436L69.5797 27.1365L108.675 66.0703L131.931 66.2468C132.428 66.3115 132.747 66.1762 133.161 65.9408C133.503 65.7466 138.521 60.7512 138.687 60.3982C138.799 60.157 138.905 59.9334 138.852 59.6509L124.053 44.6058C123.202 44.2175 120.277 45.5119 118.947 45.6473C109.248 46.6534 101.341 38.9926 102.215 29.2841C102.339 27.9191 103.669 24.7418 103.291 23.9239L88.8348 9.48484C88.4861 9.16711 88.1019 9.11416 87.6528 9.23772L87.6468 9.2436ZM95.4305 66.235L62.9544 33.7383L30.4784 66.235H95.4305ZM115.743 75.4315H10.3131C10.2304 75.4315 9.56846 76.1729 9.39706 76.3553L9.29659 96.9843C10.8805 98.4846 13.0791 99.1496 14.7812 100.721C21.7374 107.146 20.8036 118.49 13.0259 123.815C12.163 124.403 9.50936 125.527 9.29659 126.233L9.39706 146.862C9.56846 147.05 10.2304 147.786 10.3131 147.786H115.743V75.4257V75.4315ZM125.288 147.792H147.298C147.38 147.792 148.042 147.05 148.214 146.868L148.314 126.239C146.73 124.739 144.532 124.074 142.829 122.503C135.873 116.077 136.807 104.733 144.585 99.4084C145.448 98.82 148.101 97.6962 148.314 96.9901L148.214 76.3612C148.042 76.1729 147.38 75.4374 147.298 75.4374H125.288V147.798V147.792Z" fill="#0048FF"/>
<path d="M101.89 87.6936H32.3224V96.8901H101.89V87.6936Z" fill="#0048FF"/>
<path d="M101.89 106.093H32.3224V115.289H101.89V106.093Z" fill="#0048FF"/>
<path d="M101.89 124.797H32.3224V133.994H101.89V124.797Z" fill="#0048FF"/>
</svg>
