<?xml version="1.0" encoding="UTF-8"?>
<svg id="Layer_1" data-name="Layer 1" xmlns="http://www.w3.org/2000/svg" viewBox="0 0 4037.36 4038.77">
  <defs>
    <style>
      .cls-1 {
        fill: #f3fafb;
      }

      .cls-2 {
        fill: #f3fbfb;
      }

      .cls-3 {
        fill: #e2f6fb;
      }

      .cls-4 {
        fill: #fafdfd;
      }

      .cls-5 {
        fill: #f6fbfc;
      }

      .cls-6 {
        fill: #f9fcfd;
      }

      .cls-7 {
        fill: #039ad1;
      }

      .cls-8 {
        fill: #08a1d4;
      }

      .cls-9 {
        fill: #df3f40;
      }

      .cls-10 {
        fill: #f5fbfc;
      }

      .cls-11 {
        fill: #e83c3a;
      }

      .cls-12 {
        fill: #eff9fa;
      }

      .cls-13 {
        fill: #ec3a38;
      }

      .cls-14 {
        fill: #0098d0;
      }

      .cls-15 {
        fill: #e33d3d;
      }

      .cls-16 {
        fill: #f03834;
      }

      .cls-17 {
        fill: #fbfdfd;
      }

      .cls-18 {
        fill: #039bd2;
      }

      .cls-19 {
        fill: #ed3a37;
      }

      .cls-20 {
        fill: #0798cd;
      }

      .cls-21 {
        fill: #e63c3b;
      }

      .cls-22 {
        fill: #fdfdfd;
      }

      .cls-23 {
        fill: #e83b3a;
      }

      .cls-24 {
        fill: #fcfdfd;
      }
    </style>
  </defs>
  <g id="xP8tfk.tif">
    <g>
      <path class="cls-14" d="M2161.86,4038.77h-283.91l-207-29.6C837.84,3863.73,175.71,3203.24,31.5,2368.95l-29.59-207.1c4.46-91.21-6-187.95,0-278.48C112.96,208.99,2139.49-612.68,3383.93,529.84c1304.09,1197.28,532.5,3385.64-1222.07,3508.93ZM2083.92,134.55h-116.9v562.52h116.9V134.55ZM2941.13,752.77l42.27-89.23-209.08-125.61c-1.22-5.34,50.45-89.63,55.33-94.48,5.46-5.42,9.68-10.35,18.36-7.31,38.2,14.9,204.07,133.53,229.88,132.88,15.11-.38,43.8-64.49,52.22-80.23l-342.07-202.46-286.57,485.62,105.67,58.8,114.75-200.08,219.25,122.11ZM1071.44,836.96c7.29,44.78,75.14,89.02,118.99,94.05,170.6,19.58,408.97-168.01,267.37-339.9-87.23-105.9-248.31-4.39-356.47,11.31-61.82-7.81-72.05-67.56-32.79-110.85,19.39-21.39,81.66-51.82,110.58-50.96,37.22,1.11,61.47,39.41,72.49,39.34l89.57-50.11c5.15-8.09-2.29-15.9-6.37-22.02-116.15-174.16-499.98,17.47-368.82,235.35,83.79,139.19,233.92,30.46,348.35,16.37,61.01-7.51,98.97,40.51,65.13,92.98-38.44,59.6-168.61,119.06-211.63,33.32l-96.38,51.13ZM2365.92,370.4c-104.53,3.57-73.89,177.91,31.08,135.81,71.79-28.79,47.86-138.51-31.08-135.81ZM1659.22,375.23c-73.6,16.9-58.84,147.13,30.76,137.01,89.73-10.13,81.94-162.89-30.76-137.01ZM2969.05,2763.36c11.09.81,11.88-4.97,16.7-11.14,5.13-6.56,13.7-23.86,16.7-27.85,1.84-2.45,6.9-5.22,11.13-11.14,12-16.77,22.37-32.75,33.4-50.13,8.36-13.17,14.61-25.77,22.27-38.99,5.41-9.34,11.45-18.08,16.7-27.85,2.55-4.75,7.47-9.58,11.13-16.71,19.62-38.19,34.95-76.82,50.1-116.96.84-2.22,3.61-5.58,5.57-11.14,2-5.69,3.88-10.85,5.57-16.71,5.11-2.4,4.12-7.37,5.57-11.14,232.68-605.7-112.09-1308.55-705.6-1535.79-932.11-356.89-1872.22,495.43-1607.42,1457.81,219.91,799.24,1172.13,1145.36,1858.3,672.9,48.5-33.39,257.51-204.14,259.88-255.17ZM475.72,1877.14l-75.81-171.97-76.02,171.7-188.36-15.76,105.68,153-105.67,158.84,188.53-21.59,73.14,171.98c10.37,7.91,73.19-163.76,83.45-170.21l189.26,19.79-110.56-157.7,110.56-154.08-194.21,15.99ZM3898.69,1861.13c-8.15-6.92-164.58,26.3-189.48,14.12l-72.2-170.09c-6.75.58-9.39,7.65-12.17,12.82-25.5,47.46-45.63,108.79-66.32,159.18l-194.22-16,110.69,157.85-110.69,153.93,189.33-19.87,75.16,170.33c9.34,3.02,17.05-22.49,20.41-29.71,21.79-46.76,40.59-95.37,60.57-142.89l188.93,22.16-105.68-158.83,105.68-153ZM2784.85,3131.26l-344.26,192.4c13.4,23.42,23.62,50.01,37.1,73.18,2.88,4.95-.82,8.44,9.52,7.11l236.87-128.17c-28.5,159.44-27.34,340.37,53.46,484.17,16.49-9.94,90.64-41.29,91.19-57.74-49.81-114.36-74.03-237.35-66.92-362.64,1.87-32.95,23.54-117.05,20.95-138.39-1.82-15.01-34.45-50.73-37.92-69.92ZM1170.5,3709.78l298.9-456.02-69.93-53.78c-7.22-1.9-26.06,22.59-39.2,28.48-57.07,25.58-97.1-10.57-147.06-31.12-5.8,14.33-42.99,54.74-36.05,66.63l104.07,70.19-210.39,317.55c15.07,8.99,87.33,66.8,99.66,58.07ZM1477.17,3710.19c-16.45,150.91,171.66,234.77,286.65,150.35,129.08-94.76,208.23-462.93,7.13-525.08-313.25-96.82-349.59,410.14-52.98,356.69,20.22-3.64,25.58-17.19,43.07-20.9-16.49,63-51.82,151.47-132.57,129.75-35.65-9.59-39.63-35.41-46.78-67.33l-104.52-23.47ZM2267.39,3337.28l-88.08,11.63c-1.35,80.44-69.1,110.91-139.94,116.24l11.17,77.96,133.51-16.66,55.81,378.69,106.08-20.13-78.55-547.73Z"/>
      <path class="cls-24" d="M3163.89,2423.62c-5.47,2.05-4.35,6.91-5.57,11.14-1.69,5.86-3.56,11.02-5.57,16.71l-5.57,11.14c-15.15,40.14-30.48,78.77-50.1,116.96l-16.67.03.02,13.87,5.51,2.81c-5.26,9.77-11.29,18.51-16.7,27.85-11.77-.78-25.75,26.48-22.27,38.99-11.03,17.38-21.4,33.36-33.4,50.13h-11.12s-.01,11.14-.01,11.14c-3,3.99-11.57,21.28-16.7,27.85l-22.25.04c-2.13,5.48,5.58,10.48,5.55,11.1-2.37,51.03-211.38,221.78-259.88,255.17-686.17,472.47-1638.39,126.34-1858.3-672.9-264.8-962.38,675.32-1814.69,1607.42-1457.81,593.5,227.24,938.28,930.09,705.6,1535.79ZM1571.77,1721.86v-80.76c0-53.58-44.74-146.24-86.41-180.89-41.46-34.48-178.78-88.3-47.3-125.54,188.54-53.39,272.37,165.14,425.96,164.86,84.81-.15,103.86-78.13,134.57-139.9l45.45,1.14c33.61,98.53,75.56,166.73,191.71,125.91,110.57-38.86,177.87-159.38,307.47-160.73,28.91-.3,124.76,15.94,113.29,57.73-5.2,18.93-110.68,77.01-135.21,110.21-21.12,28.58-53.27,112.85-53.27,147.21v80.76l178.16-55.78c-30.04-72.37-35.49-156.18,6.54-224.49,30.26-49.19,89.84-71.53,56.88-142.43-46.21-99.4-214.24-88.73-297.5-48.18-99.35,48.39-137.6,112.25-204.44,190.9-4.35,5.11-5.85,14.33-15.13,12.62-10.09-2.41-40.35-83.3-40.1-96.49.93-47.62,68.14-189.82,58.62-222.51l-182.42-234.24-14.04-3.9-185.87,238.15c-3.14,8.34.34,16.02,1.54,24.07,8.2,55.33,54.35,145.3,57.07,192.68.86,14.9-28.3,99.34-40.08,102.24l-85.93-103.35c-81.8-74.89-164.13-137.43-281.67-130.81-74.8,4.22-191.34,58.91-150.1,150.67,10.49,23.33,40.19,40.59,52.77,59.82,44.77,68.42,43.77,162.57,11.3,235.25l178.13,55.77ZM1813.93,1554.78h-80.72c5.17,52.78,59.02,109.97,66.45,159.08,10.88,71.91-7.37,167.39.36,241.92-38.26-11.62-33.64,29.6-52.83,33.55-40.11,8.25-31.07-14.25-44.49-28.09-7.64-7.88-55.37-8.08-66.03-4.58-14.3,4.7-11.59,47.43-55.85,31.79-11.63-4.11-12.48-45.36-48-32.73l22.21-5.54-2.64-11.23-167.13-111.22-180.9,119.72,27.84,2.73.87,224.69,74.18,65.02c4.01,8.82,5.37,53.88,2.93,62.8-1.44,5.28-11.93,6.47-15.98,12.88-45.69,72.14-76.96,154.4-126,224.79-18.96-31.77-156.38-26.22-158.12-2.66l25.31,41.27c21.39-1.81,35.89-11.62,58.78-9.36,70,6.92,84.82,67.95,188.43,46.48,58.6-12.14,73.31-65.32,149.82-39.14,64.57,22.09,74.88,57.17,161.92,39.14,58.62-12.14,73.28-65.31,149.82-39.14,65,22.23,72.84,57.59,161.92,39.14,57.63-11.94,75.15-65.93,149.85-39.17,59.31,21.25,61.08,49.69,142.02,41.56,68.54-6.89,92.31-69.38,169.72-41.57,59.31,21.31,61.14,49.7,142.03,41.57,68.33-6.87,91.8-68.78,169.82-41.68,59.11,20.53,60.02,49.98,141.92,41.68,49.78-5.05,76.99-44.78,118.61-48.87,25.03-2.46,44.16,10.76,67.94,7.52l21.71-39.44c-24.57-22.67-70.94-22.98-102.46-19.43-17.47,1.97-53.42,21.03-64.01,14.3-41.77-69.53-74.47-148.78-117.67-216.99-4.05-6.4-14.54-7.6-15.98-12.88-2.44-8.91-1.08-53.98,2.93-62.8l74.18-65.02.87-224.69,27.86-.03-180.91-122.43-167.14,111.23-2.64,11.23,22.21,5.54c-47.43-10.93-28.86,50.37-79.82,32.56-20.28-7.09,3.88-34.23-56.76-32.75-52.55,1.28-32.77,26.74-50.76,32.77-51.81,17.35-33.75-42.94-79.86-32.51,7.01-75.73-9.57-168.14.51-241.79,6.81-49.77,61.29-105.99,66.32-159.22h-80.72c-6.92,0-11.31,46.66-47.44,25.16-8.5-5.06-7.49-23.67-14.71-25.4-23.21-5.57-65.84-4.76-68.4,25.54-37.84,18.87-37.09-20.66-48.29-24.6-7.58-2.67-52.31-2.21-58.01,1.83-9.81,6.95,1.57,27.89-30.43,25.84-26.39-1.69-15.22-23-28.46-27.67-5.92-2.09-53.52-2.01-56.92.16-6.14,3.92-1.98,37.15-41.68,27.25l-17.6-28.1ZM1182.09,2724.37c.96,1.02-1.09,7.89.11,11.08,6.23,2.81,10.41-5.45,11.02-5.51,3.5-.33,7.59-.22,11.13,0,.88.05,3.86,5.61,16.7,5.57,31.9-.09,52.84-1.52,83.5-11.14l.03,11.1h11.08s.03-16.67.03-16.67c5.5-2.02,9.01-7.68,22.27-11.14,28.73-7.5,8.52-3.81,16.7-11.14.62-.56,13.23-.39,16.7,0,.62.07,4.4,7.97,11.1,5.54l.04-16.68c8.39-.87,25.64-1.34,33.4,0,.61.11,4.31,3.64,11.13,5.57,20.13,5.68,27.85,11.49,44.53,22.28l.04,16.68c6.25,2.17,13.88-5.49,16.66-5.55,15.69-.34,15.45,5.18,16.7,5.57l.03,11.14c6.23,1.94,13.41-5.37,16.67-5.57,20.23-1.22,41,1.22,61.24,0,3.66-.22,7.53.45,11.13,0,12.19-1.52,60.19-37.87,80.77-44.96,21.53-7.42,48.15-6.66,69.53.4-5.75,23.36,20.77,21.66,34.66,28.32,4.42,2.12,4.07,10.48,8.01,11.07,7.04,1.04,12.18-6,13-5.97,10.63.31,16.55,4.88,22.27,5.57l8.44,16.66,7.85-.51.42-10.58c17.99,1.71,37.46-1.18,55.67,0h11.13c20.03-12.09,39.58-23.67,61.24-33.42,19.49.95,28.97,4.65,33.4-16.71,7.81-1.27,25.18-.97,33.4,0,23.45,9.45,23.73,35.53,55.67,27.85,21.66,16.49,24.61,10.63,50.1,16.71.61.14,2.92,3.54,11.13,5.57,23.5,5.79,17.61-10.45,33.4,16.71,4,6.88,3.81,6.5,13.89,5.6l-2.76-5.6,5.47-19.59c25.61-.48,45.17-14.77,66.9-24.96,6.24-2.93,20.65,7.32,16.7-11.14h5.57l18.74,5.28,9.09-16.42c8.16-.66,19.82-.85,27.83,0,.88.09,11.02,3.98,16.7,5.57,1.78.5,3.99-.57,5.57,0-5.51,17.82,20.17,32.7,33.4,22.28,47.23,20.85,75.8,28.45,128.04,16.71l.03,16.68,10.99-.09,11.24-22.15c16.49-7.18,28.51-18.75,50.1-27.85l3.37,4.65c10.35-1.33,22.08-3.08,18.9-15.79,7.63-1.2,25.59-1.08,33.4,0,.87.12,15.9,5.21,16.7,5.57,3.37,1.51,9.09,2.46,11.13,5.57,1.26,1.91-1.42,9.9,0,11.12,1.99,1.7,12.58-1.32,16.7.02,17.39,5.65,29.04,16.65,50.1,22.28l.03,16.68c12.13,2.92,10.76-3,16.67-11.11,22.09,2.6,50.63-.37,72.37-5.57l.03,11.1h11.02s5.65-16.67,5.65-16.67c18.56-7.71,35.05-18.89,55.67-27.85l3.34,4.78c19.59,1.85,16.66-13.17,18.93-15.92,9.38-11.39,22.4-32,33.4-38.99,1.71-1.09,7.78.8,11.11-.03l-.03-8.27c-1.11-3.82-5.1-2.5-5.51-2.84-37.11-30.46-108.73,29.02-141.62,39.33-79.85,25.03-103.88-37.15-173.49-44.27-82.46-8.43-111.54,51.14-177.64,49.88-55.31-1.06-86.68-53.38-155.84-50.86-65.48,2.38-100.28,55.83-161.69,50.75-49.99-4.14-82.29-53.21-150.06-50.75-65.68,2.39-98.53,55.99-161.69,50.75-39.49-3.27-68.58-37.78-109.4-46.48-96.01-20.46-120.94,47.97-191.01,46.59-58.72-1.16-89.49-54.23-161.49-50.77-63.92,3.07-91.32,51.9-150.26,50.77-58.09-1.11-104.22-63.29-169.68-50.48-5.72,5.47,21.83,48.01,28.16,52.53,16.85,12.04,65.87,23.78,83.15,42.12ZM1691.46,2696.52v5.57c3.61-1.86,3.61-3.71,0-5.57ZM2643.39,2696.52v5.57c3.61-1.86,3.61-3.71,0-5.57ZM1708.16,2702.09v5.57c3.61-1.86,3.61-3.71,0-5.57ZM2930.06,2707.72h-11.08v5.46h11.08v-5.46ZM2412.34,2724.4h-11.08v11.08h11.08v-11.08ZM1683.11,2746.65c-2.12.17-32.58,5.35-35.36,5.99-3.5.8-4.67,13.12-25.87,16.29-1.34.2-14.58-14.89-16.7,11.14-3.86,1.98-6.52,3.83-11.13,5.57-5.6-9.58-38.93-3.26-33.4,11.14-57.67,3.35-85.15-41.18-137.82-48.65-21.64-3.07-52.86-1.55-73.72,4.09l-28.14-3.24-5.26,19.95c-10.63,4.7-18.89,11.03-33.4,16.71l-33.41-5.57v16.71c-28.16,1.16-33.24-7.86-50.09-11.14l-8.84-22.42c-30.24,6.32-27.07,9.64-29.96,36.42,7.09,3.35,16.31-6.24,22.1-8.43h5.57c1.22,6.7,8.18,8.11,11.13,11.14,36.58,37.52,34.86,60.79,94.59,41.73,29.41-9.39,56.47-38.23,86.18-41.83,85.27-10.32,116.47,77.28,225.55,41.82,25.18-8.19,52.76-35.57,76.46-40.45,87.47-18.01,124.56,76.45,235.28,40.45,25.18-8.19,52.77-35.58,76.46-40.45,73.8-15.18,106.87,47.9,176.93,49.3,74.48,1.5,107.62-59.24,178.26-50.68,42.1,5.1,76.19,49.53,133.49,50.68,70.77,1.41,100.8-53.58,167.15-50.87,42.65,1.75,60.66,30.33,97.28,42.03,51.32,16.4,59.52.13,94.88-33.37,4.67-4.42,4.64-13.54,5.28-13.93,7.27-4.43,20.26,7.52,22.39-24.97-11.17,2.71-18.3-14.15-19.6-14.17-9.59-.21-36.09,27.1-36.19,39.14-9.26,1.11-30.22,1.47-38.97,0l-.03-22.25h-11.08s-.03,16.68-.03,16.68c-57.87-20.38-72.66-54.52-150.31-44.56l-11.24-16.66-11-.02-.03,22.25c-30.46,8.03-41.87,29.66-77.94,38.99l-8.42-11.09-8.26-.02-.03,16.68c-7.53.64-20.89,1.15-27.83,0l-.03-16.68h-11.08s-.03,11.11-.03,11.11c-36.85-11.64-55.45-37.3-98.85-43.11-30.25-4.05-47.24,2.78-73.72,4.12l-2.84-11.17-8.26.07-.03,11.1c-1.81-.12-3.83.34-5.57,0-.61-.12-3.25-8.2-11.1-5.54l-.03,16.68c-9.32,5.13-9.83,6.91-22.27,11.14-10.3,3.5-17.8-6.25-22.27,16.71-2.96.5-8.06.4-11.13,0-.62-.08-4.85-7.88-11.1-5.54l-.04,11.11c-18.4,10.23-100.72-23.33-100.2-38.99.04-1.24,7.46-5.99,5.54-11.1l-22.25,5.53c-51.9-14.01-91.83-3.11-139.17,16.71l-22.2-5.6-5.64,22.31c-3.71,1.55-7.72,4.65-11.13,5.57l-2.81-5.51-13.86-.02-.03,11.1c-29.81,2.9-62.62-5.16-83.5-27.85-.85-.92,1.92-8.41-.53-10.43-3.78-3.11-15.81.43-21.73-.71-29.28-5.6-45.66-12.71-77.94-11.14l-.03-16.68-8.26-.06-2.84,16.74ZM1755.45,2729.97h-11.08v11.08h11.08v-11.08ZM2053.3,2735.51v5.57c3.61-1.86,3.61-3.71,0-5.57ZM2512.54,2752.28h-16.65v5.46h16.65v-5.46ZM2740.8,2891.52c-52.61-25.78-97.1-39.33-155.7-19.4-33.51,11.4-58.2,41.86-97.56,42.03-61.79.26-88.25-59.15-178.11-50.47-73.33,7.08-90.47,74.07-178.33,39.05-54.72-21.81-60.86-46.05-133.42-39.05-70.8,6.83-87.25,70.58-169.73,41.58-39.33-13.83-53.16-38.23-102.89-41.83-85.41-6.18-108.3,47.9-167.49,50.47-49.87,2.16-83.7-44.6-133.32-50.3-50.5-5.81-81.29,7.95-125.26,27.93l42.95,38.17c86.26-42.75,131.58,38.77,213.48,37.83,66.73-.77,91.25-45.8,146.91-48.45,65.64-3.13,87.19,46.02,159.14,47.82,72.94,1.83,92.75-45.03,152.6-47.83,64.71-3.03,89.76,48.62,161.67,47.96,74.88-.69,101.13-58.42,177.68-47.24,31.12,4.55,53.75,32.61,82.19,40.29,108.85,29.41,140.33-50.7,229.74-40.5,11.41,1.3,21.45,13.03,32.49,10.11l42.95-38.17Z"/>
      <path class="cls-4" d="M1071.44,836.96l96.38-51.13c43.03,85.74,173.19,26.28,211.63-33.32,33.84-52.46-4.11-100.49-65.13-92.98-114.42,14.09-264.55,122.82-348.35-16.37-131.16-217.87,252.67-409.51,368.82-235.35,4.08,6.12,11.52,13.93,6.37,22.02l-89.57,50.11c-11.01.08-35.27-38.23-72.49-39.34-28.91-.86-91.18,29.57-110.58,50.96-39.26,43.3-29.03,103.04,32.79,110.85,108.16-15.7,269.23-117.21,356.47-11.31,141.6,171.9-96.77,359.49-267.37,339.9-43.85-5.03-111.7-49.27-118.99-94.05Z"/>
      <path class="cls-17" d="M3898.69,1861.13l-105.68,153,105.68,158.83-188.93-22.16c-19.99,47.52-38.79,96.13-60.57,142.89-3.36,7.22-11.07,32.73-20.41,29.71l-75.16-170.33-189.33,19.87,110.69-153.93-110.69-157.85,194.22,16c20.69-50.39,40.82-111.72,66.32-159.18,2.78-5.17,5.43-12.24,12.17-12.82l72.2,170.09c24.9,12.18,181.32-21.04,189.48-14.12Z"/>
      <path class="cls-17" d="M475.72,1877.14l194.21-15.99-110.56,154.08,110.56,157.7-189.26-19.79c-10.26,6.45-73.08,178.12-83.45,170.21l-73.14-171.98-188.53,21.59,105.67-158.84-105.68-153,188.36,15.76,76.02-171.7,75.81,171.97Z"/>
      <path class="cls-4" d="M1477.17,3710.19l104.52,23.47c7.15,31.92,11.13,57.75,46.78,67.33,80.75,21.72,116.08-66.76,132.57-129.75-17.49,3.71-22.85,17.26-43.07,20.9-296.61,53.45-260.27-453.51,52.98-356.69,201.1,62.16,121.94,430.32-7.13,525.08-114.99,84.42-303.09.57-286.65-150.35ZM1692.78,3416.24c-72.16,12.39-103.86,162.47-20.78,190.85,140.01,47.82,168.46-216.22,20.78-190.85Z"/>
      <path class="cls-6" d="M2941.13,752.77l-219.25-122.11-114.75,200.08-105.67-58.8,286.57-485.62,342.07,202.46c-8.42,15.74-37.11,79.85-52.22,80.23-25.81.65-191.68-117.98-229.88-132.88-8.68-3.03-12.9,1.89-18.36,7.31-4.88,4.85-56.54,89.14-55.33,94.48l209.08,125.61-42.27,89.23Z"/>
      <path class="cls-4" d="M2784.85,3131.26c3.47,19.19,36.09,54.91,37.92,69.92,2.59,21.33-19.08,105.44-20.95,138.39-7.1,125.29,17.11,248.28,66.92,362.64-.55,16.44-74.7,47.8-91.19,57.74-80.8-143.79-81.96-324.73-53.46-484.17l-236.87,128.17c-10.34,1.33-6.65-2.16-9.52-7.11-13.47-23.16-23.7-49.76-37.1-73.18l344.26-192.4Z"/>
      <path class="cls-6" d="M1170.5,3709.78c-12.33,8.74-84.59-49.07-99.66-58.07l210.39-317.55-104.07-70.19c-6.95-11.89,30.25-52.3,36.05-66.63,49.96,20.55,89.98,56.69,147.06,31.12,13.14-5.89,31.98-30.37,39.2-28.48l69.93,53.78-298.9,456.02Z"/>
      <path class="cls-4" d="M2267.39,3337.28l78.55,547.73-106.08,20.13-55.81-378.69-133.51,16.66-11.17-77.96c70.84-5.33,138.59-35.81,139.94-116.24l88.08-11.63Z"/>
      <rect class="cls-22" x="1967.02" y="134.55" width="116.9" height="562.52"/>
      <path class="cls-6" d="M2365.92,370.4c78.94-2.7,102.87,107.02,31.08,135.81-104.97,42.1-135.61-132.24-31.08-135.81Z"/>
      <path class="cls-5" d="M1659.22,375.23c112.69-25.88,120.49,126.87,30.76,137.01-89.6,10.12-104.36-120.1-30.76-137.01Z"/>
      <path class="cls-5" d="M3097.09,2579.56c-3.66,7.13-8.58,11.96-11.13,16.71l-5.51-2.81-.02-13.87,16.67-.03Z"/>
      <path class="cls-5" d="M2985.75,2752.22c-4.83,6.17-5.61,11.94-16.7,11.14.03-.62-7.68-5.62-5.55-11.1l22.25-.04Z"/>
      <path class="cls-5" d="M3069.26,2624.12c-7.66,13.22-13.91,25.82-22.27,38.99-3.48-12.51,10.5-39.77,22.27-38.99Z"/>
      <path class="cls-5" d="M3013.59,2713.23c-4.24,5.92-9.29,8.69-11.13,11.14v-11.13s11.13-.01,11.13-.01Z"/>
      <path class="cls-5" d="M3158.33,2434.76c1.22-4.23.1-9.09,5.57-11.14-1.45,3.76-.46,8.74-5.57,11.14Z"/>
      <path class="cls-5" d="M3147.19,2462.6l5.57-11.14c-1.96,5.56-4.73,8.92-5.57,11.14Z"/>
      <path class="cls-20" d="M1813.93,1554.78l17.6,28.1c39.7,9.9,35.54-23.33,41.68-27.25,3.4-2.17,51-2.24,56.92-.16,13.24,4.67,2.06,25.98,28.46,27.67,32,2.05,20.62-18.89,30.43-25.84,5.71-4.04,50.43-4.5,58.01-1.83,11.2,3.94,10.44,43.47,48.29,24.6,2.56-30.3,45.19-31.11,68.4-25.54,7.22,1.73,6.22,20.35,14.71,25.4,36.13,21.5,40.52-25.16,47.44-25.16h80.72c-5.03,53.23-59.5,109.45-66.32,159.22-10.08,73.65,6.5,166.07-.51,241.79,46.11-10.43,28.06,49.86,79.86,32.51,17.99-6.03-1.79-31.48,50.76-32.77,60.64-1.48,36.48,25.66,56.76,32.75,50.96,17.81,32.39-43.5,79.82-32.56l-22.21-5.54,2.64-11.23,167.14-111.23,180.91,122.43-27.86.03-.87,224.69-74.18,65.02c-4.01,8.82-5.37,53.88-2.93,62.8,1.44,5.28,11.93,6.47,15.98,12.88,43.2,68.21,75.91,147.46,117.67,216.99,10.59,6.74,46.54-12.33,64.01-14.3,31.51-3.55,77.89-3.24,102.46,19.43l-21.71,39.44c-23.78,3.24-42.91-9.98-67.94-7.52-41.62,4.1-68.83,43.83-118.61,48.87-81.9,8.3-82.81-21.15-141.92-41.68-78.02-27.1-101.49,34.81-169.82,41.68-80.89,8.13-82.71-20.27-142.03-41.57-77.41-27.81-101.18,34.69-169.72,41.57-80.95,8.13-82.71-20.32-142.02-41.56-74.7-26.76-92.22,27.23-149.85,39.17-89.09,18.46-96.92-16.91-161.92-39.14-76.54-26.17-91.2,26.99-149.82,39.14-87.05,18.03-97.35-17.04-161.92-39.14-76.51-26.18-91.22,27-149.82,39.14-103.61,21.47-118.42-39.56-188.43-46.48-22.89-2.26-37.39,7.55-58.78,9.36l-25.31-41.27c1.74-23.56,139.16-29.11,158.12,2.66,49.03-70.4,80.31-152.65,126-224.79,4.05-6.4,14.54-7.6,15.98-12.88,2.44-8.91,1.08-53.98-2.93-62.8l-74.18-65.02-.87-224.69-27.84-2.73,180.9-119.72,167.13,111.22,2.64,11.23-22.21,5.54c35.52-12.63,36.37,28.62,48,32.73,44.26,15.64,41.55-27.09,55.85-31.79,10.65-3.5,58.38-3.3,66.03,4.58,13.42,13.84,4.38,36.33,44.49,28.09,19.19-3.95,14.57-45.16,52.83-33.55-7.73-74.53,10.52-170.02-.36-241.92-7.43-49.11-61.28-106.3-66.45-159.08h80.72ZM1877.11,1609.62c-3.69,2.36-50.3,2.15-56.71-.05-11.99-4.11-17.55-38.53-48.19-26.92l36.78,83.87,411.35-.33c17.23-3.19,40.32-65.1,47.27-83.54l-32.63.68-9.74,27.47-59.67-.1c-31.69-68.37-52.32-1.25-57.51,0-10.89,2.63-52.04,1.19-60.75-5.38-9.67-7.29-5.81-23.26-27.38-23.3-25.91-.05-20.04,26.56-28.78,28.68-6,1.46-59.63.58-62.26-1.09-3.24-2.07-3.74-19.36-11.84-24.34-33.62-17.56-34.13,20.62-39.93,24.34ZM1930.83,1694.01h-114.12l-.03,66.86c19.98-3.37,66.96,7.08,80.84-5.51,10.22-9.28,12.76-40.58,41.51-39.28,1.89-7.32-.77-19.97-8.2-22.07ZM2083.92,1694.01h-128.04c-6.81,33.55,38.86,32.31,39.75,65.99l48.5-.02c.12-39.11,46-30.26,39.78-65.97ZM2223.09,1694.01h-114.12c-31.04,31.12,41.25,26.18,30.62,66.83h83.5v-66.83ZM1894.65,1777.56c-24.72,3.47-58.65-8.71-77.94,8.35v97.47h77.94v-105.82ZM2044.95,1777.56h-50.1v105.82h50.1v-105.82ZM2223.09,1883.38v-97.47c-19.28-17.06-53.22-4.88-77.94-8.35v105.82h77.94ZM1493.83,1927.93l-108.45-78.06-114.22,78.06h222.67ZM2768.65,1927.93l-114.11-77.91-114.13,77.91h228.24ZM1906.67,1962.23c6.37-3.91,23.9,3.05,30.12-6.08,5.05-7.41,4.82-48.32-2.82-53.64-17.78-3.14-110-6.43-116.48,3.93l-.55,54.68c29.38-8.35,28.73,23.85,34.01,27.2,4.29,2.72,33.68,2.01,40.03-.03,12.62-4.07,11.83-23.7,15.69-26.06ZM2222.31,1906.45l-112.59-5.58c-12.59,4.14-11.81,40.98-8.32,51.36,5.05,15.05,24.2,5.42,31.74,10.01,3.85,2.34,3.07,22,15.69,26.06,44.45,14.32,36.66-8.93,49.2-21.34,6.57-6.51,20.98-4.96,24.38-14.65,1.98-5.66,2.21-42.19-.08-45.86ZM2083.92,1905.65h-128.04l-.04,55.72c40.35-8.29,22.33,13.9,36.04,28.02,9.43,9.7,40.24,6.41,53.28,2.82,11.59-25.74,5.75-30.56,36.37-36.02l2.38-50.54ZM1371.36,1944.64h-114.12l-8.35,8.35v116.96c20.94,17.34,57.13,4.64,83.53,8.38,1.34-39.26-11.04-100,38.02-112.29l.92-21.41ZM1516.1,1944.64h-122.47c-7.1,29.84,12.61,19.74,24.92,33.55,20.08,22.52,12.72,71.97,14.02,100.15,26.4-3.74,62.6,8.96,83.53-8.38v-125.31ZM2646.17,1944.64h-114.12l-8.35,8.35v116.96c20.94,17.34,57.13,4.64,83.53,8.38,1.63-40.99-12.77-99.01,38.02-112.29l.91-21.41ZM2790.91,2069.95v-116.96l-8.35-8.35h-114.12c-7.1,29.84,12.61,19.74,24.92,33.55,20.08,22.52,12.72,71.97,14.02,100.15,15.71-2.79,78.71,7.24,83.53-8.38ZM1687.77,1984.56h-42.72s-15.79,32.7-15.79,32.7l-51.95-.24v27.9s885.19,0,885.19,0v-27.91s-54.54-1.16-54.54-1.16l-15.76-32.55-40.15,1.25-12.95,31.56h-70.55s-12.95-31.56-12.95-31.56l-42.9-.21c-4.48,49.04-46.3,30.44-83.32,31.77l-12.95-31.56h-42.72s-15.79,32.7-15.79,32.7c-21.88-2.98-50.92,3.67-71.42-.19-23.64-4.45-7.2-40.1-55.83-33.88-16.48,2.11-12.83,31.61-23.05,34.07-35.2-3.63-78.5,15.97-80.35-33.01l-43.03.31-15.79,32.7h-64.87s-15.79-32.7-15.79-32.7ZM1532.8,1989.2v175.44l-133.67,128.04,27.67,5.86,128.36-118.34-5.18-187.73-17.19-3.28ZM2507,1989.2l-17.19,3.28-5.18,187.73,128.36,118.34,27.67-5.86-133.67-128.04v-175.44ZM1644.17,2067.14h-72.43v61.32h72.43v-61.32ZM1744.34,2067.17h-83.5l-.03,61.29c9.98-1.8,31.29,3.37,38.14-.91,3.3-2.06,18.23-48.68,41.48-43.65l3.9-16.73ZM2273.19,2067.17h-506.59c-5.04,23.02,9.69,13.59,22.58,24.66,11.43,9.81,18.55,21.34,22.81,35.72l7.25,1.28c58.02,7.02,66.48-20.09,112.92-38.04,61.79-23.89,113.67-23.89,175.46,0,42.71,16.51,64.91,49.61,117.28,37.86,12.8-21.19,14.58-41.42,44.44-44.73l3.85-16.74ZM2378.96,2067.17h-83.5c-5.04,23.02,9.69,13.59,22.58,24.66,14.01,12.03,19.48,35.74,30.08,37.01l30.87-.38-.03-61.29ZM2468.06,2067.14h-72.43v61.32h72.43v-61.32ZM1371.36,2095.02h-122.47v61.26h122.47v-61.26ZM1516.1,2095.02h-122.47v61.26h122.47v-61.26ZM1838.98,2562.86v-286.83c0-76.66,108.6-147.92,180.92-147.92,71.02,0,180.92,73.38,180.92,147.92v286.83l33.63-14.87c-11.6-153.99,52.09-357.66-126.73-435.02-123.52-53.43-287.04,23.53-302.18,163.02-9.23,85,7.11,185.27-.19,272l33.63,14.87ZM2646.17,2095.02h-122.47v61.26h122.47v-61.26ZM2790.91,2095.02h-122.47v61.26h114.12c15.85-14.69,5.84-41.36,8.35-61.26ZM1699.81,2145.14h-128.04v72.4h172.57l-.89-26.98c-27.56,3.17-40.92-43.57-43.65-45.42ZM1844.52,2145.17c-41.12-7.29-31.08,9.41-46.88,28.23-14.19,16.89-43.68,12.93-36.61,44.12l43.68-.88,39.82-71.47ZM2227.8,2146.03c-4.63-2.94-31.36-2.39-38.08,1.87,8.82,8.14,16.82,16.54,23.52,26.6,20.9,31.4,13.3,51.51,59.98,43.06,7.88-35.78-13.14-25.33-30.91-44.29-7.37-7.86-13.2-26.41-14.5-27.24ZM2468.03,2145.14h-128.04c-3.29,0-14.72,48.92-43.65,45.42l-.89,26.98h172.57v-72.4ZM1972.58,2331.72v-169.87c-7.74-3.14-33.4,8.69-33.4,13.92v164.3h-27.83v-144.81c-7.23,3.88-33.4,38.48-33.4,41.77v103.04l-22.38,3.22.07,30.23,22.37-.07-.08,27.92h33.46s-.06-27.91-.06-27.91l24.65-.06,3.18,27.97h33.46l-.06-27.91,24.65-.06,3.18,27.97,35.81.06,6.4-28.04,24.65.06-.06,27.91h33.46s3.18-27.97,3.18-27.97l24.65.06-.06,27.91h33.46s-.08-27.92-.08-27.92l22.37.07.07-30.23-22.38-3.22v-103.04c0-3.29-26.18-37.89-33.4-41.77v144.81h-27.83v-164.3c0-5.23-25.66-17.07-33.4-13.92v169.87c0,6.21-17.89,10.49-24.51,8.59-12.6-25.21,7-178.52-9.62-188.84-10.15-2.28-28.31-3.42-32.16,8.52l-.54,180.11-27.81-8.37ZM1504.97,2172.99h-244.94l125.25,103.95c13.49,0,100.78-90.19,119.69-103.95ZM2774.21,2172.99h-233.81c32.45,40.24,75.05,71.16,114.06,104.7l119.75-104.7ZM1644.14,2234.25h-130.82c-18.95,0-32.12,55.43-25.05,72.4h155.87v-72.4ZM1794.44,2234.25h-133.6v72.4h122.47l11.13-72.4ZM2378.96,2234.25h-133.6l11.13,72.4h122.47v-72.4ZM2551.54,2306.66c7.07-16.97-6.1-72.4-25.05-72.4h-130.82v72.4h155.87ZM1388.06,2306.6c-5.42-10.84-53.43-52.46-61.21-44.47l-.06,44.56,61.26-.08ZM2712.95,2262.13c-7.78-7.98-55.79,33.64-61.21,44.47l61.26.08-.06-44.56ZM1783.31,2323.37h-203.19c-16.72,17.7-5.15,49.31-8.35,72.4h211.54v-72.4ZM2468.03,2395.77c-3.2-23.1,8.37-54.7-8.35-72.4h-203.19v72.4h211.54ZM1555.07,2328.94h-222.67v66.83h222.67v-66.83ZM2707.41,2328.94h-222.67v66.83h222.67v-66.83ZM1310.13,2546.15v-211.64l-117.34,214.42c-.59,9.6,1.04,7.16,7.3,9.9,36.93,16.19,75.87,3.74,110.04-12.68ZM2729.68,2546.15c39.84,17.17,84.85,33.9,122.27,2.84l-122.27-214.48v211.64ZM1644.14,2412.48h-155.87v72.4h155.87v-72.4ZM1783.31,2412.48h-122.47v72.4h122.47v-72.4ZM2378.96,2412.48h-122.47v72.4h122.47v-72.4ZM2551.54,2412.48h-155.87v72.4h155.87v-72.4ZM1466,2418.05h-133.6v66.83h133.6v-66.83ZM2707.41,2418.05h-130.82c-11.38,8.59-9.83,28.24-8.63,42.06.45,5.15-.43,10.49,1.16,15.54l7.47,9.23h130.82v-66.83ZM1555.07,2507.16h-222.67l.05,22.28c27.03-13.55,67.02-14.63,96.89-10.66,45.44,6.03,75.15,47.27,122.87,49.73l2.86-61.34ZM1783.31,2507.16h-205.97l2.84,55.75c67.47-40.39,124.38-60.78,203.1-33.5l.03-22.25ZM2462.47,2507.16h-205.97l.03,22.25c79.06-27.89,135.09-5.74,203.1,33.5l2.84-55.75ZM2707.41,2507.16h-222.67l2.86,61.34c44.29-1.07,77.77-42.06,118.16-48.88,30.67-5.18,73.54-4.08,101.61,9.81l.05-22.28Z"/>
      <path class="cls-8" d="M1571.77,1721.86l-178.13-55.77c32.47-72.68,33.47-166.84-11.3-235.25-12.59-19.23-42.28-36.49-52.77-59.82-41.24-91.76,75.3-146.45,150.1-150.67,117.54-6.63,199.87,55.92,281.67,130.81l85.93,103.35c11.78-2.9,40.94-87.34,40.08-102.24-2.72-47.38-48.87-137.36-57.07-192.68-1.19-8.05-4.68-15.73-1.54-24.07l185.87-238.15,14.04,3.9,182.42,234.24c9.51,32.69-57.69,174.9-58.62,222.51-.26,13.19,30.01,94.07,40.1,96.49,9.28,1.71,10.79-7.51,15.13-12.62,66.84-78.64,105.09-142.51,204.44-190.9,83.26-40.55,251.29-51.23,297.5,48.18,32.96,70.89-26.62,93.24-56.88,142.43-42.02,68.31-36.58,152.13-6.54,224.49l-178.16,55.78v-80.76c0-34.36,32.15-118.63,53.27-147.21,24.53-33.2,130.01-91.28,135.21-110.21,11.47-41.79-84.37-58.03-113.29-57.73-129.6,1.35-196.89,121.87-307.47,160.73-116.15,40.82-158.11-27.38-191.71-125.91l-45.45-1.14c-30.71,61.78-49.76,139.75-134.57,139.9-153.6.27-237.42-218.26-425.96-164.86-131.48,37.23,5.84,91.06,47.3,125.54,41.67,34.65,86.41,127.31,86.41,180.89v80.76ZM2184.05,1170.44l2.96-33.21-164.41-211.8c-20.27,33.83-170.41,198.37-172.61,220.12-.52,5.14,2.26,25.26,11.17,24.89l158.74-194.73,164.15,194.72ZM2033.82,1270.73v-247.84c0-1.7-11.28-10.29-13.92-13.8-2.64,3.5-13.92,12.1-13.92,13.8v247.84h27.83ZM1989.28,1270.73v-222.78c-46.65,42.84-81.05,98.56-125.06,144.55l19.29,78.23h105.77ZM2156.29,1270.73l15.81-79.53-121.58-143.25v222.78h105.77ZM1827.84,1471.18c-81.09-130.76-239.63-277.78-406.25-219.81-53.06,18.46-111.64,69.29-64.15,125.07,33.43-76.7,138.32-75.6,207.53-57.14,101.02,26.94,160.17,129.76,262.87,151.88ZM2211.96,1471.18c102.01-23.28,162.46-124.7,262.75-152,68.64-18.69,174.76-19.03,207.65,57.26,45.92-58.89-13-107.85-68.33-126.46-163.3-54.93-323.77,92.73-402.07,221.2ZM2145.16,1293.01h-250.51l14.8,50.38,225.19-3.58,10.51-46.8ZM1972.56,1359.87l-66.04.69c-7.69,23.05-11.87,47.64-21.94,69.97-4.01,8.89-32.54,48.41-28.87,51.81,68.99-1.99,104.46-61.28,116.85-122.47ZM2133.29,1360.56l-66.04-.69c8.41,40.28,29.45,92.44,70.08,110.84,10.19,4.61,52.67,19.66,41.45-2.39-18.07-35.52-40.13-64.41-45.49-107.76ZM1538.34,1582.59c-16.84-71.41-67.78-117.82-130.86-150.23,18.04,38.92,26.47,78.74,31.83,121.21l99.03,29.01ZM2629.45,1437.84c-63.7,25.05-116.35,81.57-127.95,150.35l99.21-34.38c3.56-40.56,12.09-78.91,28.74-115.96ZM1542.59,1606.21l-109.99-29.19-10.93,77.66c20.94,2.76,121.84,50.03,133.37,39.3l-12.45-87.77ZM2607.2,1577.03l-109.99,29.18-12.47,87.78c10.79,10.8,113.2-36.69,133.37-39.33l-10.91-77.64Z"/>
      <path class="cls-18" d="M2974.62,2635.26l-5.57,11.14c-11,6.99-24.02,27.6-33.4,38.99-10.61-2-17.02,8.86-22.27,11.14-20.62,8.96-37.11,20.14-55.67,27.85-4.03,1.67-12.58,4.58-16.7,5.57-21.74,5.2-50.28,8.17-72.37,5.57-.87-.1-11.67-4.23-16.7-5.57-21.07-5.63-32.71-16.63-50.1-22.28l-16.7-11.14c-2.04-3.11-7.77-4.06-11.13-5.57l-16.7-5.57c-7.81-1.08-25.77-1.2-33.4,0-14.47,2.28-15.51,8.29-22.27,11.14-21.6,9.1-33.61,20.67-50.1,27.85-5.86,2.55-15.5,4.05-22.27,5.57-52.23,11.75-80.81,4.14-128.04-16.71-8.8-3.89-19.16-17.17-33.4-22.28-1.58-.57-3.78.5-5.57,0l-16.7-5.57c-8.01-.85-19.68-.66-27.83,0-10.95.89-21.31.65-27.83,11.14h-5.57l-16.7,11.14c-21.73,10.19-41.29,24.48-66.9,24.96l-5.47,19.59h-11.13c-15.79-27.16-9.9-10.92-33.4-16.71l-11.13-5.57c-25.49-6.08-28.44-.22-50.1-16.71-20.34-15.48-27.87-24.58-55.67-27.85-8.22-.97-25.59-1.27-33.4,0-13.5,2.19-23.78,12.38-33.4,16.71-21.65,9.75-41.2,21.33-61.24,33.42l-8.38-5.41-2.76,5.41c-18.21-1.18-37.68,1.71-55.67,0-.88-.08-6.75-4.37-16.7-5.57-5.72-.69-11.64-5.25-22.27-5.57-16.18-11.15-37.28-27.34-55.67-33.42-21.39-7.07-48-7.82-69.53-.4-20.58,7.09-68.58,43.44-80.77,44.96l-8.29-5.54-2.84,5.54c-20.24,1.22-41-1.22-61.24,0-3.05-8.22-11.96-4.1-16.7-5.57-1.25-.39-1.01-5.91-16.7-5.57-3.79-6.76-11.38-7.7-16.7-11.14-16.69-10.79-24.4-16.6-44.53-22.28l-11.13-5.57c-7.76-1.34-25.01-.87-33.4,0-1.88.2-3.89-.36-5.57,0l-5.57,5.57v5.57c-3.47-.39-16.08-.56-16.7,0-8.18.01-14.29,3.11-16.7,11.14-13.25,3.46-16.77,9.11-22.27,11.14-4.44,1.64-8.77,4.83-11.13,5.57-30.66,9.62-51.6,11.04-83.5,11.14l-16.7-5.57c-3.54-.22-7.63-.33-11.13,0l-11.13-5.57c-17.28-18.34-66.3-30.08-83.15-42.12-6.33-4.52-33.87-47.06-28.16-52.53,65.46-12.82,111.59,49.37,169.68,50.48,58.94,1.13,86.33-47.71,150.26-50.77,72-3.45,102.76,49.61,161.49,50.77,70.07,1.38,95-67.05,191.01-46.59,40.81,8.7,69.91,43.2,109.4,46.48,63.15,5.24,96.01-48.36,161.69-50.75,67.77-2.47,100.06,46.61,150.06,50.75,61.41,5.08,96.21-48.36,161.69-50.75,69.16-2.52,100.53,49.8,155.84,50.86,66.1,1.26,95.18-58.31,177.64-49.88,69.61,7.12,93.64,69.31,173.49,44.27,32.89-10.31,104.51-69.79,141.62-39.33Z"/>
      <path class="cls-18" d="M1560.64,2796.77c18.13-1.05,20.63-6.31,33.4-11.14,4.62-1.74,7.27-3.59,11.13-5.57,5.42-2.78,14.49-.53,16.7-11.14,21.2-3.17,22.37-15.49,25.87-16.29,2.78-.64,33.25-5.82,35.36-5.99,3.67-.3,7.45.18,11.13,0,32.28-1.57,48.66,5.54,77.94,11.14l22.27,11.14c20.88,22.69,53.69,30.75,83.5,27.85,7.02-.68,11.41-4.15,16.7-5.57,3.42-.91,7.43-4.02,11.13-5.57,13.68-5.73,24.41-15.28,27.83-16.71,47.34-19.82,87.27-30.72,139.17-16.71,3.57.96,9.35,8.23,16.7,5.57-.52,15.66,81.81,49.21,100.2,38.99l11.13-5.57c3.07.4,8.18.5,11.13,0,7.72-1.3,18.83-8.95,22.27-16.71,12.44-4.23,12.95-6,22.27-11.14,3.74-2.06,14.57,4.7,11.13-11.14,1.73.34,3.75-.12,5.57,0,3.62.23,7.51.18,11.13,0,26.48-1.34,43.47-8.17,73.72-4.12,43.41,5.81,62,31.47,98.85,43.11,3.67,1.16,7.92,5.04,11.13,5.57,6.95,1.15,20.3.64,27.83,0,10.09-.86,12.16-4.39,16.7-5.57,36.07-9.33,47.47-30.96,77.94-38.99,4.17-1.1,20.38-5.33,22.27-5.57,77.65-9.96,92.44,24.18,150.31,44.56,3.65,1.28,7.93,5.03,11.13,5.57,8.75,1.47,29.7,1.11,38.97,0,13.13-1.58,23.46-8.79,36.13-11.2l-2.72,11.2c-.64.39-.61,9.51-5.28,13.93-35.36,33.49-43.56,49.76-94.88,33.37-36.62-11.7-54.63-40.28-97.28-42.03-66.35-2.72-96.38,52.28-167.15,50.87-57.29-1.15-91.39-45.58-133.49-50.68-70.63-8.56-103.78,52.18-178.26,50.68-70.06-1.41-103.13-64.49-176.93-49.3-23.69,4.87-51.28,32.27-76.46,40.45-110.73,36-147.82-58.46-235.28-40.45-23.7,4.88-51.28,32.26-76.46,40.45-109.08,35.47-140.28-52.14-225.55-41.82-29.71,3.6-56.77,32.44-86.18,41.83-59.73,19.06-58.02-4.2-94.59-41.73l-11.13-11.14h-5.57c4.43-1.68,5.58-7.73,16.7-5.57,16.85,3.28,21.93,12.3,50.1,11.14,23.42-.97,20.19-5.96,33.4-11.14,14.51-5.68,22.77-12.01,33.4-16.71,9.16-4.05,26.24-14.77,33.4-16.71,20.86-5.65,52.08-7.16,73.72-4.09,52.67,7.47,80.15,52,137.82,48.65Z"/>
      <path class="cls-18" d="M2740.8,2891.52l-42.95,38.17c-11.03,2.92-21.07-8.81-32.49-10.11-89.41-10.19-120.89,69.91-229.74,40.5-28.43-7.68-51.06-35.75-82.19-40.29-76.55-11.18-102.8,46.55-177.68,47.24-71.91.66-96.96-50.99-161.67-47.96-59.85,2.8-79.66,49.65-152.6,47.83-71.95-1.8-93.5-50.95-159.14-47.82-55.66,2.65-80.18,47.68-146.91,48.45-81.89.94-127.22-80.58-213.48-37.83l-42.95-38.17c43.96-19.98,74.76-33.74,125.26-27.93,49.62,5.71,83.44,52.46,133.32,50.3,59.19-2.56,82.09-56.65,167.49-50.47,49.73,3.6,63.56,28.01,102.89,41.83,82.48,29,98.93-34.75,169.73-41.58,72.55-7,78.7,17.23,133.42,39.05,87.86,35.02,104.99-31.96,178.33-39.05,89.85-8.68,116.32,50.74,178.11,50.47,39.36-.17,64.05-30.63,97.56-42.03,58.59-19.94,103.09-6.38,155.7,19.4Z"/>
      <path class="cls-5" d="M2813.18,2796.77c.1-12.04,26.6-39.35,36.19-39.14,1.3.03,8.43,16.88,19.6,14.17-2.13,32.48-15.12,20.54-22.39,24.97l2.72-11.2c-12.66,2.4-23,9.62-36.13,11.2Z"/>
      <path class="cls-5" d="M1182.09,2791.21c-5.79,2.19-15,11.78-22.1,8.43,2.89-26.78-.28-30.1,29.96-36.42l8.84,22.42c-11.13-2.16-12.27,3.89-16.7,5.57Z"/>
      <path class="cls-5" d="M1800.01,2724.37c-.82-.02-5.96,7.02-13,5.97-3.94-.59-3.59-8.95-8.01-11.07-13.89-6.66-40.41-4.96-34.66-28.32,18.39,6.08,39.49,22.27,55.67,33.42Z"/>
      <path class="cls-5" d="M2089.49,2713.23c-31.94,7.69-32.22-18.39-55.67-27.85,27.79,3.27,35.33,12.37,55.67,27.85Z"/>
      <path class="cls-5" d="M1282.29,2785.64c-13.21,5.18-9.99,10.17-33.4,11.14v-16.71s33.4,5.57,33.4,5.57Z"/>
      <path class="cls-5" d="M2401.23,2713.23c-13.23,10.42-38.91-4.45-33.4-22.28,14.25,5.11,24.6,18.39,33.4,22.28Z"/>
      <path class="cls-5" d="M1349.09,2752.22c-7.16,1.94-24.24,12.66-33.4,16.71l5.26-19.95,28.14,3.24Z"/>
      <path class="cls-5" d="M1933.62,2768.93c-3.42,1.43-14.16,10.98-27.83,16.71l5.64-22.31,22.2,5.6Z"/>
      <path class="cls-5" d="M2317.73,2685.38l-9.09,16.42-18.74-5.28c6.53-10.49,16.88-10.25,27.83-11.14Z"/>
      <path class="cls-5" d="M1594.04,2785.64c-12.78,4.83-15.27,10.09-33.4,11.14-5.52-14.4,27.8-20.72,33.4-11.14Z"/>
      <path class="cls-5" d="M2590.51,2752.22l.03-22.25,11,.02,11.24,16.66c-1.88.24-18.1,4.47-22.27,5.57Z"/>
      <path class="cls-5" d="M2551.54,2724.37l-11.24,22.15-10.99.09-.03-16.68c6.77-1.52,16.41-3.02,22.27-5.57Z"/>
      <path class="cls-5" d="M2935.65,2685.38c-2.27,2.76.66,17.77-18.93,15.92l-3.34-4.78c5.25-2.28,11.65-13.14,22.27-11.14Z"/>
      <path class="cls-5" d="M2000.42,2685.38c-4.44,21.36-13.91,17.66-33.4,16.71,9.62-4.33,19.9-14.52,33.4-16.71Z"/>
      <path class="cls-5" d="M1838.98,2735.51l-.42,10.58-7.85.51-8.44-16.66c9.95,1.2,15.82,5.49,16.7,5.57Z"/>
      <path class="cls-5" d="M2623.91,2685.38c3.19,12.71-8.54,14.46-18.9,15.79l-3.37-4.65c6.76-2.85,7.8-8.86,22.27-11.14Z"/>
      <path class="cls-5" d="M2512.57,2791.21c-4.54,1.18-6.61,4.71-16.7,5.57l.03-16.68,8.26.02,8.42,11.09Z"/>
      <path class="cls-5" d="M2763.08,2791.21l.03-16.68h11.08s.03,22.25.03,22.25c-3.2-.54-7.49-4.28-11.13-5.57Z"/>
      <path class="cls-5" d="M1621.87,2768.93c-2.21,10.61-11.28,8.36-16.7,11.14,2.12-26.03,15.36-10.94,16.7-11.14Z"/>
      <path class="cls-5" d="M2768.65,2735.51c-5.91,8.11-4.54,14.02-16.67,11.11l-.03-16.68c5.03,1.34,15.83,5.47,16.7,5.57Z"/>
      <path class="cls-5" d="M1488.27,2724.37c-2.78.06-10.41,7.72-16.66,5.55l-.04-16.68c5.32,3.44,12.91,4.38,16.7,11.14Z"/>
      <path class="cls-5" d="M1315.69,2718.8l-.03,16.68h-11.08s-.03-11.11-.03-11.11c2.37-.74,6.69-3.93,11.13-5.57Z"/>
      <path class="cls-5" d="M2857.72,2724.37l-5.65,16.67h-11.02s-.03-11.1-.03-11.1c4.12-.99,12.67-3.9,16.7-5.57Z"/>
      <path class="cls-5" d="M1683.11,2746.65l2.84-16.74,8.26.06.03,16.68c-3.69.18-7.47-.3-11.13,0Z"/>
      <path class="cls-5" d="M1772.18,2757.79c5.92,1.13,17.95-2.41,21.73.71,2.45,2.02-.31,9.51.53,10.43l-22.27-11.14Z"/>
      <path class="cls-5" d="M2267.63,2752.22c3.43,15.84-7.4,9.08-11.13,11.14l.03-16.68c7.85-2.66,10.49,5.42,11.1,5.54Z"/>
      <path class="cls-5" d="M2072.79,2752.22l22.25-5.53c1.92,5.11-5.5,9.86-5.54,11.1-7.35,2.66-13.13-4.61-16.7-5.57Z"/>
      <path class="cls-5" d="M1894.65,2791.21c-5.29,1.41-9.68,4.89-16.7,5.57l.03-11.1,13.86.02,2.81,5.51Z"/>
      <path class="cls-5" d="M2456.9,2791.21l.03-11.1h11.08s.03,16.67.03,16.67c-3.21-.53-7.47-4.41-11.13-5.57Z"/>
      <path class="cls-5" d="M1382.5,2685.38l-.04,16.68c-6.7,2.43-10.48-5.48-11.1-5.54v-5.57c2.71-.53,4.85-5.41,5.57-5.57,1.68-.36,3.69.2,5.57,0Z"/>
      <path class="cls-5" d="M2701.84,2707.66c-4.12-1.34-14.71,1.68-16.7-.02-1.42-1.22,1.26-9.21,0-11.12l16.7,11.14Z"/>
      <path class="cls-5" d="M2234.23,2774.5c-3.44,7.76-14.55,15.41-22.27,16.71,4.46-22.96,11.97-13.21,22.27-16.71Z"/>
      <path class="cls-5" d="M1354.66,2696.52c-8.18,7.33,12.03,3.64-16.7,11.14,2.41-8.03,8.52-11.13,16.7-11.14Z"/>
      <path class="cls-5" d="M1521.67,2735.51c-3.27.2-10.45,7.51-16.67,5.57l-.03-11.14c4.74,1.47,13.65-2.65,16.7,5.57Z"/>
      <path class="cls-5" d="M2273.19,2752.22l.03-11.1,8.26-.07,2.84,11.17c-3.63.18-7.51.23-11.13,0Z"/>
      <path class="cls-5" d="M2974.62,2635.26c.41.34,4.4-.98,5.51,2.84l.03,8.27c-3.33.82-9.4-1.06-11.11.03l5.57-11.14Z"/>
      <rect class="cls-5" x="1744.37" y="2729.97" width="11.08" height="11.08"/>
      <rect class="cls-5" x="2401.26" y="2724.4" width="11.08" height="11.08"/>
      <path class="cls-5" d="M1193.22,2729.94c-.61.06-4.79,8.32-11.02,5.51-1.2-3.19.85-10.06-.11-11.08l11.13,5.57Z"/>
      <path class="cls-5" d="M2284.33,2696.52c3.95,18.45-10.46,8.21-16.7,11.14l16.7-11.14Z"/>
      <path class="cls-5" d="M2200.83,2791.21l-11.13,5.57.04-11.11c6.25-2.34,10.48,5.46,11.1,5.54Z"/>
      <path class="cls-5" d="M2195.26,2752.22l2.76,5.6c-10.08.91-9.89,1.28-13.89-5.6h11.13Z"/>
      <rect class="cls-5" x="2495.9" y="2752.28" width="16.65" height="5.46"/>
      <path class="cls-5" d="M1221.06,2735.51c-12.84.04-15.82-5.51-16.7-5.57l16.7,5.57Z"/>
      <path class="cls-5" d="M2362.26,2690.95c-5.68-1.59-15.83-5.48-16.7-5.57l16.7,5.57Z"/>
      <path class="cls-5" d="M2674.01,2690.95c-.8-.36-15.83-5.45-16.7-5.57l16.7,5.57Z"/>
      <path class="cls-5" d="M2150.72,2735.51c-8.22-2.03-10.53-5.43-11.13-5.57l11.13,5.57Z"/>
      <path class="cls-5" d="M1594.04,2735.51c-3.6.45-7.48-.22-11.13,0l2.84-5.54,8.29,5.54Z"/>
      <rect class="cls-5" x="2918.98" y="2707.72" width="11.08" height="5.46"/>
      <path class="cls-5" d="M1427.03,2690.95c-6.82-1.92-10.52-5.46-11.13-5.57l11.13,5.57Z"/>
      <path class="cls-5" d="M2053.3,2735.51c3.61,1.86,3.61,3.71,0,5.57v-5.57Z"/>
      <path class="cls-5" d="M1198.79,2802.34c-2.96-3.03-9.91-4.43-11.13-11.14l11.13,11.14Z"/>
      <path class="cls-5" d="M2643.39,2696.52c3.61,1.86,3.61,3.71,0,5.57v-5.57Z"/>
      <path class="cls-5" d="M1708.16,2702.09c3.61,1.86,3.61,3.71,0,5.57v-5.57Z"/>
      <polygon class="cls-5" points="1905.78 2735.51 1894.65 2735.51 1897.4 2730.1 1905.78 2735.51"/>
      <path class="cls-5" d="M1691.46,2696.52c3.61,1.86,3.61,3.71,0,5.57v-5.57Z"/>
      <path class="cls-7" d="M1692.78,3416.24c147.68-25.36,119.23,238.68-20.78,190.85-83.08-28.38-51.38-178.46,20.78-190.85Z"/>
      <path class="cls-2" d="M1972.58,2331.72l27.81,8.37.54-180.11c3.85-11.94,22.01-10.8,32.16-8.52,16.62,10.32-2.99,163.63,9.62,188.84,6.62,1.89,24.51-2.38,24.51-8.59v-169.87c7.74-3.14,33.4,8.69,33.4,13.92v164.3h27.83v-144.81c7.23,3.88,33.4,38.48,33.4,41.77v103.04l22.38,3.22-.07,30.23-22.37-.07.08,27.92h-33.46s.06-27.91.06-27.91l-24.65-.06-3.18,27.97h-33.46l.06-27.91-24.65-.06-6.4,28.04-35.81-.06-3.18-27.97-24.65.06.06,27.91h-33.46s-3.18-27.97-3.18-27.97l-24.65.06.06,27.91h-33.46s.08-27.92.08-27.92l-22.37.07-.07-30.23,22.38-3.22v-103.04c0-3.29,26.18-37.89,33.4-41.77v144.81h27.83v-164.3c0-5.23,25.66-17.07,33.4-13.92v169.87Z"/>
      <path class="cls-1" d="M1838.98,2562.86l-33.63-14.87c7.3-86.73-9.03-186.99.19-272,15.14-139.49,178.66-216.45,302.18-163.02,178.82,77.35,115.13,281.03,126.73,435.02l-33.63,14.87v-286.83c0-74.54-109.9-147.92-180.92-147.92-72.33,0-180.92,71.26-180.92,147.92v286.83Z"/>
      <path class="cls-5" d="M1687.77,1984.56l15.79,32.7h64.87s15.79-32.7,15.79-32.7l43.03-.31c1.84,48.98,45.15,29.38,80.35,33.01,10.22-2.47,6.57-31.97,23.05-34.07,48.64-6.21,32.19,29.43,55.83,33.88,20.5,3.86,49.54-2.79,71.42.19l15.79-32.7h42.72s12.95,31.56,12.95,31.56c37.02-1.33,78.84,17.27,83.32-31.77l42.9.21,12.95,31.56h70.55s12.95-31.56,12.95-31.56l40.15-1.25,15.76,32.55,54.54,1.16v27.91s-885.19,0-885.19,0v-27.9s51.95.24,51.95.24l15.79-32.7h42.72Z"/>
      <path class="cls-10" d="M1877.11,1609.62c5.8-3.72,6.31-41.9,39.93-24.34,8.1,4.98,8.6,22.27,11.84,24.34,2.63,1.68,56.26,2.55,62.26,1.09,8.73-2.12,2.86-28.73,28.78-28.68,21.57.04,17.71,16.02,27.38,23.3,8.71,6.57,49.86,8,60.75,5.38,5.19-1.25,25.82-68.37,57.51,0l59.67.1,9.74-27.47,32.63-.68c-6.95,18.43-30.04,80.34-47.27,83.54l-411.35.33-36.78-83.87c30.64-11.61,36.21,22.8,48.19,26.92,6.41,2.2,53.02,2.41,56.71.05Z"/>
      <path class="cls-11" d="M2273.19,2067.17l-3.85,16.74c-29.86,3.31-31.64,23.54-44.44,44.73-52.37,11.75-74.57-21.34-117.28-37.86-61.79-23.89-113.67-23.89-175.46,0-46.44,17.96-54.9,45.06-112.92,38.04l-7.25-1.28c-4.26-14.38-11.38-25.91-22.81-35.72-12.89-11.07-27.62-1.64-22.58-24.66h506.59Z"/>
      <path class="cls-11" d="M1783.31,2323.37v72.4h-211.54c3.2-23.1-8.37-54.7,8.35-72.4h203.19Z"/>
      <path class="cls-11" d="M2468.03,2395.77h-211.54v-72.4h203.19c16.72,17.7,5.15,49.31,8.35,72.4Z"/>
      <rect class="cls-16" x="1332.39" y="2328.94" width="222.67" height="66.83"/>
      <rect class="cls-16" x="2484.74" y="2328.94" width="222.67" height="66.83"/>
      <path class="cls-13" d="M1310.13,2546.15c-34.17,16.42-73.11,28.88-110.04,12.68-6.27-2.75-7.9-.3-7.3-9.9l117.34-214.42v211.64Z"/>
      <path class="cls-19" d="M2729.68,2546.15v-211.64l122.27,214.48c-37.42,31.06-82.43,14.34-122.27-2.84Z"/>
      <path class="cls-19" d="M1504.97,2172.99c-18.91,13.76-106.2,103.94-119.69,103.95l-125.25-103.95h244.94Z"/>
      <path class="cls-19" d="M2774.21,2172.99l-119.75,104.7c-39.01-33.55-81.61-64.46-114.06-104.7h233.81Z"/>
      <path class="cls-15" d="M1516.1,1944.64v125.31c-20.94,17.34-57.13,4.64-83.53,8.38-1.29-28.18,6.06-77.63-14.02-100.15-12.31-13.81-32.03-3.71-24.92-33.55h122.47Z"/>
      <path class="cls-15" d="M1371.36,1944.64l-.92,21.41c-49.06,12.29-36.68,73.03-38.02,112.29-26.4-3.74-62.6,8.96-83.53-8.38v-116.96l8.35-8.35h114.12Z"/>
      <path class="cls-15" d="M2790.91,2069.95c-4.82,15.62-67.83,5.6-83.53,8.38-1.29-28.18,6.06-77.63-14.02-100.15-12.31-13.81-32.03-3.71-24.92-33.55h114.12l8.35,8.35v116.96Z"/>
      <path class="cls-21" d="M2646.17,1944.64l-.91,21.41c-50.79,13.28-36.39,71.3-38.02,112.29-26.4-3.74-62.6,8.96-83.53-8.38v-116.96l8.35-8.35h114.12Z"/>
      <rect class="cls-11" x="2395.67" y="2412.48" width="155.87" height="72.4"/>
      <rect class="cls-11" x="1488.27" y="2412.48" width="155.87" height="72.4"/>
      <path class="cls-13" d="M2468.03,2145.14v72.4h-172.57l.89-26.98c28.93,3.5,40.35-45.42,43.65-45.42h128.04Z"/>
      <path class="cls-13" d="M1699.81,2145.14c2.72,1.85,16.09,48.59,43.65,45.42l.89,26.98h-172.57v-72.4h128.04Z"/>
      <path class="cls-19" d="M2551.54,2306.66h-155.87v-72.4h130.82c18.95,0,32.12,55.43,25.05,72.4Z"/>
      <path class="cls-19" d="M1644.14,2234.25v72.4h-155.87c-7.07-16.97,6.1-72.4,25.05-72.4h130.82Z"/>
      <polygon class="cls-5" points="2768.65 1927.93 2540.4 1927.93 2654.53 1850.02 2768.65 1927.93"/>
      <polygon class="cls-5" points="1493.83 1927.93 1271.16 1927.93 1385.38 1849.87 1493.83 1927.93"/>
      <path class="cls-23" d="M2083.92,1905.65l-2.38,50.54c-30.62,5.46-24.79,10.28-36.37,36.02-13.04,3.59-43.85,6.88-53.28-2.82-13.72-14.11,4.31-36.31-36.04-28.02l.04-55.72h128.04Z"/>
      <path class="cls-19" d="M2707.41,2418.05v66.83h-130.82l-7.47-9.23c-1.59-5.06-.72-10.4-1.16-15.54-1.2-13.82-2.75-33.47,8.63-42.06h130.82Z"/>
      <polygon class="cls-19" points="1794.44 2234.25 1783.31 2306.66 1660.84 2306.66 1660.84 2234.25 1794.44 2234.25"/>
      <polygon class="cls-19" points="2378.96 2234.25 2378.96 2306.66 2256.49 2306.66 2245.36 2234.25 2378.96 2234.25"/>
      <path class="cls-23" d="M1906.67,1962.23c-3.86,2.37-3.07,22-15.69,26.06-6.35,2.05-35.75,2.75-40.03.03-5.28-3.35-4.63-35.56-34.01-27.2l.55-54.68c6.49-10.36,98.7-7.08,116.48-3.93,7.64,5.32,7.86,46.22,2.82,53.64-6.22,9.13-23.75,2.18-30.12,6.08Z"/>
      <rect class="cls-16" x="1332.39" y="2418.05" width="133.6" height="66.83"/>
      <path class="cls-21" d="M2222.31,1906.45c2.29,3.67,2.06,40.2.08,45.86-3.39,9.69-17.8,8.14-24.38,14.65-12.54,12.41-4.75,35.66-49.2,21.34-12.62-4.07-11.84-23.72-15.69-26.06-7.54-4.59-26.68,5.04-31.74-10.01-3.49-10.38-4.27-47.23,8.32-51.36l112.59,5.58Z"/>
      <rect class="cls-23" x="1660.84" y="2412.48" width="122.47" height="72.4"/>
      <rect class="cls-23" x="2256.49" y="2412.48" width="122.47" height="72.4"/>
      <polygon class="cls-23" points="2507 1989.2 2507 2164.64 2640.67 2292.67 2613 2298.53 2484.64 2180.2 2489.81 1992.47 2507 1989.2"/>
      <polygon class="cls-23" points="1532.8 1989.2 1549.99 1992.47 1555.17 2180.2 1426.8 2298.53 1399.13 2292.67 1532.8 2164.64 1532.8 1989.2"/>
      <path class="cls-21" d="M2223.09,1883.38h-77.94v-105.82c24.72,3.47,58.65-8.71,77.94,8.35v97.47Z"/>
      <path class="cls-23" d="M1894.65,1777.56v105.82h-77.94v-97.47c19.28-17.06,53.22-4.88,77.94-8.35Z"/>
      <rect class="cls-19" x="2523.7" y="2095.02" width="122.47" height="61.26"/>
      <rect class="cls-19" x="1393.63" y="2095.02" width="122.47" height="61.26"/>
      <rect class="cls-13" x="1248.89" y="2095.02" width="122.47" height="61.26"/>
      <path class="cls-13" d="M2790.91,2095.02c-2.51,19.9,7.49,46.58-8.35,61.26h-114.12v-61.26h122.47Z"/>
      <path class="cls-9" d="M2223.09,1694.01v66.83h-83.5c10.63-40.65-61.65-35.71-30.62-66.83h114.12Z"/>
      <path class="cls-9" d="M1930.83,1694.01c7.43,2.1,10.09,14.75,8.2,22.07-28.76-1.3-31.29,30.01-41.51,39.28-13.88,12.59-60.86,2.14-80.84,5.51l.03-66.86h114.12Z"/>
      <path class="cls-23" d="M2707.41,2507.16l-.05,22.28c-28.07-13.89-70.94-14.99-101.61-9.81-40.39,6.82-73.87,47.81-118.16,48.88l-2.86-61.34h222.67Z"/>
      <path class="cls-9" d="M2083.92,1694.01c6.22,35.71-39.66,26.86-39.78,65.97l-48.5.02c-.89-33.68-46.56-32.43-39.75-65.99h128.04Z"/>
      <path class="cls-23" d="M1555.07,2507.16l-2.86,61.34c-47.72-2.46-77.43-43.7-122.87-49.73-29.87-3.97-69.86-2.89-96.89,10.66l-.05-22.28h222.67Z"/>
      <rect class="cls-23" x="1994.85" y="1777.56" width="50.1" height="105.82"/>
      <path class="cls-11" d="M2462.47,2507.16l-2.84,55.75c-68.01-39.24-124.04-61.4-203.1-33.5l-.03-22.25h205.97Z"/>
      <path class="cls-11" d="M1783.31,2507.16l-.03,22.25c-78.72-27.27-135.63-6.88-203.1,33.5l-2.84-55.75h205.97Z"/>
      <rect class="cls-15" x="1571.74" y="2067.14" width="72.43" height="61.32"/>
      <rect class="cls-21" x="2395.64" y="2067.14" width="72.43" height="61.32"/>
      <path class="cls-13" d="M1744.34,2067.17l-3.9,16.73c-23.25-5.03-38.19,41.59-41.48,43.65-6.85,4.28-28.16-.89-38.14.91l.03-61.29h83.5Z"/>
      <path class="cls-13" d="M2378.96,2067.17l.03,61.29-30.87.38c-10.6-1.28-16.06-24.98-30.08-37.01-12.89-11.07-27.62-1.64-22.58-24.66h83.5Z"/>
      <path class="cls-11" d="M1844.52,2145.17l-39.82,71.47-43.68.88c-7.07-31.19,22.43-27.23,36.61-44.12,15.81-18.82,5.76-35.51,46.88-28.23Z"/>
      <path class="cls-23" d="M2227.8,2146.03c1.3.83,7.14,19.38,14.5,27.24,17.77,18.96,38.79,8.51,30.91,44.29-46.68,8.45-39.08-11.66-59.98-43.06-6.7-10.06-14.69-18.46-23.52-26.6,6.72-4.26,33.45-4.81,38.08-1.87Z"/>
      <path class="cls-9" d="M2712.95,2262.13l.06,44.56-61.26-.08c5.42-10.84,53.43-52.46,61.21-44.47Z"/>
      <path class="cls-9" d="M1388.06,2306.6l-61.26.08.06-44.56c7.78-7.98,55.79,33.64,61.21,44.47Z"/>
      <path class="cls-5" d="M1827.84,1471.18c-102.7-22.12-161.84-124.94-262.87-151.88-69.21-18.46-174.1-19.55-207.53,57.14-47.49-55.77,11.09-106.61,64.15-125.07,166.62-57.97,325.16,89.05,406.25,219.81Z"/>
      <path class="cls-5" d="M2211.96,1471.18c78.3-128.47,238.77-276.13,402.07-221.2,55.32,18.61,114.24,67.57,68.33,126.46-32.89-76.3-139.01-75.95-207.65-57.26-100.29,27.3-160.73,128.72-262.75,152Z"/>
      <path class="cls-2" d="M1989.28,1270.73h-105.77l-19.29-78.23c44.01-45.99,78.4-101.71,125.06-144.55v222.78Z"/>
      <polygon class="cls-5" points="2156.29 1270.73 2050.52 1270.73 2050.52 1047.95 2172.1 1191.21 2156.29 1270.73"/>
      <path class="cls-12" d="M2184.05,1170.44l-164.15-194.72-158.74,194.73c-8.91.37-11.69-19.75-11.17-24.89,2.2-21.75,152.34-186.3,172.61-220.12l164.41,211.8-2.96,33.21Z"/>
      <polygon class="cls-1" points="2145.16 1293.01 2134.64 1339.81 1909.45 1343.39 1894.65 1293.01 2145.16 1293.01"/>
      <path class="cls-5" d="M2607.2,1577.03l10.91,77.64c-20.17,2.64-122.57,50.13-133.37,39.33l12.47-87.78,109.99-29.18Z"/>
      <path class="cls-5" d="M1542.59,1606.21l12.45,87.77c-11.53,10.72-112.44-36.54-133.37-39.3l10.93-77.66,109.99,29.19Z"/>
      <path class="cls-1" d="M1538.34,1582.59l-99.03-29.01c-5.35-42.47-13.79-82.3-31.83-121.21,63.08,32.41,114.02,78.82,130.86,150.23Z"/>
      <path class="cls-10" d="M2629.45,1437.84c-16.65,37.06-25.18,75.41-28.74,115.96l-99.21,34.38c11.61-68.78,64.25-125.3,127.95-150.35Z"/>
      <path class="cls-1" d="M1972.56,1359.87c-12.39,61.19-47.87,120.48-116.85,122.47-3.66-3.4,24.87-42.92,28.87-51.81,10.06-22.33,14.24-46.92,21.94-69.97l66.04-.69Z"/>
      <path class="cls-3" d="M2033.82,1270.73h-27.83v-247.84c0-1.7,11.28-10.29,13.92-13.8,2.64,3.5,13.92,12.1,13.92,13.8v247.84Z"/>
      <path class="cls-10" d="M2133.29,1360.56c5.36,43.35,27.42,72.24,45.49,107.76,11.21,22.05-31.27,7-41.45,2.39-40.63-18.4-61.67-70.56-70.08-110.84l66.04.69Z"/>
      <path class="cls-24" d="M1371.36,2690.95l5.57-5.57c-.72.16-2.85,5.04-5.57,5.57Z"/>
    </g>
  </g>
</svg>